{"glyphs":{"0":{"ha":886,"x_min":76,"x_max":811,"o":"m 443 -13 q 76 514 76 -13 q 170 915 76 788 q 443 1041 265 1041 q 716 915 621 1041 q 811 514 811 788 q 443 -13 811 -13 m 443 110 q 564 148 515 110 q 639 274 613 185 q 665 513 665 363 q 639 753 665 664 q 564 880 613 842 q 443 917 515 917 q 323 880 372 917 q 248 754 274 842 q 222 515 222 665 q 248 275 222 364 q 322 148 274 185 q 443 110 371 110 z "},"1":{"ha":528,"x_min":17,"x_max":411,"o":"m 317 1031 l 411 1031 l 411 0 l 264 0 l 264 851 l 17 677 l 17 818 l 317 1031 z "},"2":{"ha":703,"x_min":27,"x_max":661,"o":"m 661 124 l 661 0 l 40 0 l 40 80 l 329 458 q 432 618 401 552 q 462 747 462 685 q 411 877 462 836 q 251 919 360 919 q 27 878 131 919 l 27 1002 q 138 1030 73 1019 q 265 1041 203 1041 q 521 973 434 1041 q 608 760 608 904 q 573 597 608 677 q 454 408 539 517 l 233 124 l 661 124 z "},"3":{"ha":718,"x_min":34,"x_max":671,"o":"m 453 534 q 615 447 559 512 q 671 281 671 382 q 573 64 671 140 q 287 -13 476 -13 q 34 25 152 -13 l 34 140 q 158 111 93 122 q 283 101 223 101 q 469 149 408 101 q 531 288 531 196 q 288 469 531 469 l 157 469 l 157 585 l 239 585 q 432 631 367 585 q 496 765 496 677 q 443 885 496 844 q 283 926 390 926 q 56 888 165 926 l 56 1003 q 171 1031 106 1021 q 297 1041 235 1041 q 550 972 463 1041 q 638 776 638 903 q 589 624 638 687 q 453 534 540 561 z "},"4":{"ha":840,"x_min":31,"x_max":813,"o":"m 813 353 l 813 236 l 672 236 l 672 0 l 538 0 l 538 236 l 31 236 l 31 317 l 418 1028 l 563 1028 l 197 353 l 538 353 l 554 681 l 672 681 l 672 353 l 813 353 z "},"5":{"ha":726,"x_min":52,"x_max":689,"o":"m 270 602 q 510 557 418 593 q 646 457 603 521 q 689 296 689 392 q 591 66 689 144 q 306 -13 494 -13 q 52 26 173 -13 l 52 142 q 177 113 112 123 q 302 103 242 103 q 488 150 427 103 q 549 292 549 197 q 518 396 549 356 q 415 459 488 436 q 217 488 343 481 l 89 496 l 124 1028 l 647 1028 l 647 910 l 255 910 l 234 604 l 270 602 z "},"6":{"ha":820,"x_min":83,"x_max":780,"o":"m 459 599 q 627 566 555 599 q 740 465 699 533 q 780 297 780 397 q 739 128 780 198 q 625 23 699 58 q 453 -13 551 -13 q 181 106 278 -13 q 83 481 83 224 q 199 903 83 765 q 537 1041 315 1041 q 731 1010 654 1041 l 731 892 q 542 924 650 924 q 307 828 385 924 q 226 528 228 733 q 332 581 270 562 q 459 599 394 599 m 455 99 q 593 147 541 99 q 644 292 644 195 q 589 440 644 392 q 433 488 533 488 q 324 471 378 488 q 227 419 269 453 q 260 230 231 300 q 337 129 288 159 q 455 99 385 99 z "},"7":{"ha":669,"x_min":8,"x_max":629,"o":"m 8 1028 l 629 1028 l 629 948 l 265 0 l 114 0 l 469 903 l 8 903 l 8 1028 z "},"8":{"ha":886,"x_min":65,"x_max":820,"o":"m 618 528 q 773 423 726 485 q 820 270 820 361 q 777 122 820 185 q 650 22 734 58 q 448 -13 567 -13 q 236 19 322 -13 q 108 113 151 52 q 65 258 65 174 q 115 415 65 347 q 257 520 165 483 q 135 624 173 563 q 97 767 97 685 q 138 912 97 850 q 258 1007 178 974 q 449 1041 338 1041 q 631 1010 554 1041 q 748 920 707 978 q 788 781 788 861 q 746 634 788 698 q 618 528 704 570 m 447 933 q 291 891 344 933 q 238 773 238 848 q 260 685 238 721 q 337 622 282 649 q 492 569 392 594 l 508 565 q 623 651 588 603 q 659 769 659 699 q 604 891 659 849 q 447 933 549 933 m 449 94 q 622 138 563 94 q 681 262 681 181 q 658 349 681 314 q 580 410 635 384 q 428 460 526 437 q 361 479 391 469 q 244 395 284 449 q 204 272 204 341 q 266 140 204 185 q 449 94 328 94 z "},"9":{"ha":820,"x_min":40,"x_max":738,"o":"m 367 1041 q 640 922 542 1041 q 738 547 738 803 q 622 125 738 263 q 283 -13 506 -13 q 89 17 166 -13 l 89 135 q 278 104 170 104 q 514 199 435 104 q 594 499 592 294 q 488 447 550 466 q 361 428 426 428 q 193 462 265 428 q 81 563 121 495 q 40 731 40 631 q 81 900 40 830 q 195 1005 122 969 q 367 1041 269 1041 m 176 735 q 231 588 176 636 q 387 540 287 540 q 497 557 442 540 q 593 609 551 574 q 560 798 589 728 q 483 899 532 869 q 365 929 435 929 q 227 881 279 929 q 176 735 176 833 z "},"\u0000":{"ha":0,"x_min":0,"x_max":0,"o":""},"\r":{"ha":342,"x_min":0,"x_max":0,"o":""}," ":{"ha":342,"x_min":0,"x_max":0,"o":""},"A":{"ha":958,"x_min":17,"x_max":942,"o":"m 794 0 l 688 315 l 269 315 l 162 0 l 17 0 l 374 1028 l 584 1028 l 942 0 l 794 0 m 310 436 l 646 436 l 478 930 l 310 436 z "},"Á":{"ha":958,"x_min":17,"x_max":942,"o":"m 794 0 l 688 315 l 269 315 l 162 0 l 17 0 l 374 1028 l 584 1028 l 942 0 l 794 0 m 310 436 l 646 436 l 478 930 l 310 436 m 413 1114 l 538 1315 l 692 1315 l 544 1114 l 413 1114 z "},"Ă":{"ha":958,"x_min":17,"x_max":942,"o":"m 794 0 l 688 315 l 269 315 l 162 0 l 17 0 l 374 1028 l 584 1028 l 942 0 l 794 0 m 310 436 l 646 436 l 478 930 l 310 436 m 480 1119 q 313 1168 373 1119 q 244 1303 253 1217 l 338 1303 q 380 1224 347 1250 q 480 1198 413 1198 q 580 1224 547 1198 q 620 1303 613 1250 l 714 1303 q 646 1168 705 1217 q 480 1119 588 1119 z "},"Ắ":{"ha":958,"x_min":17,"x_max":942,"o":"m 794 0 l 688 315 l 269 315 l 162 0 l 17 0 l 374 1028 l 584 1028 l 942 0 l 794 0 m 310 436 l 646 436 l 478 930 l 310 436 m 436 1277 l 537 1447 l 645 1447 l 522 1277 l 436 1277 m 480 1119 q 318 1164 375 1119 q 251 1291 260 1210 l 335 1291 q 376 1214 343 1240 q 480 1189 409 1189 q 583 1214 551 1189 q 626 1291 615 1239 l 708 1291 q 641 1165 698 1210 q 480 1119 583 1119 z "},"Ặ":{"ha":958,"x_min":17,"x_max":942,"o":"m 794 0 l 688 315 l 269 315 l 162 0 l 17 0 l 374 1028 l 584 1028 l 942 0 l 794 0 m 310 436 l 646 436 l 478 930 l 310 436 m 479 -258 q 409 -238 433 -258 q 384 -182 384 -218 q 409 -126 384 -147 q 479 -106 434 -106 q 549 -126 524 -106 q 574 -182 574 -147 q 550 -238 574 -218 q 479 -258 525 -258 m 480 1119 q 313 1168 373 1119 q 244 1303 253 1217 l 338 1303 q 380 1224 347 1250 q 480 1198 413 1198 q 580 1224 547 1198 q 620 1303 613 1250 l 714 1303 q 646 1168 705 1217 q 480 1119 588 1119 z "},"Ằ":{"ha":958,"x_min":17,"x_max":942,"o":"m 794 0 l 688 315 l 269 315 l 162 0 l 17 0 l 374 1028 l 584 1028 l 942 0 l 794 0 m 310 436 l 646 436 l 478 930 l 310 436 m 436 1277 l 313 1447 l 422 1447 l 522 1277 l 436 1277 m 478 1119 q 317 1164 374 1119 q 251 1291 260 1210 l 332 1291 q 375 1214 342 1239 q 478 1189 408 1189 q 582 1214 549 1189 q 624 1291 615 1240 l 708 1291 q 640 1165 698 1210 q 478 1119 583 1119 z "},"Ẳ":{"ha":958,"x_min":17,"x_max":942,"o":"m 794 0 l 688 315 l 269 315 l 162 0 l 17 0 l 374 1028 l 584 1028 l 942 0 l 794 0 m 310 436 l 646 436 l 478 930 l 310 436 m 438 1277 q 458 1320 440 1305 q 510 1349 476 1335 q 543 1366 533 1359 q 554 1385 554 1374 q 536 1407 554 1400 q 474 1415 517 1415 q 340 1394 407 1415 l 340 1452 q 406 1467 367 1461 q 484 1472 445 1472 q 600 1451 562 1472 q 638 1393 638 1431 q 628 1362 638 1374 q 607 1341 619 1349 q 572 1323 594 1333 q 535 1302 547 1311 q 520 1277 522 1292 l 438 1277 m 478 1119 q 317 1164 374 1119 q 251 1291 260 1210 l 335 1291 q 375 1214 343 1239 q 478 1189 408 1189 q 582 1214 549 1189 q 626 1291 615 1239 l 708 1291 q 640 1165 698 1210 q 478 1119 583 1119 z "},"Ẵ":{"ha":958,"x_min":17,"x_max":942,"o":"m 794 0 l 688 315 l 269 315 l 162 0 l 17 0 l 374 1028 l 584 1028 l 942 0 l 794 0 m 310 436 l 646 436 l 478 930 l 310 436 m 579 1334 q 529 1340 552 1334 q 467 1359 506 1346 q 417 1375 437 1370 q 378 1381 397 1381 q 314 1369 343 1381 q 251 1333 285 1358 l 251 1408 q 310 1441 280 1431 q 379 1451 341 1451 q 431 1445 406 1451 q 491 1426 456 1438 q 541 1409 520 1415 q 581 1403 561 1403 q 645 1415 616 1403 q 708 1451 674 1426 l 708 1376 q 649 1344 679 1353 q 579 1334 618 1334 m 478 1119 q 317 1164 374 1119 q 251 1291 260 1210 l 335 1291 q 375 1214 343 1239 q 478 1189 408 1189 q 582 1214 549 1189 q 624 1291 615 1240 l 708 1291 q 640 1165 698 1210 q 478 1119 583 1119 z "},"Â":{"ha":958,"x_min":17,"x_max":942,"o":"m 794 0 l 688 315 l 269 315 l 162 0 l 17 0 l 374 1028 l 584 1028 l 942 0 l 794 0 m 310 436 l 646 436 l 478 930 l 310 436 m 715 1114 l 597 1114 l 479 1256 l 361 1114 l 243 1114 l 415 1315 l 544 1315 l 715 1114 z "},"Ấ":{"ha":958,"x_min":17,"x_max":942,"o":"m 794 0 l 688 315 l 269 315 l 162 0 l 17 0 l 374 1028 l 584 1028 l 942 0 l 794 0 m 310 436 l 646 436 l 478 930 l 310 436 m 744 1433 l 851 1433 l 729 1254 l 642 1254 l 744 1433 m 415 1303 l 544 1303 l 715 1114 l 597 1114 l 479 1249 l 361 1114 l 243 1114 l 415 1303 z "},"Ậ":{"ha":958,"x_min":17,"x_max":942,"o":"m 794 0 l 688 315 l 269 315 l 162 0 l 17 0 l 374 1028 l 584 1028 l 942 0 l 794 0 m 310 436 l 646 436 l 478 930 l 310 436 m 479 -258 q 409 -238 433 -258 q 384 -182 384 -218 q 409 -126 384 -147 q 479 -106 434 -106 q 549 -126 524 -106 q 574 -182 574 -147 q 550 -238 574 -218 q 479 -258 525 -258 m 715 1114 l 597 1114 l 479 1256 l 361 1114 l 243 1114 l 415 1315 l 544 1315 l 715 1114 z "},"Ầ":{"ha":958,"x_min":17,"x_max":942,"o":"m 794 0 l 688 315 l 269 315 l 162 0 l 17 0 l 374 1028 l 584 1028 l 942 0 l 794 0 m 310 436 l 646 436 l 478 930 l 310 436 m 749 1254 l 662 1254 l 540 1433 l 647 1433 l 749 1254 m 415 1303 l 544 1303 l 715 1114 l 597 1114 l 479 1249 l 361 1114 l 243 1114 l 415 1303 z "},"Ẩ":{"ha":958,"x_min":17,"x_max":942,"o":"m 794 0 l 688 315 l 269 315 l 162 0 l 17 0 l 374 1028 l 584 1028 l 942 0 l 794 0 m 310 436 l 646 436 l 478 930 l 310 436 m 688 1450 q 804 1429 766 1450 q 842 1370 842 1408 q 826 1330 842 1344 q 777 1301 809 1315 q 739 1280 752 1290 q 724 1254 726 1269 l 642 1254 q 663 1297 644 1282 q 715 1326 682 1313 q 748 1344 738 1337 q 758 1363 758 1351 q 679 1392 758 1392 q 544 1372 611 1392 l 544 1429 q 611 1444 572 1439 q 688 1450 650 1450 m 415 1303 l 544 1303 l 715 1114 l 597 1114 l 479 1249 l 361 1114 l 243 1114 l 415 1303 z "},"Ẫ":{"ha":958,"x_min":17,"x_max":942,"o":"m 794 0 l 688 315 l 269 315 l 162 0 l 17 0 l 374 1028 l 584 1028 l 942 0 l 794 0 m 310 436 l 646 436 l 478 930 l 310 436 m 585 1403 q 652 1415 622 1403 q 715 1451 682 1426 l 715 1376 q 656 1344 688 1353 q 585 1334 625 1334 q 531 1340 556 1334 q 466 1359 506 1346 q 414 1375 435 1370 q 373 1381 393 1381 q 307 1369 337 1381 q 243 1333 276 1358 l 243 1408 q 303 1441 272 1431 q 374 1451 334 1451 q 430 1445 403 1451 q 492 1425 456 1438 q 544 1409 524 1414 q 585 1403 565 1403 m 415 1303 l 544 1303 l 715 1114 l 597 1114 l 479 1249 l 361 1114 l 243 1114 l 415 1303 z "},"Ȁ":{"ha":958,"x_min":17,"x_max":942,"o":"m 794 0 l 688 315 l 269 315 l 162 0 l 17 0 l 374 1028 l 584 1028 l 942 0 l 794 0 m 310 436 l 646 436 l 478 930 l 310 436 m 299 1114 l 200 1315 l 319 1315 l 410 1114 l 299 1114 m 548 1114 l 449 1315 l 568 1315 l 659 1114 l 548 1114 z "},"Ä":{"ha":958,"x_min":17,"x_max":942,"o":"m 794 0 l 688 315 l 269 315 l 162 0 l 17 0 l 374 1028 l 584 1028 l 942 0 l 794 0 m 310 436 l 646 436 l 478 930 l 310 436 m 311 1140 q 248 1160 270 1140 q 226 1216 226 1181 q 248 1272 226 1251 q 311 1292 270 1292 q 375 1272 352 1292 q 397 1216 397 1251 q 375 1160 397 1181 q 311 1140 352 1140 m 647 1140 q 584 1160 606 1140 q 561 1216 561 1181 q 584 1272 561 1251 q 647 1292 606 1292 q 710 1272 688 1292 q 733 1216 733 1251 q 710 1160 733 1181 q 647 1140 688 1140 z "},"Ạ":{"ha":958,"x_min":17,"x_max":942,"o":"m 794 0 l 688 315 l 269 315 l 162 0 l 17 0 l 374 1028 l 584 1028 l 942 0 l 794 0 m 310 436 l 646 436 l 478 930 l 310 436 m 479 -258 q 409 -238 433 -258 q 384 -182 384 -218 q 409 -126 384 -147 q 479 -106 434 -106 q 549 -126 524 -106 q 574 -182 574 -147 q 550 -238 574 -218 q 479 -258 525 -258 z "},"À":{"ha":958,"x_min":17,"x_max":942,"o":"m 794 0 l 688 315 l 269 315 l 162 0 l 17 0 l 374 1028 l 584 1028 l 942 0 l 794 0 m 310 436 l 646 436 l 478 930 l 310 436 m 414 1114 l 266 1315 l 420 1315 l 544 1114 l 414 1114 z "},"Ả":{"ha":958,"x_min":17,"x_max":942,"o":"m 794 0 l 688 315 l 269 315 l 162 0 l 17 0 l 374 1028 l 584 1028 l 942 0 l 794 0 m 310 436 l 646 436 l 478 930 l 310 436 m 438 1114 q 450 1149 439 1135 q 474 1172 460 1163 q 510 1190 488 1180 q 544 1209 533 1201 q 554 1228 554 1217 q 536 1251 554 1243 q 474 1259 517 1259 q 340 1238 406 1259 l 340 1301 q 407 1317 368 1311 q 484 1323 446 1323 q 600 1301 562 1323 q 638 1238 638 1278 q 628 1205 638 1218 q 607 1183 619 1191 q 573 1163 594 1174 q 535 1141 548 1151 q 520 1114 522 1130 l 438 1114 z "},"Ȃ":{"ha":958,"x_min":17,"x_max":942,"o":"m 794 0 l 688 315 l 269 315 l 162 0 l 17 0 l 374 1028 l 584 1028 l 942 0 l 794 0 m 310 436 l 646 436 l 478 930 l 310 436 m 244 1126 q 312 1261 253 1213 q 478 1310 371 1310 q 645 1261 585 1310 q 714 1126 705 1212 l 620 1126 q 578 1205 612 1179 q 478 1231 545 1231 q 379 1205 412 1231 q 338 1126 346 1179 l 244 1126 z "},"Ā":{"ha":958,"x_min":17,"x_max":942,"o":"m 794 0 l 688 315 l 269 315 l 162 0 l 17 0 l 374 1028 l 584 1028 l 942 0 l 794 0 m 310 436 l 646 436 l 478 930 l 310 436 m 253 1169 l 253 1261 l 705 1261 l 705 1169 l 253 1169 z "},"Ą":{"ha":958,"x_min":17,"x_max":1000,"o":"m 892 -228 q 942 -223 917 -228 q 1000 -204 967 -217 l 1000 -269 q 877 -294 940 -294 q 748 -260 792 -294 q 703 -162 703 -225 q 729 -74 703 -114 q 813 0 755 -35 l 794 0 l 688 315 l 269 315 l 162 0 l 17 0 l 374 1028 l 584 1028 l 942 0 q 825 -73 858 -37 q 792 -153 792 -110 q 817 -209 792 -190 q 892 -228 842 -228 m 310 436 l 646 436 l 478 930 l 310 436 z "},"Å":{"ha":958,"x_min":17,"x_max":942,"o":"m 794 0 l 688 315 l 269 315 l 162 0 l 17 0 l 374 1028 l 584 1028 l 942 0 l 794 0 m 310 436 l 646 436 l 478 930 l 310 436 m 481 1032 q 409 1050 441 1032 q 359 1099 377 1067 q 341 1169 341 1130 q 359 1240 341 1209 q 409 1289 377 1272 q 481 1307 441 1307 q 552 1289 520 1307 q 602 1240 584 1272 q 620 1169 620 1209 q 602 1099 620 1130 q 552 1050 584 1067 q 481 1032 520 1032 m 481 1092 q 535 1113 515 1092 q 556 1169 556 1134 q 535 1226 556 1205 q 481 1247 515 1247 q 426 1226 447 1247 q 405 1169 405 1205 q 426 1113 405 1134 q 481 1092 447 1092 z "},"Ǻ":{"ha":958,"x_min":17,"x_max":942,"o":"m 794 0 l 688 315 l 269 315 l 162 0 l 17 0 l 374 1028 l 584 1028 l 942 0 l 794 0 m 310 436 l 646 436 l 478 930 l 310 436 m 597 1248 q 620 1170 620 1214 q 602 1099 620 1131 q 552 1050 584 1067 q 481 1032 520 1032 q 409 1050 441 1032 q 359 1099 377 1067 q 341 1170 341 1131 q 359 1241 341 1209 q 409 1290 377 1272 q 481 1308 441 1308 q 533 1299 508 1308 l 615 1388 l 730 1388 l 597 1248 m 481 1092 q 535 1113 515 1092 q 556 1170 556 1134 q 535 1227 556 1206 q 481 1248 515 1248 q 426 1227 447 1248 q 405 1170 405 1206 q 426 1113 405 1134 q 481 1092 447 1092 z "},"Ã":{"ha":958,"x_min":17,"x_max":942,"o":"m 794 0 l 688 315 l 269 315 l 162 0 l 17 0 l 374 1028 l 584 1028 l 942 0 l 794 0 m 310 436 l 646 436 l 478 930 l 310 436 m 590 1148 q 534 1155 560 1148 q 468 1176 508 1162 q 413 1194 436 1188 q 366 1201 390 1201 q 299 1189 328 1201 q 241 1151 269 1177 l 241 1244 q 295 1279 265 1267 q 368 1291 326 1291 q 426 1284 399 1291 q 490 1263 453 1276 q 547 1243 526 1249 q 592 1238 569 1238 q 660 1249 631 1238 q 717 1287 689 1261 l 717 1194 q 663 1159 694 1171 q 590 1148 632 1148 z "},"Æ":{"ha":1315,"x_min":17,"x_max":1265,"o":"m 797 122 l 1265 122 l 1265 0 l 660 0 l 638 315 l 272 315 l 163 0 l 17 0 l 378 1028 l 1258 1028 l 1258 906 l 739 906 l 763 588 l 1190 588 l 1190 466 l 772 466 l 797 122 m 314 436 l 630 436 l 597 906 l 478 906 l 314 436 z "},"Ǽ":{"ha":1315,"x_min":17,"x_max":1265,"o":"m 797 122 l 1265 122 l 1265 0 l 660 0 l 638 315 l 272 315 l 163 0 l 17 0 l 378 1028 l 1258 1028 l 1258 906 l 739 906 l 763 588 l 1190 588 l 1190 466 l 772 466 l 797 122 m 314 436 l 630 436 l 597 906 l 478 906 l 314 436 m 594 1114 l 718 1315 l 872 1315 l 725 1114 l 594 1114 z "},"B":{"ha":890,"x_min":110,"x_max":844,"o":"m 638 531 q 791 447 739 511 q 844 282 844 383 q 797 121 844 185 q 646 23 749 56 q 375 -10 542 -10 q 110 8 247 -10 l 110 1009 q 407 1039 256 1039 q 717 971 619 1039 q 815 762 815 903 q 770 614 815 676 q 638 531 726 553 m 423 926 q 253 913 329 926 l 253 584 l 440 584 q 620 626 565 584 q 675 755 675 667 q 650 854 675 817 q 570 909 625 891 q 423 926 515 926 m 409 103 q 585 123 520 103 q 678 183 650 143 q 706 288 706 224 q 647 425 706 381 q 460 469 588 469 l 253 469 l 253 112 q 409 103 321 103 z "},"C":{"ha":817,"x_min":69,"x_max":788,"o":"m 555 -13 q 194 112 319 -13 q 69 512 69 237 q 197 911 69 781 q 566 1041 325 1041 q 788 1013 680 1041 l 788 888 q 574 916 686 916 q 379 876 457 916 q 262 748 301 836 q 222 515 222 659 q 262 277 222 366 q 378 150 302 189 q 567 112 453 112 q 676 120 623 112 q 788 149 729 129 l 788 24 q 555 -13 679 -13 z "},"Ć":{"ha":817,"x_min":69,"x_max":788,"o":"m 555 -13 q 194 112 319 -13 q 69 512 69 237 q 197 911 69 781 q 566 1041 325 1041 q 788 1013 680 1041 l 788 888 q 574 916 686 916 q 379 876 457 916 q 262 748 301 836 q 222 515 222 659 q 262 277 222 366 q 378 150 302 189 q 567 112 453 112 q 676 120 623 112 q 788 149 729 129 l 788 24 q 555 -13 679 -13 m 432 1114 l 556 1315 l 710 1315 l 563 1114 l 432 1114 z "},"Č":{"ha":817,"x_min":69,"x_max":788,"o":"m 555 -13 q 194 112 319 -13 q 69 512 69 237 q 197 911 69 781 q 566 1041 325 1041 q 788 1013 680 1041 l 788 888 q 574 916 686 916 q 379 876 457 916 q 262 748 301 836 q 222 515 222 659 q 262 277 222 366 q 378 150 302 189 q 567 112 453 112 q 676 120 623 112 q 788 149 729 129 l 788 24 q 555 -13 679 -13 m 616 1315 l 734 1315 l 563 1114 l 434 1114 l 262 1315 l 380 1315 l 498 1173 l 616 1315 z "},"Ç":{"ha":817,"x_min":69,"x_max":788,"o":"m 574 916 q 379 876 457 916 q 262 748 301 836 q 222 515 222 659 q 262 277 222 366 q 378 150 302 189 q 567 112 453 112 q 676 120 623 112 q 788 149 729 129 l 788 24 q 555 -13 679 -13 l 535 -13 l 535 -67 q 628 -102 595 -73 q 660 -179 660 -131 q 618 -265 660 -235 q 496 -294 576 -294 q 360 -270 420 -294 l 360 -205 q 490 -231 424 -231 q 556 -217 533 -231 q 578 -175 578 -204 q 488 -119 578 -119 l 458 -119 l 458 -8 q 169 141 269 16 q 69 512 69 266 q 197 911 69 781 q 566 1041 325 1041 q 788 1013 680 1041 l 788 888 q 574 916 686 916 z "},"Ḉ":{"ha":817,"x_min":69,"x_max":788,"o":"m 710 1315 l 563 1114 l 432 1114 l 556 1315 l 710 1315 m 574 916 q 379 876 457 916 q 262 748 301 836 q 222 515 222 659 q 262 277 222 366 q 378 150 302 189 q 567 112 453 112 q 676 120 623 112 q 788 149 729 129 l 788 24 q 555 -13 679 -13 l 535 -13 l 535 -67 q 628 -102 595 -73 q 660 -179 660 -131 q 618 -265 660 -235 q 496 -294 576 -294 q 360 -270 420 -294 l 360 -205 q 490 -231 424 -231 q 556 -217 533 -231 q 578 -175 578 -204 q 488 -119 578 -119 l 458 -119 l 458 -8 q 169 141 269 16 q 69 512 69 266 q 197 911 69 781 q 566 1041 325 1041 q 788 1013 680 1041 l 788 888 q 574 916 686 916 z "},"Ĉ":{"ha":817,"x_min":69,"x_max":788,"o":"m 555 -13 q 194 112 319 -13 q 69 512 69 237 q 197 911 69 781 q 566 1041 325 1041 q 788 1013 680 1041 l 788 888 q 574 916 686 916 q 379 876 457 916 q 262 748 301 836 q 222 515 222 659 q 262 277 222 366 q 378 150 302 189 q 567 112 453 112 q 676 120 623 112 q 788 149 729 129 l 788 24 q 555 -13 679 -13 m 734 1114 l 616 1114 l 498 1256 l 380 1114 l 262 1114 l 434 1315 l 563 1315 l 734 1114 z "},"Ċ":{"ha":817,"x_min":69,"x_max":788,"o":"m 555 -13 q 194 112 319 -13 q 69 512 69 237 q 197 911 69 781 q 566 1041 325 1041 q 788 1013 680 1041 l 788 888 q 574 916 686 916 q 379 876 457 916 q 262 748 301 836 q 222 515 222 659 q 262 277 222 366 q 378 150 302 189 q 567 112 453 112 q 676 120 623 112 q 788 149 729 129 l 788 24 q 555 -13 679 -13 m 498 1140 q 427 1160 452 1140 q 403 1216 403 1181 q 427 1272 403 1252 q 498 1292 452 1292 q 568 1272 544 1292 q 593 1216 593 1252 q 568 1160 593 1181 q 498 1140 544 1140 z "},"D":{"ha":992,"x_min":110,"x_max":924,"o":"m 365 -9 q 110 6 238 -9 l 110 1009 q 251 1031 176 1023 q 395 1038 326 1038 q 792 909 659 1038 q 924 514 924 780 q 786 117 924 244 q 365 -9 647 -9 m 399 114 q 608 155 526 114 q 732 284 690 196 q 773 515 773 372 q 682 820 773 724 q 403 916 591 916 q 257 903 337 916 l 257 122 q 399 114 318 114 z "},"Ǳ":{"ha":1777,"x_min":110,"x_max":1735,"o":"m 365 -9 q 110 6 238 -9 l 110 1009 q 251 1031 176 1023 q 395 1038 326 1038 q 792 909 659 1038 q 924 514 924 780 q 786 117 924 244 q 365 -9 647 -9 m 399 114 q 608 155 526 114 q 732 284 690 196 q 773 515 773 372 q 682 820 773 724 q 403 916 591 916 q 257 903 337 916 l 257 122 q 399 114 318 114 m 1192 125 l 1735 125 l 1735 0 l 1000 0 l 1000 81 l 1535 903 l 1008 903 l 1008 1028 l 1727 1028 l 1727 947 l 1192 125 z "},"Ǆ":{"ha":1777,"x_min":110,"x_max":1735,"o":"m 365 -9 q 110 6 238 -9 l 110 1009 q 251 1031 176 1023 q 395 1038 326 1038 q 792 909 659 1038 q 924 514 924 780 q 786 117 924 244 q 365 -9 647 -9 m 399 114 q 608 155 526 114 q 732 284 690 196 q 773 515 773 372 q 682 820 773 724 q 403 916 591 916 q 257 903 337 916 l 257 122 q 399 114 318 114 m 1192 125 l 1735 125 l 1735 0 l 1000 0 l 1000 81 l 1535 903 l 1008 903 l 1008 1028 l 1727 1028 l 1727 947 l 1192 125 m 1486 1315 l 1604 1315 l 1433 1114 l 1304 1114 l 1132 1315 l 1250 1315 l 1368 1173 l 1486 1315 z "},"Ð":{"ha":992,"x_min":2,"x_max":924,"o":"m 395 1038 q 792 909 659 1038 q 924 514 924 780 q 786 117 924 244 q 365 -9 647 -9 q 110 6 238 -9 l 110 479 l 2 479 l 2 578 l 110 578 l 110 1009 q 251 1031 176 1023 q 395 1038 326 1038 m 399 114 q 608 155 526 114 q 732 284 690 196 q 773 515 773 372 q 682 820 773 724 q 403 916 591 916 q 257 903 337 916 l 257 578 l 474 578 l 474 479 l 257 479 l 257 122 q 399 114 318 114 z "},"Ď":{"ha":992,"x_min":110,"x_max":924,"o":"m 365 -9 q 110 6 238 -9 l 110 1009 q 251 1031 176 1023 q 395 1038 326 1038 q 792 909 659 1038 q 924 514 924 780 q 786 117 924 244 q 365 -9 647 -9 m 399 114 q 608 155 526 114 q 732 284 690 196 q 773 515 773 372 q 682 820 773 724 q 403 916 591 916 q 257 903 337 916 l 257 122 q 399 114 318 114 m 566 1315 l 684 1315 l 513 1114 l 384 1114 l 212 1315 l 330 1315 l 448 1173 l 566 1315 z "},"Đ":{"ha":992,"x_min":2,"x_max":924,"o":"m 395 1038 q 792 909 659 1038 q 924 514 924 780 q 786 117 924 244 q 365 -9 647 -9 q 110 6 238 -9 l 110 479 l 2 479 l 2 578 l 110 578 l 110 1009 q 251 1031 176 1023 q 395 1038 326 1038 m 399 114 q 608 155 526 114 q 732 284 690 196 q 773 515 773 372 q 682 820 773 724 q 403 916 591 916 q 257 903 337 916 l 257 578 l 474 578 l 474 479 l 257 479 l 257 122 q 399 114 318 114 z "},"Ḍ":{"ha":992,"x_min":110,"x_max":924,"o":"m 365 -9 q 110 6 238 -9 l 110 1009 q 251 1031 176 1023 q 395 1038 326 1038 q 792 909 659 1038 q 924 514 924 780 q 786 117 924 244 q 365 -9 647 -9 m 399 114 q 608 155 526 114 q 732 284 690 196 q 773 515 773 372 q 682 820 773 724 q 403 916 591 916 q 257 903 337 916 l 257 122 q 399 114 318 114 m 453 -258 q 383 -238 408 -258 q 358 -182 358 -218 q 383 -126 358 -147 q 453 -106 408 -106 q 524 -126 499 -106 q 549 -182 549 -147 q 524 -238 549 -218 q 453 -258 499 -258 z "},"Ḏ":{"ha":992,"x_min":110,"x_max":924,"o":"m 365 -9 q 110 6 238 -9 l 110 1009 q 251 1031 176 1023 q 395 1038 326 1038 q 792 909 659 1038 q 924 514 924 780 q 786 117 924 244 q 365 -9 647 -9 m 399 114 q 608 155 526 114 q 732 284 690 196 q 773 515 773 372 q 682 820 773 724 q 403 916 591 916 q 257 903 337 916 l 257 122 q 399 114 318 114 m 228 -226 l 228 -133 l 679 -133 l 679 -226 l 228 -226 z "},"ǲ":{"ha":1649,"x_min":110,"x_max":1613,"o":"m 365 -9 q 110 6 238 -9 l 110 1009 q 251 1031 176 1023 q 395 1038 326 1038 q 792 909 659 1038 q 924 514 924 780 q 786 117 924 244 q 365 -9 647 -9 m 399 114 q 608 155 526 114 q 732 284 690 196 q 773 515 773 372 q 682 820 773 724 q 403 916 591 916 q 257 903 337 916 l 257 122 q 399 114 318 114 m 1215 117 l 1613 117 l 1613 0 l 1036 0 l 1036 90 l 1426 639 l 1044 639 l 1044 756 l 1604 756 l 1604 665 l 1215 117 z "},"ǅ":{"ha":1649,"x_min":110,"x_max":1613,"o":"m 365 -9 q 110 6 238 -9 l 110 1009 q 251 1031 176 1023 q 395 1038 326 1038 q 792 909 659 1038 q 924 514 924 780 q 786 117 924 244 q 365 -9 647 -9 m 399 114 q 608 155 526 114 q 732 284 690 196 q 773 515 773 372 q 682 820 773 724 q 403 916 591 916 q 257 903 337 916 l 257 122 q 399 114 318 114 m 1215 117 l 1613 117 l 1613 0 l 1036 0 l 1036 90 l 1426 639 l 1044 639 l 1044 756 l 1604 756 l 1604 665 l 1215 117 m 1442 1093 l 1560 1093 l 1389 892 l 1260 892 l 1088 1093 l 1206 1093 l 1324 951 l 1442 1093 z "},"E":{"ha":828,"x_min":110,"x_max":778,"o":"m 255 122 l 778 122 l 778 0 l 110 0 l 110 1028 l 771 1028 l 771 906 l 255 906 l 255 588 l 702 588 l 702 466 l 255 466 l 255 122 z "},"É":{"ha":828,"x_min":110,"x_max":778,"o":"m 255 122 l 778 122 l 778 0 l 110 0 l 110 1028 l 771 1028 l 771 906 l 255 906 l 255 588 l 702 588 l 702 466 l 255 466 l 255 122 m 390 1114 l 514 1315 l 668 1315 l 521 1114 l 390 1114 z "},"Ĕ":{"ha":828,"x_min":110,"x_max":778,"o":"m 255 122 l 778 122 l 778 0 l 110 0 l 110 1028 l 771 1028 l 771 906 l 255 906 l 255 588 l 702 588 l 702 466 l 255 466 l 255 122 m 456 1119 q 290 1168 349 1119 q 221 1303 230 1217 l 315 1303 q 356 1224 323 1250 q 456 1198 389 1198 q 556 1224 524 1198 q 597 1303 589 1250 l 690 1303 q 623 1168 681 1217 q 456 1119 564 1119 z "},"Ě":{"ha":828,"x_min":110,"x_max":778,"o":"m 255 122 l 778 122 l 778 0 l 110 0 l 110 1028 l 771 1028 l 771 906 l 255 906 l 255 588 l 702 588 l 702 466 l 255 466 l 255 122 m 574 1315 l 692 1315 l 520 1114 l 392 1114 l 219 1315 l 338 1315 l 456 1173 l 574 1315 z "},"Ḝ":{"ha":828,"x_min":110,"x_max":778,"o":"m 456 1119 q 290 1168 349 1119 q 221 1303 230 1217 l 315 1303 q 356 1224 323 1250 q 456 1198 389 1198 q 556 1224 524 1198 q 597 1303 589 1250 l 690 1303 q 623 1168 681 1217 q 456 1119 564 1119 m 488 0 l 488 -67 q 581 -102 548 -73 q 613 -179 613 -131 q 571 -265 613 -235 q 449 -294 528 -294 q 313 -270 373 -294 l 313 -205 q 442 -231 377 -231 q 508 -217 486 -231 q 531 -175 531 -204 q 441 -119 531 -119 l 411 -119 l 411 0 l 110 0 l 110 1028 l 771 1028 l 771 906 l 255 906 l 255 588 l 702 588 l 702 466 l 255 466 l 255 122 l 778 122 l 778 0 l 488 0 z "},"Ê":{"ha":828,"x_min":110,"x_max":778,"o":"m 255 122 l 778 122 l 778 0 l 110 0 l 110 1028 l 771 1028 l 771 906 l 255 906 l 255 588 l 702 588 l 702 466 l 255 466 l 255 122 m 692 1114 l 574 1114 l 456 1256 l 338 1114 l 219 1114 l 392 1315 l 520 1315 l 692 1114 z "},"Ế":{"ha":828,"x_min":110,"x_max":828,"o":"m 255 122 l 778 122 l 778 0 l 110 0 l 110 1028 l 771 1028 l 771 906 l 255 906 l 255 588 l 702 588 l 702 466 l 255 466 l 255 122 m 720 1433 l 828 1433 l 706 1254 l 619 1254 l 720 1433 m 392 1303 l 520 1303 l 692 1114 l 574 1114 l 456 1249 l 338 1114 l 219 1114 l 392 1303 z "},"Ệ":{"ha":828,"x_min":110,"x_max":778,"o":"m 255 122 l 778 122 l 778 0 l 110 0 l 110 1028 l 771 1028 l 771 906 l 255 906 l 255 588 l 702 588 l 702 466 l 255 466 l 255 122 m 457 -258 q 386 -238 411 -258 q 362 -182 362 -218 q 387 -126 362 -147 q 457 -106 412 -106 q 527 -126 502 -106 q 552 -182 552 -147 q 527 -238 552 -218 q 457 -258 503 -258 m 692 1114 l 574 1114 l 456 1256 l 338 1114 l 219 1114 l 392 1315 l 520 1315 l 692 1114 z "},"Ề":{"ha":828,"x_min":110,"x_max":778,"o":"m 255 122 l 778 122 l 778 0 l 110 0 l 110 1028 l 771 1028 l 771 906 l 255 906 l 255 588 l 702 588 l 702 466 l 255 466 l 255 122 m 725 1254 l 638 1254 l 516 1433 l 624 1433 l 725 1254 m 392 1303 l 520 1303 l 692 1114 l 574 1114 l 456 1249 l 338 1114 l 219 1114 l 392 1303 z "},"Ể":{"ha":828,"x_min":110,"x_max":819,"o":"m 255 122 l 778 122 l 778 0 l 110 0 l 110 1028 l 771 1028 l 771 906 l 255 906 l 255 588 l 702 588 l 702 466 l 255 466 l 255 122 m 665 1450 q 781 1429 742 1450 q 819 1370 819 1408 q 802 1330 819 1344 q 753 1301 785 1315 q 716 1280 728 1290 q 701 1254 703 1269 l 619 1254 q 639 1297 620 1282 q 691 1326 658 1313 q 725 1344 715 1337 q 735 1363 735 1351 q 656 1392 735 1392 q 520 1372 588 1392 l 520 1429 q 588 1444 549 1439 q 665 1450 626 1450 m 392 1303 l 520 1303 l 692 1114 l 574 1114 l 456 1249 l 338 1114 l 219 1114 l 392 1303 z "},"Ễ":{"ha":828,"x_min":110,"x_max":778,"o":"m 255 122 l 778 122 l 778 0 l 110 0 l 110 1028 l 771 1028 l 771 906 l 255 906 l 255 588 l 702 588 l 702 466 l 255 466 l 255 122 m 562 1403 q 628 1415 598 1403 q 692 1451 658 1426 l 692 1376 q 633 1344 664 1353 q 561 1334 601 1334 q 508 1340 533 1334 q 442 1359 483 1346 q 390 1375 411 1370 q 349 1381 369 1381 q 283 1369 313 1381 q 219 1333 253 1358 l 219 1408 q 280 1441 249 1431 q 350 1451 310 1451 q 406 1445 379 1451 q 469 1425 433 1438 q 521 1409 500 1414 q 562 1403 542 1403 m 392 1303 l 520 1303 l 692 1114 l 574 1114 l 456 1249 l 338 1114 l 219 1114 l 392 1303 z "},"Ȅ":{"ha":828,"x_min":110,"x_max":778,"o":"m 255 122 l 778 122 l 778 0 l 110 0 l 110 1028 l 771 1028 l 771 906 l 255 906 l 255 588 l 702 588 l 702 466 l 255 466 l 255 122 m 276 1114 l 176 1315 l 295 1315 l 387 1114 l 276 1114 m 524 1114 l 425 1315 l 544 1315 l 635 1114 l 524 1114 z "},"Ë":{"ha":828,"x_min":110,"x_max":778,"o":"m 255 122 l 778 122 l 778 0 l 110 0 l 110 1028 l 771 1028 l 771 906 l 255 906 l 255 588 l 702 588 l 702 466 l 255 466 l 255 122 m 288 1140 q 224 1160 247 1140 q 202 1216 202 1181 q 224 1272 202 1251 q 288 1292 247 1292 q 351 1272 328 1292 q 374 1216 374 1251 q 351 1160 374 1181 q 288 1140 328 1140 m 624 1140 q 560 1160 583 1140 q 538 1216 538 1181 q 560 1272 538 1251 q 624 1292 583 1292 q 687 1272 665 1292 q 709 1216 709 1251 q 687 1160 709 1181 q 624 1140 665 1140 z "},"Ė":{"ha":828,"x_min":110,"x_max":778,"o":"m 255 122 l 778 122 l 778 0 l 110 0 l 110 1028 l 771 1028 l 771 906 l 255 906 l 255 588 l 702 588 l 702 466 l 255 466 l 255 122 m 456 1140 q 385 1160 410 1140 q 360 1216 360 1181 q 385 1272 360 1252 q 456 1292 410 1292 q 526 1272 501 1292 q 551 1216 551 1252 q 526 1160 551 1181 q 456 1140 501 1140 z "},"Ẹ":{"ha":828,"x_min":110,"x_max":778,"o":"m 255 122 l 778 122 l 778 0 l 110 0 l 110 1028 l 771 1028 l 771 906 l 255 906 l 255 588 l 702 588 l 702 466 l 255 466 l 255 122 m 457 -258 q 386 -238 411 -258 q 362 -182 362 -218 q 387 -126 362 -147 q 457 -106 412 -106 q 527 -126 502 -106 q 552 -182 552 -147 q 527 -238 552 -218 q 457 -258 503 -258 z "},"È":{"ha":828,"x_min":110,"x_max":778,"o":"m 255 122 l 778 122 l 778 0 l 110 0 l 110 1028 l 771 1028 l 771 906 l 255 906 l 255 588 l 702 588 l 702 466 l 255 466 l 255 122 m 390 1114 l 242 1315 l 397 1315 l 521 1114 l 390 1114 z "},"Ẻ":{"ha":828,"x_min":110,"x_max":778,"o":"m 255 122 l 778 122 l 778 0 l 110 0 l 110 1028 l 771 1028 l 771 906 l 255 906 l 255 588 l 702 588 l 702 466 l 255 466 l 255 122 m 415 1114 q 426 1149 415 1135 q 450 1172 437 1163 q 487 1190 464 1180 q 520 1209 510 1201 q 531 1228 531 1217 q 512 1251 531 1243 q 451 1259 494 1259 q 316 1238 383 1259 l 316 1301 q 383 1317 344 1311 q 460 1323 422 1323 q 576 1301 538 1323 q 614 1238 614 1278 q 605 1205 614 1218 q 583 1183 596 1191 q 549 1163 571 1174 q 511 1141 524 1151 q 497 1114 499 1130 l 415 1114 z "},"Ȇ":{"ha":828,"x_min":110,"x_max":778,"o":"m 255 122 l 778 122 l 778 0 l 110 0 l 110 1028 l 771 1028 l 771 906 l 255 906 l 255 588 l 702 588 l 702 466 l 255 466 l 255 122 m 221 1126 q 289 1261 230 1213 q 455 1310 347 1310 q 622 1261 562 1310 q 690 1126 681 1212 l 597 1126 q 555 1205 588 1179 q 455 1231 522 1231 q 355 1205 388 1231 q 315 1126 322 1179 l 221 1126 z "},"Ē":{"ha":828,"x_min":110,"x_max":778,"o":"m 255 122 l 778 122 l 778 0 l 110 0 l 110 1028 l 771 1028 l 771 906 l 255 906 l 255 588 l 702 588 l 702 466 l 255 466 l 255 122 m 230 1169 l 230 1261 l 681 1261 l 681 1169 l 230 1169 z "},"Ḗ":{"ha":828,"x_min":110,"x_max":778,"o":"m 255 122 l 778 122 l 778 0 l 110 0 l 110 1028 l 771 1028 l 771 906 l 255 906 l 255 588 l 702 588 l 702 466 l 255 466 l 255 122 m 383 1336 l 508 1497 l 675 1497 l 528 1336 l 383 1336 m 230 1169 l 230 1261 l 681 1261 l 681 1169 l 230 1169 z "},"Ḕ":{"ha":828,"x_min":110,"x_max":778,"o":"m 255 122 l 778 122 l 778 0 l 110 0 l 110 1028 l 771 1028 l 771 906 l 255 906 l 255 588 l 702 588 l 702 466 l 255 466 l 255 122 m 383 1336 l 236 1497 l 403 1497 l 528 1336 l 383 1336 m 230 1169 l 230 1261 l 681 1261 l 681 1169 l 230 1169 z "},"Ę":{"ha":828,"x_min":110,"x_max":778,"o":"m 671 -228 q 720 -223 695 -228 q 778 -204 746 -217 l 778 -269 q 656 -294 719 -294 q 526 -260 570 -294 q 482 -162 482 -225 q 508 -74 482 -114 q 591 0 533 -35 l 110 0 l 110 1028 l 771 1028 l 771 906 l 255 906 l 255 588 l 702 588 l 702 466 l 255 466 l 255 122 l 778 122 l 778 0 l 720 0 q 603 -73 636 -37 q 570 -153 570 -110 q 595 -209 570 -190 q 671 -228 620 -228 z "},"Ẽ":{"ha":828,"x_min":110,"x_max":778,"o":"m 255 122 l 778 122 l 778 0 l 110 0 l 110 1028 l 771 1028 l 771 906 l 255 906 l 255 588 l 702 588 l 702 466 l 255 466 l 255 122 m 567 1148 q 510 1155 536 1148 q 444 1176 485 1162 q 389 1194 413 1188 q 342 1201 366 1201 q 275 1189 304 1201 q 217 1151 246 1177 l 217 1244 q 272 1279 241 1267 q 344 1291 303 1291 q 402 1284 375 1291 q 467 1263 430 1276 q 524 1243 502 1249 q 569 1238 545 1238 q 636 1249 607 1238 q 694 1287 665 1261 l 694 1194 q 639 1159 670 1171 q 567 1148 608 1148 z "},"F":{"ha":799,"x_min":110,"x_max":767,"o":"m 767 904 l 257 904 l 257 575 l 699 575 l 699 451 l 257 451 l 257 0 l 110 0 l 110 1028 l 767 1028 l 767 904 z "},"G":{"ha":952,"x_min":68,"x_max":852,"o":"m 852 500 l 852 11 q 614 -10 727 -10 q 205 117 341 -10 q 69 512 69 244 q 205 911 68 781 q 596 1041 342 1041 q 827 1012 713 1041 l 827 887 q 607 916 718 916 q 395 876 481 916 q 266 746 310 835 q 222 511 222 657 q 265 284 222 372 q 391 156 307 197 q 603 115 475 115 q 715 120 660 115 l 715 500 l 852 500 z "},"Ǵ":{"ha":952,"x_min":69,"x_max":852,"o":"m 852 500 l 852 11 q 614 -10 727 -10 q 205 117 341 -10 q 69 512 69 244 q 205 911 68 781 q 596 1041 342 1041 q 827 1012 713 1041 l 827 887 q 607 916 718 916 q 395 876 481 916 q 266 746 310 835 q 222 511 222 657 q 265 284 222 372 q 391 156 307 197 q 603 115 475 115 q 715 120 660 115 l 715 500 l 852 500 m 464 1114 l 588 1315 l 742 1315 l 595 1114 l 464 1114 z "},"Ğ":{"ha":952,"x_min":69,"x_max":852,"o":"m 852 500 l 852 11 q 614 -10 727 -10 q 205 117 341 -10 q 69 512 69 244 q 205 911 68 781 q 596 1041 342 1041 q 827 1012 713 1041 l 827 887 q 607 916 718 916 q 395 876 481 916 q 266 746 310 835 q 222 511 222 657 q 265 284 222 372 q 391 156 307 197 q 603 115 475 115 q 715 120 660 115 l 715 500 l 852 500 m 531 1119 q 364 1168 424 1119 q 295 1303 304 1217 l 389 1303 q 430 1224 397 1250 q 531 1198 463 1198 q 631 1224 598 1198 q 671 1303 663 1250 l 765 1303 q 697 1168 756 1217 q 531 1119 638 1119 z "},"Ǧ":{"ha":952,"x_min":69,"x_max":852,"o":"m 852 500 l 852 11 q 614 -10 727 -10 q 205 117 341 -10 q 69 512 69 244 q 205 911 68 781 q 596 1041 342 1041 q 827 1012 713 1041 l 827 887 q 607 916 718 916 q 395 876 481 916 q 266 746 310 835 q 222 511 222 657 q 265 284 222 372 q 391 156 307 197 q 603 115 475 115 q 715 120 660 115 l 715 500 l 852 500 m 648 1315 l 766 1315 l 594 1114 l 466 1114 l 294 1315 l 412 1315 l 530 1173 l 648 1315 z "},"Ĝ":{"ha":952,"x_min":69,"x_max":852,"o":"m 852 500 l 852 11 q 614 -10 727 -10 q 205 117 341 -10 q 69 512 69 244 q 205 911 68 781 q 596 1041 342 1041 q 827 1012 713 1041 l 827 887 q 607 916 718 916 q 395 876 481 916 q 266 746 310 835 q 222 511 222 657 q 265 284 222 372 q 391 156 307 197 q 603 115 475 115 q 715 120 660 115 l 715 500 l 852 500 m 766 1114 l 648 1114 l 530 1256 l 412 1114 l 294 1114 l 466 1315 l 594 1315 l 766 1114 z "},"Ģ":{"ha":952,"x_min":69,"x_max":852,"o":"m 852 500 l 852 11 q 614 -10 727 -10 q 205 117 341 -10 q 69 512 69 244 q 205 911 68 781 q 596 1041 342 1041 q 827 1012 713 1041 l 827 887 q 607 916 718 916 q 395 876 481 916 q 266 746 310 835 q 222 511 222 657 q 265 284 222 372 q 391 156 307 197 q 603 115 475 115 q 715 120 660 115 l 715 500 l 852 500 m 528 -106 q 618 -190 618 -106 q 606 -260 618 -222 q 574 -331 594 -299 l 484 -331 q 516 -232 510 -276 q 460 -212 479 -229 q 442 -169 442 -196 q 464 -123 442 -140 q 528 -106 486 -106 z "},"Ġ":{"ha":952,"x_min":69,"x_max":852,"o":"m 852 500 l 852 11 q 614 -10 727 -10 q 205 117 341 -10 q 69 512 69 244 q 205 911 68 781 q 596 1041 342 1041 q 827 1012 713 1041 l 827 887 q 607 916 718 916 q 395 876 481 916 q 266 746 310 835 q 222 511 222 657 q 265 284 222 372 q 391 156 307 197 q 603 115 475 115 q 715 120 660 115 l 715 500 l 852 500 m 530 1140 q 459 1160 484 1140 q 435 1216 435 1181 q 459 1272 435 1252 q 530 1292 484 1292 q 600 1272 576 1292 q 625 1216 625 1252 q 600 1160 625 1181 q 530 1140 576 1140 z "},"Ḡ":{"ha":952,"x_min":69,"x_max":852,"o":"m 852 500 l 852 11 q 614 -10 727 -10 q 205 117 341 -10 q 69 512 69 244 q 205 911 68 781 q 596 1041 342 1041 q 827 1012 713 1041 l 827 887 q 607 916 718 916 q 395 876 481 916 q 266 746 310 835 q 222 511 222 657 q 265 284 222 372 q 391 156 307 197 q 603 115 475 115 q 715 120 660 115 l 715 500 l 852 500 m 304 1169 l 304 1261 l 756 1261 l 756 1169 l 304 1169 z "},"H":{"ha":1020,"x_min":110,"x_max":910,"o":"m 110 0 l 110 1028 l 257 1028 l 257 592 l 763 592 l 763 1028 l 910 1028 l 910 0 l 763 0 l 763 461 l 257 461 l 257 0 l 110 0 z "},"Ħ":{"ha":1020,"x_min":2,"x_max":1018,"o":"m 1018 859 l 1018 763 l 910 763 l 910 0 l 763 0 l 763 461 l 257 461 l 257 0 l 110 0 l 110 763 l 2 763 l 2 859 l 110 859 l 110 1028 l 257 1028 l 257 859 l 763 859 l 763 1028 l 910 1028 l 910 859 l 1018 859 m 763 592 l 763 763 l 257 763 l 257 592 l 763 592 z "},"Ḫ":{"ha":1020,"x_min":110,"x_max":910,"o":"m 110 0 l 110 1028 l 257 1028 l 257 592 l 763 592 l 763 1028 l 910 1028 l 910 0 l 763 0 l 763 461 l 257 461 l 257 0 l 110 0 m 511 -292 q 342 -241 401 -292 q 276 -104 282 -191 l 369 -104 q 408 -186 374 -158 q 511 -213 442 -213 q 614 -186 580 -213 q 651 -104 647 -158 l 745 -104 q 680 -242 740 -192 q 511 -292 621 -292 z "},"Ĥ":{"ha":1020,"x_min":110,"x_max":910,"o":"m 110 0 l 110 1028 l 257 1028 l 257 592 l 763 592 l 763 1028 l 910 1028 l 910 0 l 763 0 l 763 461 l 257 461 l 257 0 l 110 0 m 747 1114 l 628 1114 l 510 1256 l 392 1114 l 274 1114 l 447 1315 l 575 1315 l 747 1114 z "},"Ḥ":{"ha":1020,"x_min":110,"x_max":910,"o":"m 110 0 l 110 1028 l 257 1028 l 257 592 l 763 592 l 763 1028 l 910 1028 l 910 0 l 763 0 l 763 461 l 257 461 l 257 0 l 110 0 m 510 -258 q 440 -238 465 -258 q 415 -182 415 -218 q 440 -126 415 -147 q 510 -106 465 -106 q 581 -126 556 -106 q 606 -182 606 -147 q 581 -238 606 -218 q 510 -258 556 -258 z "},"I":{"ha":367,"x_min":110,"x_max":257,"o":"m 110 0 l 110 1028 l 257 1028 l 257 0 l 110 0 z "},"Í":{"ha":367,"x_min":110,"x_max":396,"o":"m 110 0 l 110 1028 l 257 1028 l 257 0 l 110 0 m 117 1114 l 242 1315 l 396 1315 l 249 1114 l 117 1114 z "},"Ĭ":{"ha":367,"x_min":-51,"x_max":418,"o":"m 110 0 l 110 1028 l 257 1028 l 257 0 l 110 0 m 184 1119 q 17 1168 77 1119 q -51 1303 -42 1217 l 42 1303 q 84 1224 51 1250 q 184 1198 117 1198 q 284 1224 251 1198 q 324 1303 317 1250 l 418 1303 q 350 1168 409 1217 q 184 1119 292 1119 z "},"Î":{"ha":367,"x_min":-53,"x_max":419,"o":"m 110 0 l 110 1028 l 257 1028 l 257 0 l 110 0 m 419 1114 l 301 1114 l 183 1256 l 65 1114 l -53 1114 l 119 1315 l 248 1315 l 419 1114 z "},"Ȉ":{"ha":367,"x_min":-96,"x_max":363,"o":"m 110 0 l 110 1028 l 257 1028 l 257 0 l 110 0 m 3 1114 l -96 1315 l 23 1315 l 115 1114 l 3 1114 m 252 1114 l 153 1315 l 272 1315 l 363 1114 l 252 1114 z "},"Ï":{"ha":367,"x_min":-70,"x_max":437,"o":"m 110 0 l 110 1028 l 257 1028 l 257 0 l 110 0 m 15 1140 q -48 1160 -26 1140 q -70 1216 -70 1181 q -48 1272 -70 1251 q 15 1292 -26 1292 q 79 1272 56 1292 q 101 1216 101 1251 q 79 1160 101 1181 q 15 1140 56 1140 m 351 1140 q 288 1160 310 1140 q 265 1216 265 1181 q 288 1272 265 1251 q 351 1292 310 1292 q 415 1272 392 1292 q 437 1216 437 1251 q 415 1160 437 1181 q 351 1140 392 1140 z "},"Ḯ":{"ha":367,"x_min":-70,"x_max":437,"o":"m 110 0 l 110 1028 l 257 1028 l 257 0 l 110 0 m 111 1336 l 235 1497 l 403 1497 l 256 1336 l 111 1336 m 15 1140 q -48 1160 -26 1140 q -70 1216 -70 1181 q -48 1272 -70 1251 q 15 1292 -26 1292 q 79 1272 56 1292 q 101 1216 101 1251 q 79 1160 101 1181 q 15 1140 56 1140 m 351 1140 q 288 1160 310 1140 q 265 1216 265 1181 q 288 1272 265 1251 q 351 1292 310 1292 q 415 1272 392 1292 q 437 1216 437 1251 q 415 1160 437 1181 q 351 1140 392 1140 z "},"İ":{"ha":367,"x_min":88,"x_max":278,"o":"m 110 0 l 110 1028 l 257 1028 l 257 0 l 110 0 m 183 1140 q 113 1160 138 1140 q 88 1216 88 1181 q 113 1272 88 1252 q 183 1292 138 1292 q 254 1272 229 1292 q 278 1216 278 1252 q 254 1160 278 1181 q 183 1140 229 1140 z "},"Ị":{"ha":367,"x_min":88,"x_max":278,"o":"m 110 0 l 110 1028 l 257 1028 l 257 0 l 110 0 m 183 -258 q 112 -238 137 -258 q 88 -182 88 -218 q 113 -126 88 -147 q 183 -106 138 -106 q 253 -126 228 -106 q 278 -182 278 -147 q 253 -238 278 -218 q 183 -258 228 -258 z "},"Ì":{"ha":367,"x_min":-30,"x_max":257,"o":"m 110 0 l 110 1028 l 257 1028 l 257 0 l 110 0 m 118 1114 l -30 1315 l 124 1315 l 249 1114 l 118 1114 z "},"Ỉ":{"ha":367,"x_min":44,"x_max":342,"o":"m 110 0 l 110 1028 l 257 1028 l 257 0 l 110 0 m 142 1114 q 154 1149 143 1135 q 178 1172 165 1163 q 215 1190 192 1180 q 248 1209 238 1201 q 258 1228 258 1217 q 240 1251 258 1243 q 178 1259 222 1259 q 44 1238 110 1259 l 44 1301 q 111 1317 72 1311 q 188 1323 150 1323 q 304 1301 266 1323 q 342 1238 342 1278 q 333 1205 342 1218 q 311 1183 324 1191 q 277 1163 299 1174 q 239 1141 252 1151 q 224 1114 226 1130 l 142 1114 z "},"Ȋ":{"ha":367,"x_min":-51,"x_max":418,"o":"m 110 0 l 110 1028 l 257 1028 l 257 0 l 110 0 m -51 1126 q 16 1261 -42 1213 q 183 1310 75 1310 q 349 1261 290 1310 q 418 1126 409 1212 l 324 1126 q 283 1205 316 1179 q 183 1231 249 1231 q 83 1205 116 1231 q 42 1126 50 1179 l -51 1126 z "},"Ī":{"ha":367,"x_min":-42,"x_max":409,"o":"m 110 0 l 110 1028 l 257 1028 l 257 0 l 110 0 m -42 1169 l -42 1261 l 409 1261 l 409 1169 l -42 1169 z "},"Į":{"ha":367,"x_min":19,"x_max":315,"o":"m 208 -228 q 257 -223 232 -228 q 315 -204 283 -217 l 315 -269 q 192 -294 256 -294 q 63 -260 107 -294 q 19 -162 19 -225 q 44 -74 19 -114 q 128 0 70 -35 l 110 0 l 110 1028 l 257 1028 l 257 0 q 140 -73 173 -37 q 107 -153 107 -110 q 132 -209 107 -190 q 208 -228 157 -228 z "},"Ĩ":{"ha":367,"x_min":-55,"x_max":422,"o":"m 110 0 l 110 1028 l 257 1028 l 257 0 l 110 0 m 294 1148 q 238 1155 264 1148 q 172 1176 213 1162 q 117 1194 140 1188 q 70 1201 94 1201 q 3 1189 32 1201 q -55 1151 -26 1177 l -55 1244 q 0 1279 -31 1267 q 72 1291 31 1291 q 130 1284 103 1291 q 194 1263 158 1276 q 251 1243 230 1249 q 297 1238 273 1238 q 364 1249 335 1238 q 422 1287 393 1261 l 422 1194 q 367 1159 398 1171 q 294 1148 336 1148 z "},"J":{"ha":367,"x_min":-10,"x_max":257,"o":"m -10 -176 q 83 -1 55 -88 q 110 203 110 86 l 110 1028 l 257 1028 l 257 194 q 215 -34 253 67 q 86 -240 176 -135 l -10 -176 z "},"Ĵ":{"ha":367,"x_min":-53,"x_max":419,"o":"m -10 -176 q 83 -1 55 -88 q 110 203 110 86 l 110 1028 l 257 1028 l 257 194 q 215 -34 253 67 q 86 -240 176 -135 l -10 -176 m 419 1114 l 301 1114 l 183 1256 l 65 1114 l -53 1114 l 119 1315 l 248 1315 l 419 1114 z "},"K":{"ha":878,"x_min":110,"x_max":899,"o":"m 736 0 l 394 461 l 257 461 l 257 0 l 110 0 l 110 1028 l 257 1028 l 257 592 l 396 592 l 712 1028 l 870 1028 l 508 530 l 899 0 l 736 0 z "},"Ķ":{"ha":878,"x_min":110,"x_max":899,"o":"m 736 0 l 394 461 l 257 461 l 257 0 l 110 0 l 110 1028 l 257 1028 l 257 592 l 396 592 l 712 1028 l 870 1028 l 508 530 l 899 0 l 736 0 m 458 -106 q 547 -190 547 -106 q 535 -260 547 -222 q 503 -331 524 -299 l 413 -331 q 445 -232 439 -276 q 390 -212 408 -229 q 371 -169 371 -196 q 393 -123 371 -140 q 458 -106 415 -106 z "},"L":{"ha":760,"x_min":110,"x_max":752,"o":"m 110 0 l 110 1028 l 257 1028 l 257 126 l 752 126 l 752 0 l 110 0 z "},"Ǉ":{"ha":1126,"x_min":110,"x_max":1017,"o":"m 110 0 l 110 1028 l 257 1028 l 257 126 l 752 126 l 752 0 l 110 0 m 750 -176 q 842 -1 815 -88 q 870 203 870 86 l 870 1028 l 1017 1028 l 1017 194 q 974 -34 1013 67 q 846 -240 935 -135 l 750 -176 z "},"Ĺ":{"ha":760,"x_min":110,"x_max":752,"o":"m 110 0 l 110 1028 l 257 1028 l 257 126 l 752 126 l 752 0 l 110 0 m 119 1114 l 243 1315 l 397 1315 l 250 1114 l 119 1114 z "},"Ľ":{"ha":760,"x_min":110,"x_max":752,"o":"m 110 0 l 110 1028 l 257 1028 l 257 126 l 752 126 l 752 0 l 110 0 m 481 792 q 494 940 490 863 q 497 1122 497 1018 l 599 1122 q 562 792 599 926 l 481 792 z "},"Ļ":{"ha":760,"x_min":110,"x_max":752,"o":"m 110 0 l 110 1028 l 257 1028 l 257 126 l 752 126 l 752 0 l 110 0 m 430 -106 q 519 -190 519 -106 q 508 -260 519 -222 q 476 -331 496 -299 l 385 -331 q 417 -232 411 -276 q 362 -212 381 -229 q 343 -169 343 -196 q 365 -123 343 -140 q 430 -106 388 -106 z "},"Ŀ":{"ha":760,"x_min":110,"x_max":752,"o":"m 110 0 l 110 1028 l 257 1028 l 257 126 l 752 126 l 752 0 l 110 0 m 556 491 q 485 513 510 491 q 461 574 461 534 q 485 637 461 615 q 556 659 510 659 q 627 637 603 659 q 652 574 652 615 q 628 513 652 534 q 556 491 603 491 z "},"Ḷ":{"ha":760,"x_min":110,"x_max":752,"o":"m 110 0 l 110 1028 l 257 1028 l 257 126 l 752 126 l 752 0 l 110 0 m 431 -258 q 361 -238 385 -258 q 336 -182 336 -218 q 361 -126 336 -147 q 431 -106 386 -106 q 501 -126 476 -106 q 526 -182 526 -147 q 502 -238 526 -218 q 431 -258 477 -258 z "},"ǈ":{"ha":1101,"x_min":110,"x_max":1024,"o":"m 110 0 l 110 1028 l 257 1028 l 257 126 l 752 126 l 752 0 l 110 0 m 738 -260 q 830 -86 803 -173 q 858 119 858 1 l 858 756 l 1003 756 l 1003 126 q 964 -112 1003 -8 q 833 -324 924 -217 l 738 -260 m 929 906 q 858 927 883 906 q 834 989 834 949 q 858 1051 834 1029 q 929 1074 883 1074 q 1000 1051 976 1074 q 1024 989 1024 1029 q 1000 927 1024 949 q 929 906 976 906 z "},"Ḻ":{"ha":760,"x_min":110,"x_max":752,"o":"m 110 0 l 110 1028 l 257 1028 l 257 126 l 752 126 l 752 0 l 110 0 m 206 -226 l 206 -133 l 657 -133 l 657 -226 l 206 -226 z "},"Ł":{"ha":760,"x_min":-19,"x_max":752,"o":"m 257 126 l 752 126 l 752 0 l 110 0 l 110 448 l 31 395 l -19 481 l 110 567 l 110 1028 l 257 1028 l 257 666 l 445 792 l 494 706 l 257 547 l 257 126 z "},"M":{"ha":1247,"x_min":113,"x_max":1134,"o":"m 958 1028 l 1134 1028 l 1134 0 l 996 0 l 996 820 l 686 144 l 560 144 l 250 810 l 250 0 l 113 0 l 113 1028 l 289 1028 l 626 293 l 958 1028 z "},"Ṃ":{"ha":1247,"x_min":113,"x_max":1134,"o":"m 958 1028 l 1134 1028 l 1134 0 l 996 0 l 996 820 l 686 144 l 560 144 l 250 810 l 250 0 l 113 0 l 113 1028 l 289 1028 l 626 293 l 958 1028 m 631 -258 q 561 -238 585 -258 q 536 -182 536 -218 q 561 -126 536 -147 q 631 -106 586 -106 q 701 -126 676 -106 q 726 -182 726 -147 q 702 -238 726 -218 q 631 -258 677 -258 z "},"N":{"ha":1035,"x_min":110,"x_max":926,"o":"m 787 1028 l 926 1028 l 926 0 l 776 0 l 249 803 l 249 0 l 110 0 l 110 1028 l 259 1028 l 787 224 l 787 1028 z "},"Ǌ":{"ha":1402,"x_min":110,"x_max":1292,"o":"m 787 1028 l 926 1028 l 926 0 l 776 0 l 249 803 l 249 0 l 110 0 l 110 1028 l 259 1028 l 787 224 l 787 1028 m 1026 -176 q 1118 -1 1090 -88 q 1146 203 1146 86 l 1146 1028 l 1292 1028 l 1292 194 q 1250 -34 1289 67 q 1122 -240 1211 -135 l 1026 -176 z "},"Ń":{"ha":1035,"x_min":110,"x_max":926,"o":"m 787 1028 l 926 1028 l 926 0 l 776 0 l 249 803 l 249 0 l 110 0 l 110 1028 l 259 1028 l 787 224 l 787 1028 m 452 1114 l 576 1315 l 731 1315 l 583 1114 l 452 1114 z "},"Ň":{"ha":1035,"x_min":110,"x_max":926,"o":"m 787 1028 l 926 1028 l 926 0 l 776 0 l 249 803 l 249 0 l 110 0 l 110 1028 l 259 1028 l 787 224 l 787 1028 m 636 1315 l 754 1315 l 583 1114 l 454 1114 l 282 1315 l 400 1315 l 518 1173 l 636 1315 z "},"Ņ":{"ha":1035,"x_min":110,"x_max":926,"o":"m 787 1028 l 926 1028 l 926 0 l 776 0 l 249 803 l 249 0 l 110 0 l 110 1028 l 259 1028 l 787 224 l 787 1028 m 517 -106 q 606 -190 606 -106 q 594 -260 606 -222 q 563 -331 583 -299 l 472 -331 q 504 -232 498 -276 q 449 -212 467 -229 q 430 -169 430 -196 q 452 -123 430 -140 q 517 -106 474 -106 z "},"Ṅ":{"ha":1035,"x_min":110,"x_max":926,"o":"m 787 1028 l 926 1028 l 926 0 l 776 0 l 249 803 l 249 0 l 110 0 l 110 1028 l 259 1028 l 787 224 l 787 1028 m 518 1140 q 448 1160 472 1140 q 423 1216 423 1181 q 448 1272 423 1252 q 518 1292 472 1292 q 589 1272 564 1292 q 613 1216 613 1252 q 589 1160 613 1181 q 518 1140 564 1140 z "},"Ṇ":{"ha":1035,"x_min":110,"x_max":926,"o":"m 787 1028 l 926 1028 l 926 0 l 776 0 l 249 803 l 249 0 l 110 0 l 110 1028 l 259 1028 l 787 224 l 787 1028 m 518 -258 q 448 -238 472 -258 q 423 -182 423 -218 q 448 -126 423 -147 q 518 -106 473 -106 q 588 -126 563 -106 q 613 -182 613 -147 q 589 -238 613 -218 q 518 -258 564 -258 z "},"Ŋ":{"ha":1035,"x_min":110,"x_max":926,"o":"m 926 1028 l 926 138 q 886 -110 926 -4 q 756 -324 847 -217 l 661 -260 q 737 -135 709 -197 q 777 -4 765 -74 l 249 803 l 249 0 l 110 0 l 110 1028 l 259 1028 l 787 226 l 787 1028 l 926 1028 z "},"ǋ":{"ha":1376,"x_min":110,"x_max":1300,"o":"m 787 1028 l 926 1028 l 926 0 l 776 0 l 249 803 l 249 0 l 110 0 l 110 1028 l 259 1028 l 787 224 l 787 1028 m 1014 -260 q 1106 -86 1078 -173 q 1133 119 1133 1 l 1133 756 l 1278 756 l 1278 126 q 1239 -112 1278 -8 q 1109 -324 1200 -217 l 1014 -260 m 1205 906 q 1134 927 1158 906 q 1110 989 1110 949 q 1134 1051 1110 1029 q 1205 1074 1158 1074 q 1276 1051 1251 1074 q 1300 989 1300 1029 q 1276 927 1300 949 q 1205 906 1251 906 z "},"Ṉ":{"ha":1035,"x_min":110,"x_max":926,"o":"m 787 1028 l 926 1028 l 926 0 l 776 0 l 249 803 l 249 0 l 110 0 l 110 1028 l 259 1028 l 787 224 l 787 1028 m 292 -226 l 292 -133 l 744 -133 l 744 -226 l 292 -226 z "},"Ñ":{"ha":1035,"x_min":110,"x_max":926,"o":"m 787 1028 l 926 1028 l 926 0 l 776 0 l 249 803 l 249 0 l 110 0 l 110 1028 l 259 1028 l 787 224 l 787 1028 m 629 1148 q 573 1155 599 1148 q 507 1176 547 1162 q 452 1194 475 1188 q 405 1201 428 1201 q 338 1189 367 1201 q 280 1151 308 1177 l 280 1244 q 334 1279 303 1267 q 407 1291 365 1291 q 465 1284 438 1291 q 529 1263 492 1276 q 586 1243 565 1249 q 631 1238 608 1238 q 699 1249 669 1238 q 756 1287 728 1261 l 756 1194 q 702 1159 733 1171 q 629 1148 671 1148 z "},"O":{"ha":1025,"x_min":69,"x_max":956,"o":"m 513 -13 q 276 43 376 -13 q 123 217 177 99 q 69 514 69 335 q 123 811 69 693 q 277 985 178 928 q 513 1041 376 1041 q 749 985 649 1041 q 902 811 848 928 q 956 514 956 693 q 902 217 956 335 q 748 43 847 99 q 513 -13 649 -13 m 513 110 q 729 205 653 110 q 805 510 805 299 q 729 822 805 726 q 513 918 653 918 q 296 824 372 918 q 220 518 220 729 q 296 206 220 301 q 513 110 372 110 z "},"Ó":{"ha":1025,"x_min":69,"x_max":956,"o":"m 513 -13 q 276 43 376 -13 q 123 217 177 99 q 69 514 69 335 q 123 811 69 693 q 277 985 178 928 q 513 1041 376 1041 q 749 985 649 1041 q 902 811 848 928 q 956 514 956 693 q 902 217 956 335 q 748 43 847 99 q 513 -13 649 -13 m 513 110 q 729 205 653 110 q 805 510 805 299 q 729 822 805 726 q 513 918 653 918 q 296 824 372 918 q 220 518 220 729 q 296 206 220 301 q 513 110 372 110 m 447 1114 l 571 1315 l 725 1315 l 578 1114 l 447 1114 z "},"Ŏ":{"ha":1025,"x_min":69,"x_max":956,"o":"m 513 -13 q 276 43 376 -13 q 123 217 177 99 q 69 514 69 335 q 123 811 69 693 q 277 985 178 928 q 513 1041 376 1041 q 749 985 649 1041 q 902 811 848 928 q 956 514 956 693 q 902 217 956 335 q 748 43 847 99 q 513 -13 649 -13 m 513 110 q 729 205 653 110 q 805 510 805 299 q 729 822 805 726 q 513 918 653 918 q 296 824 372 918 q 220 518 220 729 q 296 206 220 301 q 513 110 372 110 m 513 1119 q 347 1168 406 1119 q 278 1303 287 1217 l 372 1303 q 413 1224 380 1250 q 513 1198 446 1198 q 613 1224 581 1198 q 653 1303 646 1250 l 747 1303 q 680 1168 738 1217 q 513 1119 621 1119 z "},"Ô":{"ha":1025,"x_min":69,"x_max":956,"o":"m 513 -13 q 276 43 376 -13 q 123 217 177 99 q 69 514 69 335 q 123 811 69 693 q 277 985 178 928 q 513 1041 376 1041 q 749 985 649 1041 q 902 811 848 928 q 956 514 956 693 q 902 217 956 335 q 748 43 847 99 q 513 -13 649 -13 m 513 110 q 729 205 653 110 q 805 510 805 299 q 729 822 805 726 q 513 918 653 918 q 296 824 372 918 q 220 518 220 729 q 296 206 220 301 q 513 110 372 110 m 749 1114 l 631 1114 l 513 1256 l 394 1114 l 276 1114 l 449 1315 l 577 1315 l 749 1114 z "},"Ố":{"ha":1025,"x_min":69,"x_max":956,"o":"m 513 -13 q 276 43 376 -13 q 123 217 177 99 q 69 514 69 335 q 123 811 69 693 q 277 985 178 928 q 513 1041 376 1041 q 749 985 649 1041 q 902 811 848 928 q 956 514 956 693 q 902 217 956 335 q 748 43 847 99 q 513 -13 649 -13 m 513 110 q 729 205 653 110 q 805 510 805 299 q 729 822 805 726 q 513 918 653 918 q 296 824 372 918 q 220 518 220 729 q 296 206 220 301 q 513 110 372 110 m 777 1433 l 885 1433 l 763 1254 l 676 1254 l 777 1433 m 449 1303 l 577 1303 l 749 1114 l 631 1114 l 513 1249 l 394 1114 l 276 1114 l 449 1303 z "},"Ộ":{"ha":1025,"x_min":69,"x_max":956,"o":"m 513 -13 q 276 43 376 -13 q 123 217 177 99 q 69 514 69 335 q 123 811 69 693 q 277 985 178 928 q 513 1041 376 1041 q 749 985 649 1041 q 902 811 848 928 q 956 514 956 693 q 902 217 956 335 q 748 43 847 99 q 513 -13 649 -13 m 513 110 q 729 205 653 110 q 805 510 805 299 q 729 822 805 726 q 513 918 653 918 q 296 824 372 918 q 220 518 220 729 q 296 206 220 301 q 513 110 372 110 m 513 -258 q 442 -238 467 -258 q 417 -182 417 -218 q 442 -126 417 -147 q 513 -106 467 -106 q 583 -126 558 -106 q 608 -182 608 -147 q 583 -238 608 -218 q 513 -258 558 -258 m 749 1114 l 631 1114 l 513 1256 l 394 1114 l 276 1114 l 449 1315 l 577 1315 l 749 1114 z "},"Ồ":{"ha":1025,"x_min":69,"x_max":956,"o":"m 513 -13 q 276 43 376 -13 q 123 217 177 99 q 69 514 69 335 q 123 811 69 693 q 277 985 178 928 q 513 1041 376 1041 q 749 985 649 1041 q 902 811 848 928 q 956 514 956 693 q 902 217 956 335 q 748 43 847 99 q 513 -13 649 -13 m 513 110 q 729 205 653 110 q 805 510 805 299 q 729 822 805 726 q 513 918 653 918 q 296 824 372 918 q 220 518 220 729 q 296 206 220 301 q 513 110 372 110 m 782 1254 l 695 1254 l 573 1433 l 681 1433 l 782 1254 m 449 1303 l 577 1303 l 749 1114 l 631 1114 l 513 1249 l 394 1114 l 276 1114 l 449 1303 z "},"Ổ":{"ha":1025,"x_min":69,"x_max":956,"o":"m 513 -13 q 276 43 376 -13 q 123 217 177 99 q 69 514 69 335 q 123 811 69 693 q 277 985 178 928 q 513 1041 376 1041 q 749 985 649 1041 q 902 811 848 928 q 956 514 956 693 q 902 217 956 335 q 748 43 847 99 q 513 -13 649 -13 m 513 110 q 729 205 653 110 q 805 510 805 299 q 729 822 805 726 q 513 918 653 918 q 296 824 372 918 q 220 518 220 729 q 296 206 220 301 q 513 110 372 110 m 722 1450 q 838 1429 799 1450 q 876 1370 876 1408 q 859 1330 876 1344 q 810 1301 842 1315 q 773 1280 785 1290 q 758 1254 760 1269 l 676 1254 q 696 1297 677 1282 q 748 1326 715 1313 q 782 1344 772 1337 q 792 1363 792 1351 q 713 1392 792 1392 q 577 1372 644 1392 l 577 1429 q 644 1444 606 1439 q 722 1450 683 1450 m 449 1303 l 577 1303 l 749 1114 l 631 1114 l 513 1249 l 394 1114 l 276 1114 l 449 1303 z "},"Ỗ":{"ha":1025,"x_min":69,"x_max":956,"o":"m 513 -13 q 276 43 376 -13 q 123 217 177 99 q 69 514 69 335 q 123 811 69 693 q 277 985 178 928 q 513 1041 376 1041 q 749 985 649 1041 q 902 811 848 928 q 956 514 956 693 q 902 217 956 335 q 748 43 847 99 q 513 -13 649 -13 m 513 110 q 729 205 653 110 q 805 510 805 299 q 729 822 805 726 q 513 918 653 918 q 296 824 372 918 q 220 518 220 729 q 296 206 220 301 q 513 110 372 110 m 619 1403 q 685 1415 655 1403 q 749 1451 715 1426 l 749 1376 q 690 1344 721 1353 q 618 1334 658 1334 q 565 1340 590 1334 q 499 1359 540 1346 q 447 1375 468 1370 q 406 1381 426 1381 q 340 1369 370 1381 q 276 1333 310 1358 l 276 1408 q 336 1441 306 1431 q 407 1451 367 1451 q 463 1445 436 1451 q 526 1425 490 1438 q 578 1409 557 1414 q 619 1403 599 1403 m 449 1303 l 577 1303 l 749 1114 l 631 1114 l 513 1249 l 394 1114 l 276 1114 l 449 1303 z "},"Ȍ":{"ha":1025,"x_min":69,"x_max":956,"o":"m 513 -13 q 276 43 376 -13 q 123 217 177 99 q 69 514 69 335 q 123 811 69 693 q 277 985 178 928 q 513 1041 376 1041 q 749 985 649 1041 q 902 811 848 928 q 956 514 956 693 q 902 217 956 335 q 748 43 847 99 q 513 -13 649 -13 m 513 110 q 729 205 653 110 q 805 510 805 299 q 729 822 805 726 q 513 918 653 918 q 296 824 372 918 q 220 518 220 729 q 296 206 220 301 q 513 110 372 110 m 333 1114 l 233 1315 l 352 1315 l 444 1114 l 333 1114 m 581 1114 l 482 1315 l 601 1315 l 692 1114 l 581 1114 z "},"Ö":{"ha":1025,"x_min":69,"x_max":956,"o":"m 513 -13 q 276 43 376 -13 q 123 217 177 99 q 69 514 69 335 q 123 811 69 693 q 277 985 178 928 q 513 1041 376 1041 q 749 985 649 1041 q 902 811 848 928 q 956 514 956 693 q 902 217 956 335 q 748 43 847 99 q 513 -13 649 -13 m 513 110 q 729 205 653 110 q 805 510 805 299 q 729 822 805 726 q 513 918 653 918 q 296 824 372 918 q 220 518 220 729 q 296 206 220 301 q 513 110 372 110 m 344 1140 q 281 1160 303 1140 q 259 1216 259 1181 q 281 1272 259 1251 q 344 1292 303 1292 q 408 1272 385 1292 q 431 1216 431 1251 q 408 1160 431 1181 q 344 1140 385 1140 m 681 1140 q 617 1160 640 1140 q 594 1216 594 1181 q 617 1272 594 1251 q 681 1292 640 1292 q 744 1272 722 1292 q 766 1216 766 1251 q 744 1160 766 1181 q 681 1140 722 1140 z "},"Ȫ":{"ha":1025,"x_min":69,"x_max":956,"o":"m 513 -13 q 276 43 376 -13 q 123 217 177 99 q 69 514 69 335 q 123 811 69 693 q 277 985 178 928 q 513 1041 376 1041 q 749 985 649 1041 q 902 811 848 928 q 956 514 956 693 q 902 217 956 335 q 748 43 847 99 q 513 -13 649 -13 m 513 110 q 729 205 653 110 q 805 510 805 299 q 729 822 805 726 q 513 918 653 918 q 296 824 372 918 q 220 518 220 729 q 296 206 220 301 q 513 110 372 110 m 344 1140 q 281 1160 303 1140 q 259 1216 259 1181 q 281 1272 259 1251 q 344 1292 303 1292 q 408 1272 385 1292 q 431 1216 431 1251 q 408 1160 431 1181 q 344 1140 385 1140 m 681 1140 q 617 1160 640 1140 q 594 1216 594 1181 q 617 1272 594 1251 q 681 1292 640 1292 q 744 1272 722 1292 q 766 1216 766 1251 q 744 1160 766 1181 q 681 1140 722 1140 m 287 1374 l 287 1467 l 738 1467 l 738 1374 l 287 1374 z "},"Ȱ":{"ha":1025,"x_min":69,"x_max":956,"o":"m 513 -13 q 276 43 376 -13 q 123 217 177 99 q 69 514 69 335 q 123 811 69 693 q 277 985 178 928 q 513 1041 376 1041 q 749 985 649 1041 q 902 811 848 928 q 956 514 956 693 q 902 217 956 335 q 748 43 847 99 q 513 -13 649 -13 m 513 110 q 729 205 653 110 q 805 510 805 299 q 729 822 805 726 q 513 918 653 918 q 296 824 372 918 q 220 518 220 729 q 296 206 220 301 q 513 110 372 110 m 513 1140 q 442 1160 467 1140 q 417 1216 417 1181 q 442 1272 417 1252 q 513 1292 467 1292 q 583 1272 558 1292 q 608 1216 608 1252 q 583 1160 608 1181 q 513 1140 558 1140 m 287 1374 l 287 1467 l 738 1467 l 738 1374 l 287 1374 z "},"Ọ":{"ha":1025,"x_min":69,"x_max":956,"o":"m 513 -13 q 276 43 376 -13 q 123 217 177 99 q 69 514 69 335 q 123 811 69 693 q 277 985 178 928 q 513 1041 376 1041 q 749 985 649 1041 q 902 811 848 928 q 956 514 956 693 q 902 217 956 335 q 748 43 847 99 q 513 -13 649 -13 m 513 110 q 729 205 653 110 q 805 510 805 299 q 729 822 805 726 q 513 918 653 918 q 296 824 372 918 q 220 518 220 729 q 296 206 220 301 q 513 110 372 110 m 513 -258 q 442 -238 467 -258 q 417 -182 417 -218 q 442 -126 417 -147 q 513 -106 467 -106 q 583 -126 558 -106 q 608 -182 608 -147 q 583 -238 608 -218 q 513 -258 558 -258 z "},"Ò":{"ha":1025,"x_min":69,"x_max":956,"o":"m 513 -13 q 276 43 376 -13 q 123 217 177 99 q 69 514 69 335 q 123 811 69 693 q 277 985 178 928 q 513 1041 376 1041 q 749 985 649 1041 q 902 811 848 928 q 956 514 956 693 q 902 217 956 335 q 748 43 847 99 q 513 -13 649 -13 m 513 110 q 729 205 653 110 q 805 510 805 299 q 729 822 805 726 q 513 918 653 918 q 296 824 372 918 q 220 518 220 729 q 296 206 220 301 q 513 110 372 110 m 447 1114 l 299 1315 l 453 1315 l 578 1114 l 447 1114 z "},"Ỏ":{"ha":1025,"x_min":69,"x_max":956,"o":"m 513 -13 q 276 43 376 -13 q 123 217 177 99 q 69 514 69 335 q 123 811 69 693 q 277 985 178 928 q 513 1041 376 1041 q 749 985 649 1041 q 902 811 848 928 q 956 514 956 693 q 902 217 956 335 q 748 43 847 99 q 513 -13 649 -13 m 513 110 q 729 205 653 110 q 805 510 805 299 q 729 822 805 726 q 513 918 653 918 q 296 824 372 918 q 220 518 220 729 q 296 206 220 301 q 513 110 372 110 m 472 1114 q 483 1149 472 1135 q 507 1172 494 1163 q 544 1190 521 1180 q 577 1209 567 1201 q 588 1228 588 1217 q 569 1251 588 1243 q 508 1259 551 1259 q 373 1238 440 1259 l 373 1301 q 440 1317 401 1311 q 517 1323 479 1323 q 633 1301 595 1323 q 671 1238 671 1278 q 662 1205 671 1218 q 640 1183 653 1191 q 606 1163 628 1174 q 568 1141 581 1151 q 553 1114 556 1130 l 472 1114 z "},"Ơ":{"ha":1025,"x_min":69,"x_max":961,"o":"m 799 949 q 916 777 876 886 q 956 514 956 669 q 839 117 956 247 q 513 -13 721 -13 q 276 43 376 -13 q 123 217 177 99 q 69 514 69 335 q 123 811 69 693 q 277 985 178 928 q 513 1041 376 1041 q 620 1033 552 1041 q 659 1028 627 1032 q 723 1025 692 1025 q 822 1052 788 1025 q 856 1135 856 1078 q 853 1182 856 1159 q 842 1233 849 1204 l 945 1233 q 958 1184 954 1208 q 961 1129 961 1160 q 919 1005 961 1051 q 799 949 876 959 m 513 110 q 729 205 653 110 q 805 510 805 299 q 729 822 805 726 q 513 918 653 918 q 296 824 372 918 q 220 518 220 729 q 296 206 220 301 q 513 110 372 110 z "},"Ớ":{"ha":1025,"x_min":69,"x_max":961,"o":"m 799 949 q 916 777 876 886 q 956 514 956 669 q 839 117 956 247 q 513 -13 721 -13 q 276 43 376 -13 q 123 217 177 99 q 69 514 69 335 q 123 811 69 693 q 277 985 178 928 q 513 1041 376 1041 q 620 1033 552 1041 q 659 1028 627 1032 q 723 1025 692 1025 q 822 1052 788 1025 q 856 1135 856 1078 q 853 1182 856 1159 q 842 1233 849 1204 l 945 1233 q 958 1184 954 1208 q 961 1129 961 1160 q 919 1005 961 1051 q 799 949 876 959 m 513 110 q 729 205 653 110 q 805 510 805 299 q 729 822 805 726 q 513 918 653 918 q 296 824 372 918 q 220 518 220 729 q 296 206 220 301 q 513 110 372 110 m 447 1114 l 571 1315 l 725 1315 l 578 1114 l 447 1114 z "},"Ợ":{"ha":1025,"x_min":69,"x_max":961,"o":"m 799 949 q 916 777 876 886 q 956 514 956 669 q 839 117 956 247 q 513 -13 721 -13 q 276 43 376 -13 q 123 217 177 99 q 69 514 69 335 q 123 811 69 693 q 277 985 178 928 q 513 1041 376 1041 q 620 1033 552 1041 q 659 1028 627 1032 q 723 1025 692 1025 q 822 1052 788 1025 q 856 1135 856 1078 q 853 1182 856 1159 q 842 1233 849 1204 l 945 1233 q 958 1184 954 1208 q 961 1129 961 1160 q 919 1005 961 1051 q 799 949 876 959 m 513 110 q 729 205 653 110 q 805 510 805 299 q 729 822 805 726 q 513 918 653 918 q 296 824 372 918 q 220 518 220 729 q 296 206 220 301 q 513 110 372 110 m 513 -258 q 442 -238 467 -258 q 417 -182 417 -218 q 442 -126 417 -147 q 513 -106 467 -106 q 583 -126 558 -106 q 608 -182 608 -147 q 583 -238 608 -218 q 513 -258 558 -258 z "},"Ờ":{"ha":1025,"x_min":69,"x_max":961,"o":"m 799 949 q 916 777 876 886 q 956 514 956 669 q 839 117 956 247 q 513 -13 721 -13 q 276 43 376 -13 q 123 217 177 99 q 69 514 69 335 q 123 811 69 693 q 277 985 178 928 q 513 1041 376 1041 q 620 1033 552 1041 q 659 1028 627 1032 q 723 1025 692 1025 q 822 1052 788 1025 q 856 1135 856 1078 q 853 1182 856 1159 q 842 1233 849 1204 l 945 1233 q 958 1184 954 1208 q 961 1129 961 1160 q 919 1005 961 1051 q 799 949 876 959 m 513 110 q 729 205 653 110 q 805 510 805 299 q 729 822 805 726 q 513 918 653 918 q 296 824 372 918 q 220 518 220 729 q 296 206 220 301 q 513 110 372 110 m 447 1114 l 299 1315 l 453 1315 l 578 1114 l 447 1114 z "},"Ở":{"ha":1025,"x_min":69,"x_max":961,"o":"m 799 949 q 916 777 876 886 q 956 514 956 669 q 839 117 956 247 q 513 -13 721 -13 q 276 43 376 -13 q 123 217 177 99 q 69 514 69 335 q 123 811 69 693 q 277 985 178 928 q 513 1041 376 1041 q 620 1033 552 1041 q 659 1028 627 1032 q 723 1025 692 1025 q 822 1052 788 1025 q 856 1135 856 1078 q 853 1182 856 1159 q 842 1233 849 1204 l 945 1233 q 958 1184 954 1208 q 961 1129 961 1160 q 919 1005 961 1051 q 799 949 876 959 m 513 110 q 729 205 653 110 q 805 510 805 299 q 729 822 805 726 q 513 918 653 918 q 296 824 372 918 q 220 518 220 729 q 296 206 220 301 q 513 110 372 110 m 472 1114 q 483 1149 472 1135 q 507 1172 494 1163 q 544 1190 521 1180 q 577 1209 567 1201 q 588 1228 588 1217 q 569 1251 588 1243 q 508 1259 551 1259 q 373 1238 440 1259 l 373 1301 q 440 1317 401 1311 q 517 1323 479 1323 q 633 1301 595 1323 q 671 1238 671 1278 q 662 1205 671 1218 q 640 1183 653 1191 q 606 1163 628 1174 q 568 1141 581 1151 q 553 1114 556 1130 l 472 1114 z "},"Ỡ":{"ha":1025,"x_min":69,"x_max":961,"o":"m 621 1148 q 565 1155 591 1148 q 501 1176 540 1162 q 448 1194 470 1188 q 402 1201 426 1201 q 336 1189 365 1201 q 280 1151 308 1177 l 280 1244 q 333 1279 303 1267 q 404 1291 363 1291 q 460 1284 434 1291 q 523 1263 487 1276 q 579 1243 558 1249 q 623 1238 600 1238 q 689 1249 660 1238 q 745 1287 717 1261 l 745 1194 q 692 1159 722 1171 q 621 1148 662 1148 m 799 949 q 916 777 876 886 q 956 514 956 669 q 839 117 956 247 q 513 -13 721 -13 q 276 43 376 -13 q 123 217 177 99 q 69 514 69 335 q 123 811 69 693 q 277 985 178 928 q 513 1041 376 1041 q 620 1033 552 1041 q 659 1028 627 1032 q 723 1025 692 1025 q 822 1052 788 1025 q 856 1135 856 1078 q 853 1182 856 1159 q 842 1233 849 1204 l 945 1233 q 958 1184 954 1208 q 961 1129 961 1160 q 919 1005 961 1051 q 799 949 876 959 m 513 110 q 729 205 653 110 q 805 510 805 299 q 729 822 805 726 q 513 918 653 918 q 296 824 372 918 q 220 518 220 729 q 296 206 220 301 q 513 110 372 110 z "},"Ő":{"ha":1025,"x_min":69,"x_max":956,"o":"m 513 -13 q 276 43 376 -13 q 123 217 177 99 q 69 514 69 335 q 123 811 69 693 q 277 985 178 928 q 513 1041 376 1041 q 749 985 649 1041 q 902 811 848 928 q 956 514 956 693 q 902 217 956 335 q 748 43 847 99 q 513 -13 649 -13 m 513 110 q 729 205 653 110 q 805 510 805 299 q 729 822 805 726 q 513 918 653 918 q 296 824 372 918 q 220 518 220 729 q 296 206 220 301 q 513 110 372 110 m 333 1114 l 424 1315 l 543 1315 l 444 1114 l 333 1114 m 581 1114 l 673 1315 l 792 1315 l 692 1114 l 581 1114 z "},"Ȏ":{"ha":1025,"x_min":69,"x_max":956,"o":"m 513 -13 q 276 43 376 -13 q 123 217 177 99 q 69 514 69 335 q 123 811 69 693 q 277 985 178 928 q 513 1041 376 1041 q 749 985 649 1041 q 902 811 848 928 q 956 514 956 693 q 902 217 956 335 q 748 43 847 99 q 513 -13 649 -13 m 513 110 q 729 205 653 110 q 805 510 805 299 q 729 822 805 726 q 513 918 653 918 q 296 824 372 918 q 220 518 220 729 q 296 206 220 301 q 513 110 372 110 m 278 1126 q 345 1261 287 1213 q 512 1310 404 1310 q 678 1261 619 1310 q 747 1126 738 1212 l 653 1126 q 612 1205 645 1179 q 512 1231 578 1231 q 412 1205 445 1231 q 372 1126 379 1179 l 278 1126 z "},"Ō":{"ha":1025,"x_min":69,"x_max":956,"o":"m 513 -13 q 276 43 376 -13 q 123 217 177 99 q 69 514 69 335 q 123 811 69 693 q 277 985 178 928 q 513 1041 376 1041 q 749 985 649 1041 q 902 811 848 928 q 956 514 956 693 q 902 217 956 335 q 748 43 847 99 q 513 -13 649 -13 m 513 110 q 729 205 653 110 q 805 510 805 299 q 729 822 805 726 q 513 918 653 918 q 296 824 372 918 q 220 518 220 729 q 296 206 220 301 q 513 110 372 110 m 287 1169 l 287 1261 l 738 1261 l 738 1169 l 287 1169 z "},"Ṓ":{"ha":1025,"x_min":69,"x_max":956,"o":"m 513 -13 q 276 43 376 -13 q 123 217 177 99 q 69 514 69 335 q 123 811 69 693 q 277 985 178 928 q 513 1041 376 1041 q 749 985 649 1041 q 902 811 848 928 q 956 514 956 693 q 902 217 956 335 q 748 43 847 99 q 513 -13 649 -13 m 513 110 q 729 205 653 110 q 805 510 805 299 q 729 822 805 726 q 513 918 653 918 q 296 824 372 918 q 220 518 220 729 q 296 206 220 301 q 513 110 372 110 m 440 1336 l 565 1497 l 732 1497 l 585 1336 l 440 1336 m 287 1169 l 287 1261 l 738 1261 l 738 1169 l 287 1169 z "},"Ṑ":{"ha":1025,"x_min":69,"x_max":956,"o":"m 513 -13 q 276 43 376 -13 q 123 217 177 99 q 69 514 69 335 q 123 811 69 693 q 277 985 178 928 q 513 1041 376 1041 q 749 985 649 1041 q 902 811 848 928 q 956 514 956 693 q 902 217 956 335 q 748 43 847 99 q 513 -13 649 -13 m 513 110 q 729 205 653 110 q 805 510 805 299 q 729 822 805 726 q 513 918 653 918 q 296 824 372 918 q 220 518 220 729 q 296 206 220 301 q 513 110 372 110 m 440 1336 l 293 1497 l 460 1497 l 585 1336 l 440 1336 m 287 1169 l 287 1261 l 738 1261 l 738 1169 l 287 1169 z "},"Ǫ":{"ha":1025,"x_min":69,"x_max":956,"o":"m 674 10 q 534 -64 575 -24 q 492 -153 492 -105 q 517 -209 492 -190 q 593 -228 542 -228 q 701 -204 640 -228 l 701 -269 q 578 -294 640 -294 q 448 -259 493 -294 q 403 -162 403 -224 q 426 -80 403 -117 q 497 -13 448 -43 q 182 122 294 -8 q 69 514 69 252 q 123 811 69 693 q 277 985 178 928 q 513 1041 376 1041 q 748 985 649 1041 q 902 811 847 929 q 956 514 956 694 q 880 176 956 299 q 674 10 803 53 m 220 518 q 296 206 220 301 q 513 110 372 110 q 729 205 653 110 q 805 510 805 299 q 729 822 805 726 q 513 918 653 918 q 296 824 372 918 q 220 518 220 729 z "},"Ø":{"ha":1025,"x_min":69,"x_max":956,"o":"m 852 894 q 956 514 956 760 q 902 217 956 335 q 748 43 847 99 q 513 -13 649 -13 q 233 72 341 -13 l 161 -24 l 93 28 l 173 133 q 69 514 69 268 q 123 811 69 693 q 277 985 178 928 q 513 1041 376 1041 q 791 956 684 1041 l 863 1051 l 931 1000 l 852 894 m 220 518 q 265 257 220 353 l 708 846 q 513 918 638 918 q 296 824 372 918 q 220 518 220 729 m 513 110 q 729 205 653 110 q 805 510 805 299 q 759 771 805 675 l 316 182 q 513 110 386 110 z "},"Ǿ":{"ha":1025,"x_min":69,"x_max":956,"o":"m 852 894 q 956 514 956 760 q 902 217 956 335 q 748 43 847 99 q 513 -13 649 -13 q 233 72 341 -13 l 161 -24 l 93 28 l 173 133 q 69 514 69 268 q 123 811 69 693 q 277 985 178 928 q 513 1041 376 1041 q 791 956 684 1041 l 863 1051 l 931 1000 l 852 894 m 220 518 q 265 257 220 353 l 708 846 q 513 918 638 918 q 296 824 372 918 q 220 518 220 729 m 513 110 q 729 205 653 110 q 805 510 805 299 q 759 771 805 675 l 316 182 q 513 110 386 110 m 444 1114 l 569 1315 l 723 1315 l 576 1114 l 444 1114 z "},"Õ":{"ha":1025,"x_min":69,"x_max":956,"o":"m 513 -13 q 276 43 376 -13 q 123 217 177 99 q 69 514 69 335 q 123 811 69 693 q 277 985 178 928 q 513 1041 376 1041 q 749 985 649 1041 q 902 811 848 928 q 956 514 956 693 q 902 217 956 335 q 748 43 847 99 q 513 -13 649 -13 m 513 110 q 729 205 653 110 q 805 510 805 299 q 729 822 805 726 q 513 918 653 918 q 296 824 372 918 q 220 518 220 729 q 296 206 220 301 q 513 110 372 110 m 624 1148 q 567 1155 593 1148 q 501 1176 542 1162 q 446 1194 469 1188 q 399 1201 423 1201 q 332 1189 361 1201 q 274 1151 303 1177 l 274 1244 q 329 1279 298 1267 q 401 1291 360 1291 q 459 1284 432 1291 q 524 1263 487 1276 q 581 1243 559 1249 q 626 1238 602 1238 q 693 1249 664 1238 q 751 1287 722 1261 l 751 1194 q 696 1159 727 1171 q 624 1148 665 1148 z "},"Ṍ":{"ha":1025,"x_min":69,"x_max":956,"o":"m 513 -13 q 276 43 376 -13 q 123 217 177 99 q 69 514 69 335 q 123 811 69 693 q 277 985 178 928 q 513 1041 376 1041 q 749 985 649 1041 q 902 811 848 928 q 956 514 956 693 q 902 217 956 335 q 748 43 847 99 q 513 -13 649 -13 m 513 110 q 729 205 653 110 q 805 510 805 299 q 729 822 805 726 q 513 918 653 918 q 296 824 372 918 q 220 518 220 729 q 296 206 220 301 q 513 110 372 110 m 440 1336 l 565 1497 l 732 1497 l 585 1336 l 440 1336 m 624 1148 q 567 1155 593 1148 q 501 1176 542 1162 q 446 1194 469 1188 q 399 1201 423 1201 q 332 1189 361 1201 q 274 1151 303 1177 l 274 1244 q 329 1279 298 1267 q 401 1291 360 1291 q 459 1284 432 1291 q 524 1263 487 1276 q 581 1243 559 1249 q 626 1238 602 1238 q 693 1249 664 1238 q 751 1287 722 1261 l 751 1194 q 696 1159 727 1171 q 624 1148 665 1148 z "},"Ṏ":{"ha":1025,"x_min":69,"x_max":956,"o":"m 513 -13 q 276 43 376 -13 q 123 217 177 99 q 69 514 69 335 q 123 811 69 693 q 277 985 178 928 q 513 1041 376 1041 q 749 985 649 1041 q 902 811 848 928 q 956 514 956 693 q 902 217 956 335 q 748 43 847 99 q 513 -13 649 -13 m 513 110 q 729 205 653 110 q 805 510 805 299 q 729 822 805 726 q 513 918 653 918 q 296 824 372 918 q 220 518 220 729 q 296 206 220 301 q 513 110 372 110 m 624 1148 q 567 1155 593 1148 q 501 1176 542 1162 q 446 1194 469 1188 q 399 1201 423 1201 q 332 1189 361 1201 q 274 1151 303 1177 l 274 1244 q 329 1279 298 1267 q 401 1291 360 1291 q 459 1284 432 1291 q 524 1263 487 1276 q 581 1243 559 1249 q 626 1238 602 1238 q 693 1249 664 1238 q 751 1287 722 1261 l 751 1194 q 696 1159 727 1171 q 624 1148 665 1148 m 344 1346 q 281 1366 303 1346 q 259 1422 259 1386 q 281 1477 259 1457 q 344 1498 303 1498 q 408 1477 385 1498 q 431 1422 431 1457 q 408 1366 431 1386 q 344 1346 385 1346 m 681 1346 q 617 1366 640 1346 q 594 1422 594 1386 q 617 1477 594 1457 q 681 1498 640 1498 q 744 1477 722 1498 q 766 1422 766 1457 q 744 1366 766 1386 q 681 1346 722 1346 z "},"Ȭ":{"ha":1025,"x_min":69,"x_max":956,"o":"m 513 -13 q 276 43 376 -13 q 123 217 177 99 q 69 514 69 335 q 123 811 69 693 q 277 985 178 928 q 513 1041 376 1041 q 749 985 649 1041 q 902 811 848 928 q 956 514 956 693 q 902 217 956 335 q 748 43 847 99 q 513 -13 649 -13 m 513 110 q 729 205 653 110 q 805 510 805 299 q 729 822 805 726 q 513 918 653 918 q 296 824 372 918 q 220 518 220 729 q 296 206 220 301 q 513 110 372 110 m 624 1148 q 567 1155 593 1148 q 501 1176 542 1162 q 446 1194 469 1188 q 399 1201 423 1201 q 332 1189 361 1201 q 274 1151 303 1177 l 274 1244 q 329 1279 298 1267 q 401 1291 360 1291 q 459 1284 432 1291 q 524 1263 487 1276 q 581 1243 559 1249 q 626 1238 602 1238 q 693 1249 664 1238 q 751 1287 722 1261 l 751 1194 q 696 1159 727 1171 q 624 1148 665 1148 m 287 1374 l 287 1467 l 738 1467 l 738 1374 l 287 1374 z "},"Œ":{"ha":1416,"x_min":69,"x_max":1366,"o":"m 1366 122 l 1366 0 l 826 0 q 772 -1 804 0 q 725 -3 740 -3 q 609 -8 649 -8 q 203 119 338 -8 q 69 514 69 246 q 204 908 69 778 q 603 1037 340 1037 q 719 1032 653 1037 q 820 1028 790 1028 l 1359 1028 l 1359 906 l 865 906 l 865 588 l 1290 588 l 1290 466 l 865 466 l 865 122 l 1366 122 m 720 907 q 580 914 651 914 q 309 818 398 914 q 219 513 219 722 q 310 210 219 305 q 584 115 401 115 q 720 121 668 115 l 720 907 z "},"P":{"ha":874,"x_min":110,"x_max":815,"o":"m 110 1011 q 388 1039 252 1039 q 709 952 602 1039 q 815 683 815 865 q 381 325 815 325 q 257 330 317 325 l 257 0 l 110 0 l 110 1011 m 384 440 q 602 498 534 440 q 671 681 671 556 q 605 865 671 807 q 400 924 538 924 q 257 912 324 924 l 257 449 q 384 440 318 440 z "},"Þ":{"ha":881,"x_min":110,"x_max":815,"o":"m 110 1028 l 257 1028 l 257 875 q 390 885 322 885 q 709 798 603 885 q 815 528 815 711 q 383 171 815 171 q 257 176 333 171 l 257 0 l 110 0 l 110 1028 m 384 286 q 602 344 534 286 q 671 526 671 402 q 605 711 671 653 q 400 769 538 769 q 257 758 324 769 l 257 294 q 384 286 322 286 z "},"Q":{"ha":1025,"x_min":69,"x_max":956,"o":"m 956 514 q 865 155 956 286 q 598 3 774 24 q 940 -58 745 -39 l 916 -178 q 406 -51 590 -135 q 145 168 222 33 q 69 511 69 303 q 123 810 69 692 q 277 985 178 928 q 513 1041 376 1041 q 748 985 649 1041 q 902 811 847 929 q 956 514 956 694 m 220 518 q 295 205 220 301 q 513 110 371 110 q 729 205 653 110 q 805 510 805 299 q 729 822 805 726 q 513 918 653 918 q 296 824 372 918 q 220 518 220 729 z "},"R":{"ha":923,"x_min":110,"x_max":894,"o":"m 731 0 l 430 410 q 388 410 416 410 q 254 415 331 410 l 254 0 l 110 0 l 110 1009 q 398 1039 258 1039 q 711 963 608 1039 q 813 727 813 887 q 753 536 814 611 q 574 431 692 462 l 894 0 l 731 0 m 254 531 q 390 524 328 524 q 606 573 538 524 q 674 726 674 622 q 647 841 674 797 q 561 905 619 885 q 410 926 503 926 q 330 922 366 926 q 254 912 294 919 l 254 531 z "},"Ŕ":{"ha":923,"x_min":110,"x_max":894,"o":"m 731 0 l 430 410 q 388 410 416 410 q 254 415 331 410 l 254 0 l 110 0 l 110 1009 q 398 1039 258 1039 q 711 963 608 1039 q 813 727 813 887 q 753 536 814 611 q 574 431 692 462 l 894 0 l 731 0 m 254 531 q 390 524 328 524 q 606 573 538 524 q 674 726 674 622 q 647 841 674 797 q 561 905 619 885 q 410 926 503 926 q 330 922 366 926 q 254 912 294 919 l 254 531 m 381 1114 l 506 1315 l 660 1315 l 513 1114 l 381 1114 z "},"Ř":{"ha":923,"x_min":110,"x_max":894,"o":"m 731 0 l 430 410 q 388 410 416 410 q 254 415 331 410 l 254 0 l 110 0 l 110 1009 q 398 1039 258 1039 q 711 963 608 1039 q 813 727 813 887 q 753 536 814 611 q 574 431 692 462 l 894 0 l 731 0 m 254 531 q 390 524 328 524 q 606 573 538 524 q 674 726 674 622 q 647 841 674 797 q 561 905 619 885 q 410 926 503 926 q 330 922 366 926 q 254 912 294 919 l 254 531 m 565 1315 l 683 1315 l 512 1114 l 383 1114 l 211 1315 l 329 1315 l 447 1173 l 565 1315 z "},"Ŗ":{"ha":923,"x_min":110,"x_max":894,"o":"m 731 0 l 430 410 q 388 410 416 410 q 254 415 331 410 l 254 0 l 110 0 l 110 1009 q 398 1039 258 1039 q 711 963 608 1039 q 813 727 813 887 q 753 536 814 611 q 574 431 692 462 l 894 0 l 731 0 m 254 531 q 390 524 328 524 q 606 573 538 524 q 674 726 674 622 q 647 841 674 797 q 561 905 619 885 q 410 926 503 926 q 330 922 366 926 q 254 912 294 919 l 254 531 m 482 -106 q 572 -190 572 -106 q 560 -260 572 -222 q 528 -331 548 -299 l 438 -331 q 469 -232 463 -276 q 414 -212 433 -229 q 395 -169 395 -196 q 417 -123 395 -140 q 482 -106 440 -106 z "},"Ȑ":{"ha":923,"x_min":110,"x_max":894,"o":"m 731 0 l 430 410 q 388 410 416 410 q 254 415 331 410 l 254 0 l 110 0 l 110 1009 q 398 1039 258 1039 q 711 963 608 1039 q 813 727 813 887 q 753 536 814 611 q 574 431 692 462 l 894 0 l 731 0 m 254 531 q 390 524 328 524 q 606 573 538 524 q 674 726 674 622 q 647 841 674 797 q 561 905 619 885 q 410 926 503 926 q 330 922 366 926 q 254 912 294 919 l 254 531 m 267 1114 l 168 1315 l 287 1315 l 378 1114 l 267 1114 m 516 1114 l 417 1315 l 536 1315 l 627 1114 l 516 1114 z "},"Ṛ":{"ha":923,"x_min":110,"x_max":894,"o":"m 731 0 l 430 410 q 388 410 416 410 q 254 415 331 410 l 254 0 l 110 0 l 110 1009 q 398 1039 258 1039 q 711 963 608 1039 q 813 727 813 887 q 753 536 814 611 q 574 431 692 462 l 894 0 l 731 0 m 254 531 q 390 524 328 524 q 606 573 538 524 q 674 726 674 622 q 647 841 674 797 q 561 905 619 885 q 410 926 503 926 q 330 922 366 926 q 254 912 294 919 l 254 531 m 483 -258 q 413 -238 438 -258 q 388 -182 388 -218 q 413 -126 388 -147 q 483 -106 438 -106 q 553 -126 528 -106 q 578 -182 578 -147 q 554 -238 578 -218 q 483 -258 529 -258 z "},"Ȓ":{"ha":923,"x_min":110,"x_max":894,"o":"m 731 0 l 430 410 q 388 410 416 410 q 254 415 331 410 l 254 0 l 110 0 l 110 1009 q 398 1039 258 1039 q 711 963 608 1039 q 813 727 813 887 q 753 536 814 611 q 574 431 692 462 l 894 0 l 731 0 m 254 531 q 390 524 328 524 q 606 573 538 524 q 674 726 674 622 q 647 841 674 797 q 561 905 619 885 q 410 926 503 926 q 330 922 366 926 q 254 912 294 919 l 254 531 m 213 1126 q 280 1261 222 1213 q 447 1310 339 1310 q 613 1261 553 1310 q 682 1126 673 1212 l 588 1126 q 547 1205 580 1179 q 447 1231 513 1231 q 347 1205 380 1231 q 306 1126 314 1179 l 213 1126 z "},"Ṟ":{"ha":923,"x_min":110,"x_max":894,"o":"m 731 0 l 430 410 q 388 410 416 410 q 254 415 331 410 l 254 0 l 110 0 l 110 1009 q 398 1039 258 1039 q 711 963 608 1039 q 813 727 813 887 q 753 536 814 611 q 574 431 692 462 l 894 0 l 731 0 m 254 531 q 390 524 328 524 q 606 573 538 524 q 674 726 674 622 q 647 841 674 797 q 561 905 619 885 q 410 926 503 926 q 330 922 366 926 q 254 912 294 919 l 254 531 m 258 -226 l 258 -133 l 709 -133 l 709 -226 l 258 -226 z "},"S":{"ha":757,"x_min":47,"x_max":710,"o":"m 329 -13 q 195 -2 263 -13 q 66 29 126 8 l 66 153 q 199 120 130 131 q 330 109 267 109 q 563 276 563 109 q 544 354 563 323 q 485 406 526 385 q 374 447 445 428 l 312 463 q 113 566 178 497 q 47 747 47 635 q 90 905 47 840 q 219 1006 133 971 q 432 1041 306 1041 q 554 1033 494 1041 q 663 1010 614 1025 l 663 887 q 438 919 557 919 q 194 756 194 919 q 211 680 194 710 q 265 629 227 650 q 367 590 302 608 l 429 574 q 642 468 574 538 q 710 286 710 399 q 665 125 710 192 q 535 22 620 58 q 329 -13 449 -13 z "},"Ś":{"ha":757,"x_min":47,"x_max":710,"o":"m 329 -13 q 195 -2 263 -13 q 66 29 126 8 l 66 153 q 199 120 130 131 q 330 109 267 109 q 563 276 563 109 q 544 354 563 323 q 485 406 526 385 q 374 447 445 428 l 312 463 q 113 566 178 497 q 47 747 47 635 q 90 905 47 840 q 219 1006 133 971 q 432 1041 306 1041 q 554 1033 494 1041 q 663 1010 614 1025 l 663 887 q 438 919 557 919 q 194 756 194 919 q 211 680 194 710 q 265 629 227 650 q 367 590 302 608 l 429 574 q 642 468 574 538 q 710 286 710 399 q 665 125 710 192 q 535 22 620 58 q 329 -13 449 -13 m 319 1114 l 443 1315 l 597 1315 l 450 1114 l 319 1114 z "},"Ṥ":{"ha":757,"x_min":47,"x_max":710,"o":"m 329 -13 q 195 -2 263 -13 q 66 29 126 8 l 66 153 q 199 120 130 131 q 330 109 267 109 q 563 276 563 109 q 544 354 563 323 q 485 406 526 385 q 374 447 445 428 l 312 463 q 113 566 178 497 q 47 747 47 635 q 90 905 47 840 q 219 1006 133 971 q 432 1041 306 1041 q 554 1033 494 1041 q 663 1010 614 1025 l 663 887 q 438 919 557 919 q 194 756 194 919 q 211 680 194 710 q 265 629 227 650 q 367 590 302 608 l 429 574 q 642 468 574 538 q 710 286 710 399 q 665 125 710 192 q 535 22 620 58 q 329 -13 449 -13 m 285 1288 q 225 1305 247 1288 q 204 1353 204 1322 q 225 1402 204 1384 q 285 1419 247 1419 q 345 1402 324 1419 q 366 1353 366 1384 q 345 1305 366 1322 q 285 1288 324 1288 m 319 1114 l 443 1315 l 597 1315 l 450 1114 l 319 1114 z "},"Š":{"ha":757,"x_min":47,"x_max":710,"o":"m 329 -13 q 195 -2 263 -13 q 66 29 126 8 l 66 153 q 199 120 130 131 q 330 109 267 109 q 563 276 563 109 q 544 354 563 323 q 485 406 526 385 q 374 447 445 428 l 312 463 q 113 566 178 497 q 47 747 47 635 q 90 905 47 840 q 219 1006 133 971 q 432 1041 306 1041 q 554 1033 494 1041 q 663 1010 614 1025 l 663 887 q 438 919 557 919 q 194 756 194 919 q 211 680 194 710 q 265 629 227 650 q 367 590 302 608 l 429 574 q 642 468 574 538 q 710 286 710 399 q 665 125 710 192 q 535 22 620 58 q 329 -13 449 -13 m 503 1315 l 621 1315 l 449 1114 l 321 1114 l 149 1315 l 267 1315 l 385 1173 l 503 1315 z "},"Ṧ":{"ha":757,"x_min":47,"x_max":710,"o":"m 329 -13 q 195 -2 263 -13 q 66 29 126 8 l 66 153 q 199 120 130 131 q 330 109 267 109 q 563 276 563 109 q 544 354 563 323 q 485 406 526 385 q 374 447 445 428 l 312 463 q 113 566 178 497 q 47 747 47 635 q 90 905 47 840 q 219 1006 133 971 q 432 1041 306 1041 q 554 1033 494 1041 q 663 1010 614 1025 l 663 887 q 438 919 557 919 q 194 756 194 919 q 211 680 194 710 q 265 629 227 650 q 367 590 302 608 l 429 574 q 642 468 574 538 q 710 286 710 399 q 665 125 710 192 q 535 22 620 58 q 329 -13 449 -13 m 385 1326 q 325 1343 347 1326 q 303 1392 303 1361 q 325 1441 303 1423 q 385 1458 347 1458 q 444 1441 423 1458 q 466 1392 466 1423 q 444 1343 466 1361 q 385 1326 423 1326 m 503 1315 l 621 1315 l 449 1114 l 321 1114 l 149 1315 l 267 1315 l 385 1173 l 503 1315 z "},"Ş":{"ha":757,"x_min":47,"x_max":710,"o":"m 710 286 q 633 86 710 163 q 416 -8 557 10 l 416 -67 q 508 -102 476 -73 q 541 -179 541 -131 q 499 -265 541 -235 q 376 -294 456 -294 q 240 -270 301 -294 l 240 -205 q 370 -231 305 -231 q 436 -217 414 -231 q 458 -175 458 -204 q 369 -119 458 -119 l 339 -119 l 339 -13 l 329 -13 q 195 -2 263 -13 q 66 29 126 8 l 66 153 q 199 120 130 131 q 330 109 267 109 q 563 276 563 109 q 544 354 563 323 q 485 406 526 385 q 374 447 445 428 l 312 463 q 113 566 178 497 q 47 747 47 635 q 90 905 47 840 q 219 1006 133 971 q 432 1041 306 1041 q 554 1033 494 1041 q 663 1010 614 1025 l 663 887 q 438 919 557 919 q 194 756 194 919 q 211 680 194 710 q 265 629 227 650 q 367 590 302 608 l 429 574 q 642 468 574 538 q 710 286 710 399 z "},"Ŝ":{"ha":757,"x_min":47,"x_max":710,"o":"m 329 -13 q 195 -2 263 -13 q 66 29 126 8 l 66 153 q 199 120 130 131 q 330 109 267 109 q 563 276 563 109 q 544 354 563 323 q 485 406 526 385 q 374 447 445 428 l 312 463 q 113 566 178 497 q 47 747 47 635 q 90 905 47 840 q 219 1006 133 971 q 432 1041 306 1041 q 554 1033 494 1041 q 663 1010 614 1025 l 663 887 q 438 919 557 919 q 194 756 194 919 q 211 680 194 710 q 265 629 227 650 q 367 590 302 608 l 429 574 q 642 468 574 538 q 710 286 710 399 q 665 125 710 192 q 535 22 620 58 q 329 -13 449 -13 m 621 1114 l 503 1114 l 385 1256 l 267 1114 l 149 1114 l 321 1315 l 449 1315 l 621 1114 z "},"Ș":{"ha":757,"x_min":47,"x_max":710,"o":"m 329 -13 q 195 -2 263 -13 q 66 29 126 8 l 66 153 q 199 120 130 131 q 330 109 267 109 q 563 276 563 109 q 544 354 563 323 q 485 406 526 385 q 374 447 445 428 l 312 463 q 113 566 178 497 q 47 747 47 635 q 90 905 47 840 q 219 1006 133 971 q 432 1041 306 1041 q 554 1033 494 1041 q 663 1010 614 1025 l 663 887 q 438 919 557 919 q 194 756 194 919 q 211 680 194 710 q 265 629 227 650 q 367 590 302 608 l 429 574 q 642 468 574 538 q 710 286 710 399 q 665 125 710 192 q 535 22 620 58 q 329 -13 449 -13 m 383 -106 q 473 -190 473 -106 q 461 -260 473 -222 q 429 -331 449 -299 l 339 -331 q 371 -232 365 -276 q 315 -212 334 -229 q 297 -169 297 -196 q 319 -123 297 -140 q 383 -106 341 -106 z "},"Ṡ":{"ha":757,"x_min":47,"x_max":710,"o":"m 329 -13 q 195 -2 263 -13 q 66 29 126 8 l 66 153 q 199 120 130 131 q 330 109 267 109 q 563 276 563 109 q 544 354 563 323 q 485 406 526 385 q 374 447 445 428 l 312 463 q 113 566 178 497 q 47 747 47 635 q 90 905 47 840 q 219 1006 133 971 q 432 1041 306 1041 q 554 1033 494 1041 q 663 1010 614 1025 l 663 887 q 438 919 557 919 q 194 756 194 919 q 211 680 194 710 q 265 629 227 650 q 367 590 302 608 l 429 574 q 642 468 574 538 q 710 286 710 399 q 665 125 710 192 q 535 22 620 58 q 329 -13 449 -13 m 385 1140 q 314 1160 339 1140 q 290 1216 290 1181 q 314 1272 290 1252 q 385 1292 339 1292 q 455 1272 431 1292 q 480 1216 480 1252 q 455 1160 480 1181 q 385 1140 431 1140 z "},"Ṣ":{"ha":757,"x_min":47,"x_max":710,"o":"m 329 -13 q 195 -2 263 -13 q 66 29 126 8 l 66 153 q 199 120 130 131 q 330 109 267 109 q 563 276 563 109 q 544 354 563 323 q 485 406 526 385 q 374 447 445 428 l 312 463 q 113 566 178 497 q 47 747 47 635 q 90 905 47 840 q 219 1006 133 971 q 432 1041 306 1041 q 554 1033 494 1041 q 663 1010 614 1025 l 663 887 q 438 919 557 919 q 194 756 194 919 q 211 680 194 710 q 265 629 227 650 q 367 590 302 608 l 429 574 q 642 468 574 538 q 710 286 710 399 q 665 125 710 192 q 535 22 620 58 q 329 -13 449 -13 m 385 -258 q 314 -238 339 -258 q 290 -182 290 -218 q 315 -126 290 -147 q 385 -106 340 -106 q 455 -126 430 -106 q 480 -182 480 -147 q 455 -238 480 -218 q 385 -258 431 -258 z "},"Ṩ":{"ha":757,"x_min":47,"x_max":710,"o":"m 329 -13 q 195 -2 263 -13 q 66 29 126 8 l 66 153 q 199 120 130 131 q 330 109 267 109 q 563 276 563 109 q 544 354 563 323 q 485 406 526 385 q 374 447 445 428 l 312 463 q 113 566 178 497 q 47 747 47 635 q 90 905 47 840 q 219 1006 133 971 q 432 1041 306 1041 q 554 1033 494 1041 q 663 1010 614 1025 l 663 887 q 438 919 557 919 q 194 756 194 919 q 211 680 194 710 q 265 629 227 650 q 367 590 302 608 l 429 574 q 642 468 574 538 q 710 286 710 399 q 665 125 710 192 q 535 22 620 58 q 329 -13 449 -13 m 385 -258 q 314 -238 339 -258 q 290 -182 290 -218 q 315 -126 290 -147 q 385 -106 340 -106 q 455 -126 430 -106 q 480 -182 480 -147 q 455 -238 480 -218 q 385 -258 431 -258 m 385 1140 q 314 1160 339 1140 q 290 1216 290 1181 q 314 1272 290 1252 q 385 1292 339 1292 q 455 1272 431 1292 q 480 1216 480 1252 q 455 1160 480 1181 q 385 1140 431 1140 z "},"ẞ":{"ha":1203,"x_min":110,"x_max":1156,"o":"m 881 574 q 1090 468 1023 538 q 1156 286 1156 399 q 1112 125 1156 192 q 984 22 1068 58 q 781 -13 899 -13 q 650 -3 717 -13 q 525 28 583 8 l 525 151 q 654 120 587 131 q 780 109 721 109 q 1010 276 1010 109 q 992 354 1010 323 q 935 407 974 385 q 827 447 895 429 l 767 463 q 571 566 636 497 q 506 747 506 635 q 555 914 506 847 q 492 919 524 919 q 314 858 371 919 q 257 666 257 796 l 257 0 l 110 0 l 110 647 q 203 943 110 845 q 492 1041 297 1041 q 681 1008 599 1041 q 888 1041 767 1041 q 1004 1033 946 1041 q 1110 1011 1062 1025 l 1110 888 q 894 919 1006 919 q 653 756 653 919 q 669 680 653 710 q 721 628 685 650 q 820 590 758 607 l 881 574 z "},"Ə":{"ha":1017,"x_min":62,"x_max":949,"o":"m 406 1041 q 811 912 674 1041 q 949 508 949 783 q 894 215 949 331 q 742 43 840 99 q 510 -13 644 -13 q 272 42 372 -13 q 117 213 172 97 q 62 506 62 329 l 62 565 l 800 565 q 744 773 792 695 q 610 885 696 851 q 394 919 524 919 q 256 911 328 919 q 122 887 184 903 l 122 1009 q 406 1041 254 1041 m 511 106 q 718 186 645 106 q 801 453 792 266 l 214 453 q 255 250 219 326 q 355 140 291 174 q 511 106 418 106 z "},"T":{"ha":839,"x_min":9,"x_max":830,"o":"m 346 0 l 346 902 l 9 902 l 9 1028 l 830 1028 l 830 902 l 493 902 l 493 0 l 346 0 z "},"Ŧ":{"ha":839,"x_min":9,"x_max":830,"o":"m 830 902 l 493 902 l 493 577 l 713 577 l 713 478 l 493 478 l 493 0 l 346 0 l 346 478 l 126 478 l 126 577 l 346 577 l 346 902 l 9 902 l 9 1028 l 830 1028 l 830 902 z "},"Ť":{"ha":839,"x_min":9,"x_max":830,"o":"m 346 0 l 346 902 l 9 902 l 9 1028 l 830 1028 l 830 902 l 493 902 l 493 0 l 346 0 m 538 1315 l 656 1315 l 484 1114 l 356 1114 l 183 1315 l 301 1315 l 419 1173 l 538 1315 z "},"Ţ":{"ha":839,"x_min":9,"x_max":830,"o":"m 451 0 l 451 -67 q 543 -102 510 -73 q 576 -179 576 -131 q 533 -265 576 -235 q 411 -294 491 -294 q 275 -270 335 -294 l 275 -205 q 405 -231 340 -231 q 471 -217 449 -231 q 493 -175 493 -204 q 403 -119 493 -119 l 374 -119 l 374 0 l 346 0 l 346 902 l 9 902 l 9 1028 l 830 1028 l 830 902 l 493 902 l 493 0 l 451 0 z "},"Ț":{"ha":839,"x_min":9,"x_max":830,"o":"m 346 0 l 346 902 l 9 902 l 9 1028 l 830 1028 l 830 902 l 493 902 l 493 0 l 346 0 m 418 -106 q 508 -190 508 -106 q 496 -260 508 -222 q 464 -331 484 -299 l 374 -331 q 406 -232 399 -276 q 350 -212 369 -229 q 331 -169 331 -196 q 353 -123 331 -140 q 418 -106 376 -106 z "},"Ṭ":{"ha":839,"x_min":9,"x_max":830,"o":"m 346 0 l 346 902 l 9 902 l 9 1028 l 830 1028 l 830 902 l 493 902 l 493 0 l 346 0 m 419 -258 q 349 -238 374 -258 q 324 -182 324 -218 q 349 -126 324 -147 q 419 -106 374 -106 q 490 -126 465 -106 q 515 -182 515 -147 q 490 -238 515 -218 q 419 -258 465 -258 z "},"Ṯ":{"ha":839,"x_min":9,"x_max":830,"o":"m 346 0 l 346 902 l 9 902 l 9 1028 l 830 1028 l 830 902 l 493 902 l 493 0 l 346 0 m 194 -226 l 194 -133 l 645 -133 l 645 -226 l 194 -226 z "},"U":{"ha":1000,"x_min":105,"x_max":895,"o":"m 501 -13 q 201 87 297 -13 q 105 400 105 188 l 105 1028 l 251 1028 l 251 385 q 312 176 251 242 q 501 111 372 111 q 691 176 631 111 q 751 385 751 242 l 751 1028 l 895 1028 l 895 400 q 800 87 895 188 q 501 -13 705 -13 z "},"Ú":{"ha":1000,"x_min":105,"x_max":895,"o":"m 501 -13 q 201 87 297 -13 q 105 400 105 188 l 105 1028 l 251 1028 l 251 385 q 312 176 251 242 q 501 111 372 111 q 691 176 631 111 q 751 385 751 242 l 751 1028 l 895 1028 l 895 400 q 800 87 895 188 q 501 -13 705 -13 m 435 1114 l 560 1315 l 714 1315 l 567 1114 l 435 1114 z "},"Ŭ":{"ha":1000,"x_min":105,"x_max":895,"o":"m 501 -13 q 201 87 297 -13 q 105 400 105 188 l 105 1028 l 251 1028 l 251 385 q 312 176 251 242 q 501 111 372 111 q 691 176 631 111 q 751 385 751 242 l 751 1028 l 895 1028 l 895 400 q 800 87 895 188 q 501 -13 705 -13 m 502 1119 q 335 1168 395 1119 q 267 1303 276 1217 l 360 1303 q 402 1224 369 1250 q 502 1198 435 1198 q 602 1224 569 1198 q 642 1303 635 1250 l 736 1303 q 668 1168 727 1217 q 502 1119 610 1119 z "},"Û":{"ha":1000,"x_min":105,"x_max":895,"o":"m 501 -13 q 201 87 297 -13 q 105 400 105 188 l 105 1028 l 251 1028 l 251 385 q 312 176 251 242 q 501 111 372 111 q 691 176 631 111 q 751 385 751 242 l 751 1028 l 895 1028 l 895 400 q 800 87 895 188 q 501 -13 705 -13 m 738 1114 l 619 1114 l 501 1256 l 383 1114 l 265 1114 l 438 1315 l 566 1315 l 738 1114 z "},"Ȕ":{"ha":1000,"x_min":105,"x_max":895,"o":"m 501 -13 q 201 87 297 -13 q 105 400 105 188 l 105 1028 l 251 1028 l 251 385 q 312 176 251 242 q 501 111 372 111 q 691 176 631 111 q 751 385 751 242 l 751 1028 l 895 1028 l 895 400 q 800 87 895 188 q 501 -13 705 -13 m 322 1114 l 222 1315 l 341 1315 l 433 1114 l 322 1114 m 570 1114 l 471 1315 l 590 1315 l 681 1114 l 570 1114 z "},"Ü":{"ha":1000,"x_min":105,"x_max":895,"o":"m 501 -13 q 201 87 297 -13 q 105 400 105 188 l 105 1028 l 251 1028 l 251 385 q 312 176 251 242 q 501 111 372 111 q 691 176 631 111 q 751 385 751 242 l 751 1028 l 895 1028 l 895 400 q 800 87 895 188 q 501 -13 705 -13 m 333 1140 q 270 1160 292 1140 q 248 1216 248 1181 q 270 1272 248 1251 q 333 1292 292 1292 q 397 1272 374 1292 q 419 1216 419 1251 q 397 1160 419 1181 q 333 1140 374 1140 m 669 1140 q 606 1160 628 1140 q 583 1216 583 1181 q 606 1272 583 1251 q 669 1292 628 1292 q 733 1272 710 1292 q 755 1216 755 1251 q 733 1160 755 1181 q 669 1140 710 1140 z "},"Ụ":{"ha":1000,"x_min":105,"x_max":895,"o":"m 501 -13 q 201 87 297 -13 q 105 400 105 188 l 105 1028 l 251 1028 l 251 385 q 312 176 251 242 q 501 111 372 111 q 691 176 631 111 q 751 385 751 242 l 751 1028 l 895 1028 l 895 400 q 800 87 895 188 q 501 -13 705 -13 m 501 -258 q 431 -238 456 -258 q 406 -182 406 -218 q 431 -126 406 -147 q 501 -106 456 -106 q 572 -126 547 -106 q 597 -182 597 -147 q 572 -238 597 -218 q 501 -258 547 -258 z "},"Ù":{"ha":1000,"x_min":105,"x_max":895,"o":"m 501 -13 q 201 87 297 -13 q 105 400 105 188 l 105 1028 l 251 1028 l 251 385 q 312 176 251 242 q 501 111 372 111 q 691 176 631 111 q 751 385 751 242 l 751 1028 l 895 1028 l 895 400 q 800 87 895 188 q 501 -13 705 -13 m 436 1114 l 288 1315 l 442 1315 l 567 1114 l 436 1114 z "},"Ủ":{"ha":1000,"x_min":105,"x_max":895,"o":"m 501 -13 q 201 87 297 -13 q 105 400 105 188 l 105 1028 l 251 1028 l 251 385 q 312 176 251 242 q 501 111 372 111 q 691 176 631 111 q 751 385 751 242 l 751 1028 l 895 1028 l 895 400 q 800 87 895 188 q 501 -13 705 -13 m 460 1114 q 472 1149 461 1135 q 496 1172 483 1163 q 533 1190 510 1180 q 566 1209 556 1201 q 576 1228 576 1217 q 558 1251 576 1243 q 497 1259 540 1259 q 362 1238 428 1259 l 362 1301 q 429 1317 390 1311 q 506 1323 468 1323 q 622 1301 584 1323 q 660 1238 660 1278 q 651 1205 660 1218 q 629 1183 642 1191 q 595 1163 617 1174 q 557 1141 570 1151 q 542 1114 544 1130 l 460 1114 z "},"Ư":{"ha":1001,"x_min":105,"x_max":1041,"o":"m 501 -13 q 201 87 297 -13 q 105 400 105 188 l 105 1028 l 251 1028 l 251 385 q 312 176 251 242 q 501 111 372 111 q 691 176 631 111 q 751 385 751 242 l 751 1028 l 802 1028 q 901 1053 867 1028 q 935 1135 935 1078 q 921 1233 935 1181 l 1025 1233 q 1038 1184 1034 1208 q 1041 1129 1041 1160 q 1002 1013 1041 1056 q 895 958 964 969 l 895 400 q 800 87 895 188 q 501 -13 705 -13 z "},"Ứ":{"ha":1001,"x_min":105,"x_max":1041,"o":"m 501 -13 q 201 87 297 -13 q 105 400 105 188 l 105 1028 l 251 1028 l 251 385 q 312 176 251 242 q 501 111 372 111 q 691 176 631 111 q 751 385 751 242 l 751 1028 l 802 1028 q 901 1053 867 1028 q 935 1135 935 1078 q 921 1233 935 1181 l 1025 1233 q 1038 1184 1034 1208 q 1041 1129 1041 1160 q 1002 1013 1041 1056 q 895 958 964 969 l 895 400 q 800 87 895 188 q 501 -13 705 -13 m 435 1114 l 559 1315 l 713 1315 l 566 1114 l 435 1114 z "},"Ự":{"ha":1001,"x_min":105,"x_max":1041,"o":"m 501 -13 q 201 87 297 -13 q 105 400 105 188 l 105 1028 l 251 1028 l 251 385 q 312 176 251 242 q 501 111 372 111 q 691 176 631 111 q 751 385 751 242 l 751 1028 l 802 1028 q 901 1053 867 1028 q 935 1135 935 1078 q 921 1233 935 1181 l 1025 1233 q 1038 1184 1034 1208 q 1041 1129 1041 1160 q 1002 1013 1041 1056 q 895 958 964 969 l 895 400 q 800 87 895 188 q 501 -13 705 -13 m 501 -258 q 430 -238 455 -258 q 406 -182 406 -218 q 431 -126 406 -147 q 501 -106 456 -106 q 571 -126 546 -106 q 596 -182 596 -147 q 571 -238 596 -218 q 501 -258 547 -258 z "},"Ừ":{"ha":1001,"x_min":105,"x_max":1041,"o":"m 501 -13 q 201 87 297 -13 q 105 400 105 188 l 105 1028 l 251 1028 l 251 385 q 312 176 251 242 q 501 111 372 111 q 691 176 631 111 q 751 385 751 242 l 751 1028 l 802 1028 q 901 1053 867 1028 q 935 1135 935 1078 q 921 1233 935 1181 l 1025 1233 q 1038 1184 1034 1208 q 1041 1129 1041 1160 q 1002 1013 1041 1056 q 895 958 964 969 l 895 400 q 800 87 895 188 q 501 -13 705 -13 m 435 1114 l 288 1315 l 442 1315 l 566 1114 l 435 1114 z "},"Ử":{"ha":1001,"x_min":105,"x_max":1041,"o":"m 501 -13 q 201 87 297 -13 q 105 400 105 188 l 105 1028 l 251 1028 l 251 385 q 312 176 251 242 q 501 111 372 111 q 691 176 631 111 q 751 385 751 242 l 751 1028 l 802 1028 q 901 1053 867 1028 q 935 1135 935 1078 q 921 1233 935 1181 l 1025 1233 q 1038 1184 1034 1208 q 1041 1129 1041 1160 q 1002 1013 1041 1056 q 895 958 964 969 l 895 400 q 800 87 895 188 q 501 -13 705 -13 m 460 1114 q 471 1149 460 1135 q 495 1172 482 1163 q 532 1190 509 1180 q 565 1209 555 1201 q 576 1228 576 1217 q 557 1251 576 1243 q 496 1259 539 1259 q 361 1238 428 1259 l 361 1301 q 428 1317 390 1311 q 506 1323 467 1323 q 621 1301 583 1323 q 659 1238 659 1278 q 650 1205 659 1218 q 628 1183 641 1191 q 594 1163 616 1174 q 557 1141 569 1151 q 542 1114 544 1130 l 460 1114 z "},"Ữ":{"ha":1001,"x_min":105,"x_max":1041,"o":"m 501 -13 q 201 87 297 -13 q 105 400 105 188 l 105 1028 l 251 1028 l 251 385 q 312 176 251 242 q 501 111 372 111 q 691 176 631 111 q 751 385 751 242 l 751 1028 l 802 1028 q 901 1053 867 1028 q 935 1135 935 1078 q 921 1233 935 1181 l 1025 1233 q 1038 1184 1034 1208 q 1041 1129 1041 1160 q 1002 1013 1041 1056 q 895 958 964 969 l 895 400 q 800 87 895 188 q 501 -13 705 -13 m 612 1148 q 556 1155 581 1148 q 490 1176 530 1162 q 434 1194 458 1188 q 388 1201 411 1201 q 320 1189 349 1201 q 263 1151 291 1177 l 263 1244 q 317 1279 286 1267 q 390 1291 348 1291 q 448 1284 420 1291 q 512 1263 475 1276 q 569 1243 547 1249 q 614 1238 590 1238 q 681 1249 652 1238 q 739 1287 710 1261 l 739 1194 q 684 1159 715 1171 q 612 1148 653 1148 z "},"Ű":{"ha":1000,"x_min":105,"x_max":895,"o":"m 501 -13 q 201 87 297 -13 q 105 400 105 188 l 105 1028 l 251 1028 l 251 385 q 312 176 251 242 q 501 111 372 111 q 691 176 631 111 q 751 385 751 242 l 751 1028 l 895 1028 l 895 400 q 800 87 895 188 q 501 -13 705 -13 m 322 1114 l 413 1315 l 532 1315 l 433 1114 l 322 1114 m 570 1114 l 662 1315 l 781 1315 l 681 1114 l 570 1114 z "},"Ȗ":{"ha":1000,"x_min":105,"x_max":895,"o":"m 501 -13 q 201 87 297 -13 q 105 400 105 188 l 105 1028 l 251 1028 l 251 385 q 312 176 251 242 q 501 111 372 111 q 691 176 631 111 q 751 385 751 242 l 751 1028 l 895 1028 l 895 400 q 800 87 895 188 q 501 -13 705 -13 m 267 1126 q 334 1261 276 1213 q 501 1310 393 1310 q 667 1261 608 1310 q 736 1126 727 1212 l 642 1126 q 601 1205 634 1179 q 501 1231 567 1231 q 401 1205 434 1231 q 360 1126 368 1179 l 267 1126 z "},"Ū":{"ha":1000,"x_min":105,"x_max":895,"o":"m 501 -13 q 201 87 297 -13 q 105 400 105 188 l 105 1028 l 251 1028 l 251 385 q 312 176 251 242 q 501 111 372 111 q 691 176 631 111 q 751 385 751 242 l 751 1028 l 895 1028 l 895 400 q 800 87 895 188 q 501 -13 705 -13 m 276 1169 l 276 1261 l 727 1261 l 727 1169 l 276 1169 z "},"Ṻ":{"ha":1000,"x_min":105,"x_max":895,"o":"m 501 -13 q 201 87 297 -13 q 105 400 105 188 l 105 1028 l 251 1028 l 251 385 q 312 176 251 242 q 501 111 372 111 q 691 176 631 111 q 751 385 751 242 l 751 1028 l 895 1028 l 895 400 q 800 87 895 188 q 501 -13 705 -13 m 276 1169 l 276 1261 l 727 1261 l 727 1169 l 276 1169 m 333 1346 q 270 1366 292 1346 q 248 1422 248 1386 q 270 1477 248 1457 q 333 1498 292 1498 q 397 1477 374 1498 q 419 1422 419 1457 q 397 1366 419 1386 q 333 1346 374 1346 m 669 1346 q 606 1366 628 1346 q 583 1422 583 1386 q 606 1477 583 1457 q 669 1498 628 1498 q 733 1477 710 1498 q 755 1422 755 1457 q 733 1366 755 1386 q 669 1346 710 1346 z "},"Ų":{"ha":1000,"x_min":105,"x_max":895,"o":"m 895 1028 l 895 400 q 839 141 895 238 q 665 8 783 44 q 521 -64 563 -24 q 479 -151 479 -103 q 580 -228 479 -228 q 630 -222 604 -228 q 688 -203 655 -217 l 688 -269 q 564 -294 626 -294 q 435 -259 478 -294 q 391 -159 391 -224 q 483 -13 391 -69 q 197 92 288 -8 q 105 400 105 192 l 105 1028 l 251 1028 l 251 385 q 312 176 251 242 q 501 111 372 111 q 691 176 631 111 q 751 385 751 242 l 751 1028 l 895 1028 z "},"Ů":{"ha":1000,"x_min":105,"x_max":895,"o":"m 501 -13 q 201 87 297 -13 q 105 400 105 188 l 105 1028 l 251 1028 l 251 385 q 312 176 251 242 q 501 111 372 111 q 691 176 631 111 q 751 385 751 242 l 751 1028 l 895 1028 l 895 400 q 800 87 895 188 q 501 -13 705 -13 m 501 1108 q 430 1125 462 1108 q 380 1174 398 1143 q 362 1245 362 1206 q 380 1316 362 1285 q 430 1365 398 1347 q 501 1383 462 1383 q 573 1365 541 1383 q 623 1316 605 1347 q 641 1245 641 1285 q 623 1174 641 1206 q 573 1125 605 1143 q 501 1108 541 1108 m 501 1167 q 556 1189 535 1167 q 577 1245 577 1210 q 556 1302 577 1281 q 501 1323 535 1323 q 447 1302 467 1323 q 426 1245 426 1281 q 447 1189 426 1210 q 501 1167 467 1167 z "},"Ũ":{"ha":1000,"x_min":105,"x_max":895,"o":"m 501 -13 q 201 87 297 -13 q 105 400 105 188 l 105 1028 l 251 1028 l 251 385 q 312 176 251 242 q 501 111 372 111 q 691 176 631 111 q 751 385 751 242 l 751 1028 l 895 1028 l 895 400 q 800 87 895 188 q 501 -13 705 -13 m 613 1148 q 556 1155 582 1148 q 490 1176 531 1162 q 435 1194 458 1188 q 388 1201 412 1201 q 321 1189 350 1201 q 263 1151 292 1177 l 263 1244 q 318 1279 287 1267 q 390 1291 349 1291 q 448 1284 421 1291 q 513 1263 476 1276 q 569 1243 548 1249 q 615 1238 591 1238 q 682 1249 653 1238 q 740 1287 711 1261 l 740 1194 q 685 1159 716 1171 q 613 1148 654 1148 z "},"Ṹ":{"ha":1000,"x_min":105,"x_max":895,"o":"m 501 -13 q 201 87 297 -13 q 105 400 105 188 l 105 1028 l 251 1028 l 251 385 q 312 176 251 242 q 501 111 372 111 q 691 176 631 111 q 751 385 751 242 l 751 1028 l 895 1028 l 895 400 q 800 87 895 188 q 501 -13 705 -13 m 429 1336 l 553 1497 l 721 1497 l 574 1336 l 429 1336 m 613 1148 q 556 1155 582 1148 q 490 1176 531 1162 q 435 1194 458 1188 q 388 1201 412 1201 q 321 1189 350 1201 q 263 1151 292 1177 l 263 1244 q 318 1279 287 1267 q 390 1291 349 1291 q 448 1284 421 1291 q 513 1263 476 1276 q 569 1243 548 1249 q 615 1238 591 1238 q 682 1249 653 1238 q 740 1287 711 1261 l 740 1194 q 685 1159 716 1171 q 613 1148 654 1148 z "},"V":{"ha":935,"x_min":6,"x_max":931,"o":"m 786 1028 l 931 1028 l 576 0 l 360 0 l 6 1028 l 160 1028 l 472 110 l 786 1028 z "},"W":{"ha":1501,"x_min":33,"x_max":1468,"o":"m 1328 1028 l 1468 1028 l 1185 0 l 994 0 l 753 867 l 507 0 l 317 0 l 33 1028 l 183 1028 l 422 134 l 670 1028 l 838 1028 l 1084 129 l 1328 1028 z "},"Ẃ":{"ha":1501,"x_min":33,"x_max":1468,"o":"m 1328 1028 l 1468 1028 l 1185 0 l 994 0 l 753 867 l 507 0 l 317 0 l 33 1028 l 183 1028 l 422 134 l 670 1028 l 838 1028 l 1084 129 l 1328 1028 m 685 1114 l 810 1315 l 964 1315 l 817 1114 l 685 1114 z "},"Ŵ":{"ha":1501,"x_min":33,"x_max":1468,"o":"m 1328 1028 l 1468 1028 l 1185 0 l 994 0 l 753 867 l 507 0 l 317 0 l 33 1028 l 183 1028 l 422 134 l 670 1028 l 838 1028 l 1084 129 l 1328 1028 m 988 1114 l 869 1114 l 751 1256 l 633 1114 l 515 1114 l 688 1315 l 816 1315 l 988 1114 z "},"Ẅ":{"ha":1501,"x_min":33,"x_max":1468,"o":"m 1328 1028 l 1468 1028 l 1185 0 l 994 0 l 753 867 l 507 0 l 317 0 l 33 1028 l 183 1028 l 422 134 l 670 1028 l 838 1028 l 1084 129 l 1328 1028 m 583 1140 q 520 1160 542 1140 q 498 1216 498 1181 q 520 1272 498 1251 q 583 1292 542 1292 q 647 1272 624 1292 q 669 1216 669 1251 q 647 1160 669 1181 q 583 1140 624 1140 m 919 1140 q 856 1160 878 1140 q 833 1216 833 1181 q 856 1272 833 1251 q 919 1292 878 1292 q 983 1272 960 1292 q 1005 1216 1005 1251 q 983 1160 1005 1181 q 919 1140 960 1140 z "},"Ẁ":{"ha":1501,"x_min":33,"x_max":1468,"o":"m 1328 1028 l 1468 1028 l 1185 0 l 994 0 l 753 867 l 507 0 l 317 0 l 33 1028 l 183 1028 l 422 134 l 670 1028 l 838 1028 l 1084 129 l 1328 1028 m 686 1114 l 538 1315 l 692 1315 l 817 1114 l 686 1114 z "},"X":{"ha":909,"x_min":-1,"x_max":908,"o":"m 540 528 l 908 0 l 743 0 l 453 417 l 162 0 l -1 0 l 367 526 l 15 1028 l 181 1028 l 454 638 l 728 1028 l 890 1028 l 540 528 z "},"Y":{"ha":839,"x_min":-26,"x_max":858,"o":"m 858 1028 l 494 450 l 494 0 l 347 0 l 347 449 l -26 1028 l 133 1028 l 424 578 l 710 1028 l 858 1028 z "},"Ý":{"ha":839,"x_min":-26,"x_max":858,"o":"m 858 1028 l 494 450 l 494 0 l 347 0 l 347 449 l -26 1028 l 133 1028 l 424 578 l 710 1028 l 858 1028 m 353 1114 l 478 1315 l 632 1315 l 485 1114 l 353 1114 z "},"Ŷ":{"ha":839,"x_min":-26,"x_max":858,"o":"m 858 1028 l 494 450 l 494 0 l 347 0 l 347 449 l -26 1028 l 133 1028 l 424 578 l 710 1028 l 858 1028 m 656 1114 l 538 1114 l 419 1256 l 301 1114 l 183 1114 l 356 1315 l 484 1315 l 656 1114 z "},"Ÿ":{"ha":839,"x_min":-26,"x_max":858,"o":"m 858 1028 l 494 450 l 494 0 l 347 0 l 347 449 l -26 1028 l 133 1028 l 424 578 l 710 1028 l 858 1028 m 251 1140 q 188 1160 210 1140 q 166 1216 166 1181 q 188 1272 166 1251 q 251 1292 210 1292 q 315 1272 292 1292 q 338 1216 338 1251 q 315 1160 338 1181 q 251 1140 292 1140 m 588 1140 q 524 1160 547 1140 q 501 1216 501 1181 q 524 1272 501 1251 q 588 1292 547 1292 q 651 1272 628 1292 q 673 1216 673 1251 q 651 1160 673 1181 q 588 1140 628 1140 z "},"Ẏ":{"ha":839,"x_min":-26,"x_max":858,"o":"m 858 1028 l 494 450 l 494 0 l 347 0 l 347 449 l -26 1028 l 133 1028 l 424 578 l 710 1028 l 858 1028 m 419 1140 q 349 1160 374 1140 q 324 1216 324 1181 q 349 1272 324 1252 q 419 1292 374 1292 q 490 1272 465 1292 q 515 1216 515 1252 q 490 1160 515 1181 q 419 1140 465 1140 z "},"Ỵ":{"ha":839,"x_min":-26,"x_max":858,"o":"m 858 1028 l 494 450 l 494 0 l 347 0 l 347 449 l -26 1028 l 133 1028 l 424 578 l 710 1028 l 858 1028 m 419 -258 q 349 -238 374 -258 q 324 -182 324 -218 q 349 -126 324 -147 q 419 -106 374 -106 q 490 -126 465 -106 q 515 -182 515 -147 q 490 -238 515 -218 q 419 -258 465 -258 z "},"Ỳ":{"ha":839,"x_min":-26,"x_max":858,"o":"m 858 1028 l 494 450 l 494 0 l 347 0 l 347 449 l -26 1028 l 133 1028 l 424 578 l 710 1028 l 858 1028 m 354 1114 l 206 1315 l 360 1315 l 485 1114 l 354 1114 z "},"Ỷ":{"ha":839,"x_min":-26,"x_max":858,"o":"m 858 1028 l 494 450 l 494 0 l 347 0 l 347 449 l -26 1028 l 133 1028 l 424 578 l 710 1028 l 858 1028 m 378 1114 q 390 1149 379 1135 q 414 1172 401 1163 q 451 1190 428 1180 q 484 1209 474 1201 q 494 1228 494 1217 q 476 1251 494 1243 q 415 1259 458 1259 q 280 1238 347 1259 l 280 1301 q 347 1317 308 1311 q 424 1323 386 1323 q 540 1301 502 1323 q 578 1238 578 1278 q 569 1205 578 1218 q 547 1183 560 1191 q 513 1163 535 1174 q 475 1141 488 1151 q 460 1114 463 1130 l 378 1114 z "},"Ȳ":{"ha":839,"x_min":-26,"x_max":858,"o":"m 858 1028 l 494 450 l 494 0 l 347 0 l 347 449 l -26 1028 l 133 1028 l 424 578 l 710 1028 l 858 1028 m 194 1169 l 194 1261 l 645 1261 l 645 1169 l 194 1169 z "},"Ỹ":{"ha":839,"x_min":-26,"x_max":858,"o":"m 858 1028 l 494 450 l 494 0 l 347 0 l 347 449 l -26 1028 l 133 1028 l 424 578 l 710 1028 l 858 1028 m 531 1148 q 474 1155 500 1148 q 408 1176 449 1162 q 353 1194 376 1188 q 306 1201 330 1201 q 239 1189 268 1201 q 181 1151 210 1177 l 181 1244 q 236 1279 205 1267 q 308 1291 267 1291 q 366 1284 339 1291 q 431 1263 394 1276 q 488 1243 466 1249 q 533 1238 509 1238 q 600 1249 571 1238 q 658 1287 629 1261 l 658 1194 q 603 1159 634 1171 q 531 1148 572 1148 z "},"Z":{"ha":819,"x_min":42,"x_max":776,"o":"m 233 125 l 776 125 l 776 0 l 42 0 l 42 81 l 577 903 l 49 903 l 49 1028 l 769 1028 l 769 947 l 233 125 z "},"Ź":{"ha":819,"x_min":42,"x_max":776,"o":"m 233 125 l 776 125 l 776 0 l 42 0 l 42 81 l 577 903 l 49 903 l 49 1028 l 769 1028 l 769 947 l 233 125 m 344 1114 l 468 1315 l 622 1315 l 475 1114 l 344 1114 z "},"Ž":{"ha":819,"x_min":42,"x_max":776,"o":"m 233 125 l 776 125 l 776 0 l 42 0 l 42 81 l 577 903 l 49 903 l 49 1028 l 769 1028 l 769 947 l 233 125 m 528 1315 l 646 1315 l 474 1114 l 346 1114 l 174 1315 l 292 1315 l 410 1173 l 528 1315 z "},"Ż":{"ha":819,"x_min":42,"x_max":776,"o":"m 233 125 l 776 125 l 776 0 l 42 0 l 42 81 l 577 903 l 49 903 l 49 1028 l 769 1028 l 769 947 l 233 125 m 410 1140 q 339 1160 364 1140 q 315 1216 315 1181 q 339 1272 315 1252 q 410 1292 364 1292 q 480 1272 456 1292 q 505 1216 505 1252 q 480 1160 505 1181 q 410 1140 456 1140 z "},"Ẓ":{"ha":819,"x_min":42,"x_max":776,"o":"m 233 125 l 776 125 l 776 0 l 42 0 l 42 81 l 577 903 l 49 903 l 49 1028 l 769 1028 l 769 947 l 233 125 m 408 -258 q 338 -238 363 -258 q 313 -182 313 -218 q 338 -126 313 -147 q 408 -106 363 -106 q 478 -126 453 -106 q 503 -182 503 -147 q 479 -238 503 -218 q 408 -258 454 -258 z "},"a":{"ha":733,"x_min":58,"x_max":642,"o":"m 335 767 q 509 740 442 767 q 609 651 576 713 q 642 481 642 588 l 642 0 l 522 0 l 512 82 l 503 82 q 413 12 468 36 q 291 -12 357 -12 q 166 13 219 -12 q 86 86 114 38 q 58 197 58 133 q 126 356 58 300 q 344 425 195 413 l 501 441 l 501 489 q 481 588 501 552 q 420 638 461 623 q 313 653 380 653 q 213 645 267 653 q 109 620 159 637 l 109 734 q 219 759 158 750 q 335 767 280 767 m 333 94 q 423 113 379 94 q 501 172 467 132 l 501 351 l 356 336 q 239 297 275 328 q 202 211 202 267 q 235 124 202 153 q 333 94 268 94 z "},"á":{"ha":733,"x_min":58,"x_max":642,"o":"m 335 767 q 509 740 442 767 q 609 651 576 713 q 642 481 642 588 l 642 0 l 522 0 l 512 82 l 503 82 q 413 12 468 36 q 291 -12 357 -12 q 166 13 219 -12 q 86 86 114 38 q 58 197 58 133 q 126 356 58 300 q 344 425 195 413 l 501 441 l 501 489 q 481 588 501 552 q 420 638 461 623 q 313 653 380 653 q 213 645 267 653 q 109 620 159 637 l 109 734 q 219 759 158 750 q 335 767 280 767 m 333 94 q 423 113 379 94 q 501 172 467 132 l 501 351 l 356 336 q 239 297 275 328 q 202 211 202 267 q 235 124 202 153 q 333 94 268 94 m 298 866 l 450 1122 l 605 1122 l 430 866 l 298 866 z "},"ă":{"ha":733,"x_min":58,"x_max":642,"o":"m 335 767 q 509 740 442 767 q 609 651 576 713 q 642 481 642 588 l 642 0 l 522 0 l 512 82 l 503 82 q 413 12 468 36 q 291 -12 357 -12 q 166 13 219 -12 q 86 86 114 38 q 58 197 58 133 q 126 356 58 300 q 344 425 195 413 l 501 441 l 501 489 q 481 588 501 552 q 420 638 461 623 q 313 653 380 653 q 213 645 267 653 q 109 620 159 637 l 109 734 q 219 759 158 750 q 335 767 280 767 m 333 94 q 423 113 379 94 q 501 172 467 132 l 501 351 l 356 336 q 239 297 275 328 q 202 211 202 267 q 235 124 202 153 q 333 94 268 94 m 365 873 q 205 933 263 873 q 142 1105 147 993 l 235 1105 q 272 992 240 1030 q 365 953 303 953 q 457 991 426 953 q 492 1105 488 1029 l 585 1105 q 523 933 581 992 q 365 873 466 873 z "},"ắ":{"ha":733,"x_min":58,"x_max":642,"o":"m 335 767 q 509 740 442 767 q 609 651 576 713 q 642 481 642 588 l 642 0 l 522 0 l 512 82 l 503 82 q 413 12 468 36 q 291 -12 357 -12 q 166 13 219 -12 q 86 86 114 38 q 58 197 58 133 q 126 356 58 300 q 344 425 195 413 l 501 441 l 501 489 q 481 588 501 552 q 420 638 461 623 q 313 653 380 653 q 213 645 267 653 q 109 620 159 637 l 109 734 q 219 759 158 750 q 335 767 280 767 m 333 94 q 423 113 379 94 q 501 172 467 132 l 501 351 l 356 336 q 239 297 275 328 q 202 211 202 267 q 235 124 202 153 q 333 94 268 94 m 310 1109 l 435 1297 l 564 1297 l 417 1109 l 310 1109 m 365 874 q 203 932 262 874 q 138 1092 145 990 l 231 1092 q 270 987 238 1022 q 365 952 303 952 q 459 987 427 952 q 497 1092 491 1022 l 590 1092 q 525 931 583 988 q 365 874 467 874 z "},"ặ":{"ha":733,"x_min":58,"x_max":642,"o":"m 335 767 q 509 740 442 767 q 609 651 576 713 q 642 481 642 588 l 642 0 l 522 0 l 512 82 l 503 82 q 413 12 468 36 q 291 -12 357 -12 q 166 13 219 -12 q 86 86 114 38 q 58 197 58 133 q 126 356 58 300 q 344 425 195 413 l 501 441 l 501 489 q 481 588 501 552 q 420 638 461 623 q 313 653 380 653 q 213 645 267 653 q 109 620 159 637 l 109 734 q 219 759 158 750 q 335 767 280 767 m 333 94 q 423 113 379 94 q 501 172 467 132 l 501 351 l 356 336 q 239 297 275 328 q 202 211 202 267 q 235 124 202 153 q 333 94 268 94 m 370 -267 q 307 -246 330 -267 q 284 -187 284 -224 q 307 -127 284 -149 q 370 -106 330 -106 q 433 -127 410 -106 q 456 -187 456 -149 q 433 -246 456 -224 q 370 -267 410 -267 m 365 873 q 205 933 263 873 q 142 1105 147 993 l 235 1105 q 272 992 240 1030 q 365 953 303 953 q 457 991 426 953 q 492 1105 488 1029 l 585 1105 q 523 933 581 992 q 365 873 466 873 z "},"ằ":{"ha":733,"x_min":58,"x_max":642,"o":"m 335 767 q 509 740 442 767 q 609 651 576 713 q 642 481 642 588 l 642 0 l 522 0 l 512 82 l 503 82 q 413 12 468 36 q 291 -12 357 -12 q 166 13 219 -12 q 86 86 114 38 q 58 197 58 133 q 126 356 58 300 q 344 425 195 413 l 501 441 l 501 489 q 481 588 501 552 q 420 638 461 623 q 313 653 380 653 q 213 645 267 653 q 109 620 159 637 l 109 734 q 219 759 158 750 q 335 767 280 767 m 333 94 q 423 113 379 94 q 501 172 467 132 l 501 351 l 356 336 q 239 297 275 328 q 202 211 202 267 q 235 124 202 153 q 333 94 268 94 m 311 1109 l 164 1297 l 293 1297 l 417 1109 l 311 1109 m 365 874 q 203 932 262 874 q 138 1092 145 990 l 231 1092 q 270 987 238 1022 q 365 952 303 952 q 459 987 427 952 q 497 1092 491 1022 l 590 1092 q 525 931 583 988 q 365 874 467 874 z "},"ẳ":{"ha":733,"x_min":58,"x_max":642,"o":"m 335 767 q 509 740 442 767 q 609 651 576 713 q 642 481 642 588 l 642 0 l 522 0 l 512 82 l 503 82 q 413 12 468 36 q 291 -12 357 -12 q 166 13 219 -12 q 86 86 114 38 q 58 197 58 133 q 126 356 58 300 q 344 425 195 413 l 501 441 l 501 489 q 481 588 501 552 q 420 638 461 623 q 313 653 380 653 q 213 645 267 653 q 109 620 159 637 l 109 734 q 219 759 158 750 q 335 767 280 767 m 333 94 q 423 113 379 94 q 501 172 467 132 l 501 351 l 356 336 q 239 297 275 328 q 202 211 202 267 q 235 124 202 153 q 333 94 268 94 m 323 1109 q 343 1152 324 1137 q 394 1181 361 1167 q 428 1198 417 1191 q 439 1217 439 1206 q 420 1239 439 1232 q 359 1247 402 1247 q 224 1226 292 1247 l 224 1284 q 291 1299 252 1293 q 369 1304 330 1304 q 485 1284 447 1304 q 522 1225 522 1263 q 506 1185 522 1199 q 458 1156 489 1170 q 420 1134 433 1144 q 405 1109 407 1124 l 323 1109 m 365 874 q 203 932 262 874 q 138 1092 145 990 l 231 1092 q 270 987 238 1022 q 365 952 303 952 q 459 987 427 952 q 497 1092 491 1022 l 590 1092 q 525 931 583 988 q 365 874 467 874 z "},"ẵ":{"ha":733,"x_min":58,"x_max":642,"o":"m 335 767 q 509 740 442 767 q 609 651 576 713 q 642 481 642 588 l 642 0 l 522 0 l 512 82 l 503 82 q 413 12 468 36 q 291 -12 357 -12 q 166 13 219 -12 q 86 86 114 38 q 58 197 58 133 q 126 356 58 300 q 344 425 195 413 l 501 441 l 501 489 q 481 588 501 552 q 420 638 461 623 q 313 653 380 653 q 213 645 267 653 q 109 620 159 637 l 109 734 q 219 759 158 750 q 335 767 280 767 m 333 94 q 423 113 379 94 q 501 172 467 132 l 501 351 l 356 336 q 239 297 275 328 q 202 211 202 267 q 235 124 202 153 q 333 94 268 94 m 472 1142 q 418 1148 443 1142 q 353 1168 392 1154 q 299 1186 322 1180 q 253 1192 276 1192 q 188 1181 217 1192 q 129 1145 158 1169 l 129 1228 q 256 1272 176 1272 q 310 1266 285 1272 q 375 1246 335 1260 q 429 1228 406 1234 q 474 1222 451 1222 q 540 1233 511 1222 q 599 1269 569 1244 l 599 1185 q 472 1142 551 1142 m 365 874 q 203 932 262 874 q 138 1092 145 990 l 231 1092 q 270 987 238 1022 q 365 952 303 952 q 459 987 427 952 q 497 1092 491 1022 l 590 1092 q 525 931 583 988 q 365 874 467 874 z "},"â":{"ha":733,"x_min":58,"x_max":642,"o":"m 335 767 q 509 740 442 767 q 609 651 576 713 q 642 481 642 588 l 642 0 l 522 0 l 512 82 l 503 82 q 413 12 468 36 q 291 -12 357 -12 q 166 13 219 -12 q 86 86 114 38 q 58 197 58 133 q 126 356 58 300 q 344 425 195 413 l 501 441 l 501 489 q 481 588 501 552 q 420 638 461 623 q 313 653 380 653 q 213 645 267 653 q 109 620 159 637 l 109 734 q 219 759 158 750 q 335 767 280 767 m 333 94 q 423 113 379 94 q 501 172 467 132 l 501 351 l 356 336 q 239 297 275 328 q 202 211 202 267 q 235 124 202 153 q 333 94 268 94 m 583 866 l 474 866 l 364 1051 l 254 866 l 144 866 l 301 1122 l 426 1122 l 583 866 z "},"ấ":{"ha":733,"x_min":58,"x_max":768,"o":"m 335 767 q 509 740 442 767 q 609 651 576 713 q 642 481 642 588 l 642 0 l 522 0 l 512 82 l 503 82 q 413 12 468 36 q 291 -12 357 -12 q 166 13 219 -12 q 86 86 114 38 q 58 197 58 133 q 126 356 58 300 q 344 425 195 413 l 501 441 l 501 489 q 481 588 501 552 q 420 638 461 623 q 313 653 380 653 q 213 645 267 653 q 109 620 159 637 l 109 734 q 219 759 158 750 q 335 767 280 767 m 333 94 q 423 113 379 94 q 501 172 467 132 l 501 351 l 356 336 q 239 297 275 328 q 202 211 202 267 q 235 124 202 153 q 333 94 268 94 m 639 1297 l 768 1297 l 621 1109 l 515 1109 l 639 1297 m 301 1122 l 426 1122 l 583 866 l 474 866 l 364 1051 l 254 866 l 144 866 l 301 1122 z "},"ậ":{"ha":733,"x_min":58,"x_max":642,"o":"m 335 767 q 509 740 442 767 q 609 651 576 713 q 642 481 642 588 l 642 0 l 522 0 l 512 82 l 503 82 q 413 12 468 36 q 291 -12 357 -12 q 166 13 219 -12 q 86 86 114 38 q 58 197 58 133 q 126 356 58 300 q 344 425 195 413 l 501 441 l 501 489 q 481 588 501 552 q 420 638 461 623 q 313 653 380 653 q 213 645 267 653 q 109 620 159 637 l 109 734 q 219 759 158 750 q 335 767 280 767 m 333 94 q 423 113 379 94 q 501 172 467 132 l 501 351 l 356 336 q 239 297 275 328 q 202 211 202 267 q 235 124 202 153 q 333 94 268 94 m 370 -267 q 307 -246 330 -267 q 284 -187 284 -224 q 307 -127 284 -149 q 370 -106 330 -106 q 433 -127 410 -106 q 456 -187 456 -149 q 433 -246 456 -224 q 370 -267 410 -267 m 583 866 l 474 866 l 364 1051 l 254 866 l 144 866 l 301 1122 l 426 1122 l 583 866 z "},"ầ":{"ha":733,"x_min":58,"x_max":642,"o":"m 335 767 q 509 740 442 767 q 609 651 576 713 q 642 481 642 588 l 642 0 l 522 0 l 512 82 l 503 82 q 413 12 468 36 q 291 -12 357 -12 q 166 13 219 -12 q 86 86 114 38 q 58 197 58 133 q 126 356 58 300 q 344 425 195 413 l 501 441 l 501 489 q 481 588 501 552 q 420 638 461 623 q 313 653 380 653 q 213 645 267 653 q 109 620 159 637 l 109 734 q 219 759 158 750 q 335 767 280 767 m 333 94 q 423 113 379 94 q 501 172 467 132 l 501 351 l 356 336 q 239 297 275 328 q 202 211 202 267 q 235 124 202 153 q 333 94 268 94 m 638 1109 l 531 1109 l 384 1297 l 513 1297 l 638 1109 m 301 1122 l 426 1122 l 583 866 l 474 866 l 364 1051 l 254 866 l 144 866 l 301 1122 z "},"ẩ":{"ha":733,"x_min":58,"x_max":705,"o":"m 335 767 q 509 740 442 767 q 609 651 576 713 q 642 481 642 588 l 642 0 l 522 0 l 512 82 l 503 82 q 413 12 468 36 q 291 -12 357 -12 q 166 13 219 -12 q 86 86 114 38 q 58 197 58 133 q 126 356 58 300 q 344 425 195 413 l 501 441 l 501 489 q 481 588 501 552 q 420 638 461 623 q 313 653 380 653 q 213 645 267 653 q 109 620 159 637 l 109 734 q 219 759 158 750 q 335 767 280 767 m 333 94 q 423 113 379 94 q 501 172 467 132 l 501 351 l 356 336 q 239 297 275 328 q 202 211 202 267 q 235 124 202 153 q 333 94 268 94 m 556 1304 q 705 1225 705 1304 q 690 1187 705 1200 q 644 1158 674 1174 q 605 1136 619 1147 q 590 1109 592 1126 l 511 1109 q 532 1154 513 1138 q 582 1183 550 1169 q 613 1199 603 1192 q 623 1217 623 1206 q 605 1240 623 1232 q 547 1247 588 1247 q 415 1227 477 1247 l 415 1284 q 480 1299 442 1293 q 556 1304 518 1304 m 301 1122 l 426 1122 l 583 866 l 474 866 l 364 1051 l 254 866 l 144 866 l 301 1122 z "},"ẫ":{"ha":733,"x_min":58,"x_max":642,"o":"m 335 767 q 509 740 442 767 q 609 651 576 713 q 642 481 642 588 l 642 0 l 522 0 l 512 82 l 503 82 q 413 12 468 36 q 291 -12 357 -12 q 166 13 219 -12 q 86 86 114 38 q 58 197 58 133 q 126 356 58 300 q 344 425 195 413 l 501 441 l 501 489 q 481 588 501 552 q 420 638 461 623 q 313 653 380 653 q 213 645 267 653 q 109 620 159 637 l 109 734 q 219 759 158 750 q 335 767 280 767 m 333 94 q 423 113 379 94 q 501 172 467 132 l 501 351 l 356 336 q 239 297 275 328 q 202 211 202 267 q 235 124 202 153 q 333 94 268 94 m 473 1222 q 538 1233 510 1222 q 595 1269 567 1244 l 595 1185 q 471 1142 549 1142 q 416 1148 442 1142 q 353 1168 391 1155 q 300 1186 323 1180 q 255 1192 278 1192 q 190 1181 219 1192 q 133 1145 161 1169 l 133 1228 q 186 1261 156 1251 q 257 1272 217 1272 q 312 1265 286 1272 q 376 1245 338 1258 q 429 1228 408 1233 q 473 1222 451 1222 m 300 1101 l 428 1101 l 591 866 l 477 866 l 364 1039 l 251 866 l 137 866 l 300 1101 z "},"ȁ":{"ha":733,"x_min":58,"x_max":642,"o":"m 335 767 q 509 740 442 767 q 609 651 576 713 q 642 481 642 588 l 642 0 l 522 0 l 512 82 l 503 82 q 413 12 468 36 q 291 -12 357 -12 q 166 13 219 -12 q 86 86 114 38 q 58 197 58 133 q 126 356 58 300 q 344 425 195 413 l 501 441 l 501 489 q 481 588 501 552 q 420 638 461 623 q 313 653 380 653 q 213 645 267 653 q 109 620 159 637 l 109 734 q 219 759 158 750 q 335 767 280 767 m 333 94 q 423 113 379 94 q 501 172 467 132 l 501 351 l 356 336 q 239 297 275 328 q 202 211 202 267 q 235 124 202 153 q 333 94 268 94 m 184 866 l 76 1122 l 197 1122 l 295 866 l 184 866 m 433 866 l 325 1122 l 445 1122 l 544 866 l 433 866 z "},"ä":{"ha":733,"x_min":58,"x_max":642,"o":"m 335 767 q 509 740 442 767 q 609 651 576 713 q 642 481 642 588 l 642 0 l 522 0 l 512 82 l 503 82 q 413 12 468 36 q 291 -12 357 -12 q 166 13 219 -12 q 86 86 114 38 q 58 197 58 133 q 126 356 58 300 q 344 425 195 413 l 501 441 l 501 489 q 481 588 501 552 q 420 638 461 623 q 313 653 380 653 q 213 645 267 653 q 109 620 159 637 l 109 734 q 219 759 158 750 q 335 767 280 767 m 333 94 q 423 113 379 94 q 501 172 467 132 l 501 351 l 356 336 q 239 297 275 328 q 202 211 202 267 q 235 124 202 153 q 333 94 268 94 m 207 905 q 144 926 167 905 q 121 986 121 948 q 144 1047 121 1025 q 207 1069 167 1069 q 270 1047 247 1069 q 293 986 293 1024 q 270 926 293 948 q 207 905 247 905 m 521 905 q 458 926 481 905 q 435 986 435 948 q 458 1047 435 1025 q 521 1069 481 1069 q 584 1047 561 1069 q 607 986 607 1025 q 584 926 607 948 q 521 905 561 905 z "},"ạ":{"ha":733,"x_min":58,"x_max":642,"o":"m 335 767 q 509 740 442 767 q 609 651 576 713 q 642 481 642 588 l 642 0 l 522 0 l 512 82 l 503 82 q 413 12 468 36 q 291 -12 357 -12 q 166 13 219 -12 q 86 86 114 38 q 58 197 58 133 q 126 356 58 300 q 344 425 195 413 l 501 441 l 501 489 q 481 588 501 552 q 420 638 461 623 q 313 653 380 653 q 213 645 267 653 q 109 620 159 637 l 109 734 q 219 759 158 750 q 335 767 280 767 m 333 94 q 423 113 379 94 q 501 172 467 132 l 501 351 l 356 336 q 239 297 275 328 q 202 211 202 267 q 235 124 202 153 q 333 94 268 94 m 370 -267 q 307 -246 330 -267 q 284 -187 284 -224 q 307 -127 284 -149 q 370 -106 330 -106 q 433 -127 410 -106 q 456 -187 456 -149 q 433 -246 456 -224 q 370 -267 410 -267 z "},"à":{"ha":733,"x_min":58,"x_max":642,"o":"m 335 767 q 509 740 442 767 q 609 651 576 713 q 642 481 642 588 l 642 0 l 522 0 l 512 82 l 503 82 q 413 12 468 36 q 291 -12 357 -12 q 166 13 219 -12 q 86 86 114 38 q 58 197 58 133 q 126 356 58 300 q 344 425 195 413 l 501 441 l 501 489 q 481 588 501 552 q 420 638 461 623 q 313 653 380 653 q 213 645 267 653 q 109 620 159 637 l 109 734 q 219 759 158 750 q 335 767 280 767 m 333 94 q 423 113 379 94 q 501 172 467 132 l 501 351 l 356 336 q 239 297 275 328 q 202 211 202 267 q 235 124 202 153 q 333 94 268 94 m 298 866 l 123 1122 l 278 1122 l 430 866 l 298 866 z "},"ả":{"ha":733,"x_min":58,"x_max":642,"o":"m 335 767 q 509 740 442 767 q 609 651 576 713 q 642 481 642 588 l 642 0 l 522 0 l 512 82 l 503 82 q 413 12 468 36 q 291 -12 357 -12 q 166 13 219 -12 q 86 86 114 38 q 58 197 58 133 q 126 356 58 300 q 344 425 195 413 l 501 441 l 501 489 q 481 588 501 552 q 420 638 461 623 q 313 653 380 653 q 213 645 267 653 q 109 620 159 637 l 109 734 q 219 759 158 750 q 335 767 280 767 m 333 94 q 423 113 379 94 q 501 172 467 132 l 501 351 l 356 336 q 239 297 275 328 q 202 211 202 267 q 235 124 202 153 q 333 94 268 94 m 324 866 q 334 913 324 893 q 357 944 344 932 q 391 971 370 956 q 422 997 413 987 q 431 1022 431 1008 q 413 1055 431 1044 q 353 1065 394 1065 q 242 1049 297 1065 l 242 1113 q 299 1126 266 1121 q 361 1131 332 1131 q 515 1031 515 1131 q 507 991 515 1008 q 488 964 499 975 q 457 940 476 953 q 419 906 431 921 q 405 866 406 890 l 324 866 z "},"ȃ":{"ha":733,"x_min":58,"x_max":642,"o":"m 335 767 q 509 740 442 767 q 609 651 576 713 q 642 481 642 588 l 642 0 l 522 0 l 512 82 l 503 82 q 413 12 468 36 q 291 -12 357 -12 q 166 13 219 -12 q 86 86 114 38 q 58 197 58 133 q 126 356 58 300 q 344 425 195 413 l 501 441 l 501 489 q 481 588 501 552 q 420 638 461 623 q 313 653 380 653 q 213 645 267 653 q 109 620 159 637 l 109 734 q 219 759 158 750 q 335 767 280 767 m 333 94 q 423 113 379 94 q 501 172 467 132 l 501 351 l 356 336 q 239 297 275 328 q 202 211 202 267 q 235 124 202 153 q 333 94 268 94 m 142 885 q 204 1058 147 999 q 363 1117 261 1117 q 522 1057 464 1117 q 585 885 581 997 l 492 885 q 363 1037 483 1037 q 271 999 302 1037 q 235 885 240 961 l 142 885 z "},"ā":{"ha":733,"x_min":58,"x_max":642,"o":"m 335 767 q 509 740 442 767 q 609 651 576 713 q 642 481 642 588 l 642 0 l 522 0 l 512 82 l 503 82 q 413 12 468 36 q 291 -12 357 -12 q 166 13 219 -12 q 86 86 114 38 q 58 197 58 133 q 126 356 58 300 q 344 425 195 413 l 501 441 l 501 489 q 481 588 501 552 q 420 638 461 623 q 313 653 380 653 q 213 645 267 653 q 109 620 159 637 l 109 734 q 219 759 158 750 q 335 767 280 767 m 333 94 q 423 113 379 94 q 501 172 467 132 l 501 351 l 356 336 q 239 297 275 328 q 202 211 202 267 q 235 124 202 153 q 333 94 268 94 m 139 941 l 139 1034 l 589 1034 l 589 941 l 139 941 z "},"ą":{"ha":733,"x_min":58,"x_max":690,"o":"m 593 -228 q 690 -203 640 -228 l 690 -269 q 578 -294 639 -294 q 460 -259 501 -294 q 418 -162 418 -224 q 443 -74 418 -114 q 522 1 467 -33 l 512 82 l 503 82 q 413 12 468 36 q 291 -12 357 -12 q 166 13 219 -12 q 86 86 114 38 q 58 197 58 133 q 126 356 58 300 q 344 425 195 413 l 501 441 l 501 489 q 481 588 501 552 q 420 638 461 623 q 313 653 380 653 q 213 645 267 653 q 109 620 159 637 l 109 734 q 219 759 158 750 q 335 767 280 767 q 509 740 442 767 q 609 651 576 713 q 642 481 642 588 l 642 0 q 537 -73 568 -37 q 506 -153 506 -109 q 529 -208 506 -188 q 593 -228 551 -228 m 333 94 q 423 113 379 94 q 501 172 467 132 l 501 351 l 356 336 q 239 297 275 328 q 202 211 202 267 q 235 124 202 153 q 333 94 268 94 z "},"å":{"ha":733,"x_min":58,"x_max":642,"o":"m 335 767 q 509 740 442 767 q 609 651 576 713 q 642 481 642 588 l 642 0 l 522 0 l 512 82 l 503 82 q 413 12 468 36 q 291 -12 357 -12 q 166 13 219 -12 q 86 86 114 38 q 58 197 58 133 q 126 356 58 300 q 344 425 195 413 l 501 441 l 501 489 q 481 588 501 552 q 420 638 461 623 q 313 653 380 653 q 213 645 267 653 q 109 620 159 637 l 109 734 q 219 759 158 750 q 335 767 280 767 m 333 94 q 423 113 379 94 q 501 172 467 132 l 501 351 l 356 336 q 239 297 275 328 q 202 211 202 267 q 235 124 202 153 q 333 94 268 94 m 364 863 q 292 880 324 863 q 242 929 260 898 q 224 1000 224 960 q 242 1071 224 1040 q 292 1120 260 1102 q 364 1138 324 1138 q 435 1120 403 1138 q 485 1071 467 1102 q 503 1000 503 1040 q 485 929 503 960 q 435 880 467 898 q 364 863 403 863 m 364 922 q 419 943 398 922 q 440 1000 440 965 q 419 1057 440 1035 q 364 1078 398 1078 q 309 1057 330 1078 q 288 1000 288 1035 q 309 943 288 965 q 364 922 330 922 z "},"ǻ":{"ha":733,"x_min":58,"x_max":642,"o":"m 335 767 q 509 740 442 767 q 609 651 576 713 q 642 481 642 588 l 642 0 l 522 0 l 512 82 l 503 82 q 413 12 468 36 q 291 -12 357 -12 q 166 13 219 -12 q 86 86 114 38 q 58 197 58 133 q 126 356 58 300 q 344 425 195 413 l 501 441 l 501 489 q 481 588 501 552 q 420 638 461 623 q 313 653 380 653 q 213 645 267 653 q 109 620 159 637 l 109 734 q 219 759 158 750 q 335 767 280 767 m 333 94 q 423 113 379 94 q 501 172 467 132 l 501 351 l 356 336 q 239 297 275 328 q 202 211 202 267 q 235 124 202 153 q 333 94 268 94 m 478 1081 q 503 1000 503 1047 q 485 929 503 960 q 435 880 467 898 q 364 863 403 863 q 292 880 324 863 q 242 929 260 898 q 224 1000 224 960 q 242 1071 224 1040 q 292 1120 260 1102 q 364 1138 324 1138 q 413 1130 389 1138 l 499 1236 l 614 1236 l 478 1081 m 364 922 q 419 943 398 922 q 440 1000 440 965 q 419 1057 440 1035 q 364 1078 398 1078 q 309 1057 330 1078 q 288 1000 288 1035 q 309 943 288 965 q 364 922 330 922 z "},"ã":{"ha":733,"x_min":58,"x_max":642,"o":"m 335 767 q 509 740 442 767 q 609 651 576 713 q 642 481 642 588 l 642 0 l 522 0 l 512 82 l 503 82 q 413 12 468 36 q 291 -12 357 -12 q 166 13 219 -12 q 86 86 114 38 q 58 197 58 133 q 126 356 58 300 q 344 425 195 413 l 501 441 l 501 489 q 481 588 501 552 q 420 638 461 623 q 313 653 380 653 q 213 645 267 653 q 109 620 159 637 l 109 734 q 219 759 158 750 q 335 767 280 767 m 333 94 q 423 113 379 94 q 501 172 467 132 l 501 351 l 356 336 q 239 297 275 328 q 202 211 202 267 q 235 124 202 153 q 333 94 268 94 m 467 922 q 413 930 439 922 q 353 953 388 938 q 301 974 322 967 q 259 981 280 981 q 195 967 224 981 q 139 926 167 954 l 139 1024 q 261 1072 185 1072 q 315 1064 289 1072 q 376 1041 340 1056 q 428 1020 408 1027 q 469 1014 448 1014 q 533 1027 504 1014 q 589 1068 561 1040 l 589 970 q 467 922 542 922 z "},"æ":{"ha":1163,"x_min":58,"x_max":1113,"o":"m 1113 333 l 643 333 q 672 197 646 248 q 751 124 699 147 q 887 101 803 101 q 1074 129 967 101 l 1074 15 q 869 -14 967 -14 q 685 17 760 -14 q 566 113 610 48 q 444 16 510 44 q 303 -12 378 -12 q 171 13 226 -12 q 87 85 116 38 q 58 198 58 133 q 131 364 58 303 q 358 424 203 424 l 502 424 l 502 490 q 482 588 502 552 q 420 638 461 624 q 313 653 379 653 q 214 645 267 653 q 110 620 160 637 l 110 734 q 218 759 160 750 q 331 767 276 767 q 493 740 430 767 q 588 653 556 713 q 684 739 626 710 q 818 767 742 767 q 1036 669 959 767 q 1113 375 1113 571 l 1113 333 m 811 669 q 688 612 731 669 q 642 424 645 555 l 976 424 q 932 612 974 556 q 811 669 891 669 m 335 94 q 526 197 451 94 q 503 335 506 258 l 368 335 q 241 302 281 335 q 202 210 202 269 q 236 124 202 153 q 335 94 269 94 z "},"ǽ":{"ha":1163,"x_min":58,"x_max":1113,"o":"m 1113 333 l 643 333 q 672 197 646 248 q 751 124 699 147 q 887 101 803 101 q 1074 129 967 101 l 1074 15 q 869 -14 967 -14 q 685 17 760 -14 q 566 113 610 48 q 444 16 510 44 q 303 -12 378 -12 q 171 13 226 -12 q 87 85 116 38 q 58 198 58 133 q 131 364 58 303 q 358 424 203 424 l 502 424 l 502 490 q 482 588 502 552 q 420 638 461 624 q 313 653 379 653 q 214 645 267 653 q 110 620 160 637 l 110 734 q 218 759 160 750 q 331 767 276 767 q 493 740 430 767 q 588 653 556 713 q 684 739 626 710 q 818 767 742 767 q 1036 669 959 767 q 1113 375 1113 571 l 1113 333 m 811 669 q 688 612 731 669 q 642 424 645 555 l 976 424 q 932 612 974 556 q 811 669 891 669 m 335 94 q 526 197 451 94 q 503 335 506 258 l 368 335 q 241 302 281 335 q 202 210 202 269 q 236 124 202 153 q 335 94 269 94 m 508 866 l 660 1122 l 815 1122 l 640 866 l 508 866 z "},"b":{"ha":805,"x_min":98,"x_max":745,"o":"m 351 -13 q 219 -4 285 -13 q 98 24 153 6 l 98 1122 l 242 1122 l 242 678 l 250 678 q 338 744 285 720 q 455 767 390 767 q 603 728 538 767 q 707 606 668 690 q 745 392 745 522 q 646 89 745 190 q 351 -13 547 -13 m 360 101 q 540 167 481 101 q 599 380 599 233 q 548 585 599 526 q 406 645 498 645 q 315 627 358 645 q 242 572 272 608 l 242 116 q 360 101 300 101 z "},"c":{"ha":625,"x_min":60,"x_max":597,"o":"m 411 -14 q 60 377 60 -14 q 156 672 60 577 q 438 767 252 767 q 597 749 524 767 l 597 629 q 456 647 523 647 q 317 620 371 647 q 236 535 263 594 q 210 380 210 476 q 265 170 210 234 q 433 107 320 107 q 597 136 505 107 l 597 17 q 411 -14 509 -14 z "},"ć":{"ha":625,"x_min":60,"x_max":602,"o":"m 411 -14 q 60 377 60 -14 q 156 672 60 577 q 438 767 252 767 q 597 749 524 767 l 597 629 q 456 647 523 647 q 317 620 371 647 q 236 535 263 594 q 210 380 210 476 q 265 170 210 234 q 433 107 320 107 q 597 136 505 107 l 597 17 q 411 -14 509 -14 m 295 866 l 447 1122 l 602 1122 l 427 866 l 295 866 z "},"č":{"ha":625,"x_min":60,"x_max":597,"o":"m 411 -14 q 60 377 60 -14 q 156 672 60 577 q 438 767 252 767 q 597 749 524 767 l 597 629 q 456 647 523 647 q 317 620 371 647 q 236 535 263 594 q 210 380 210 476 q 265 170 210 234 q 433 107 320 107 q 597 136 505 107 l 597 17 q 411 -14 509 -14 m 472 1122 l 583 1122 l 424 866 l 299 866 l 140 1122 l 250 1122 l 361 937 l 472 1122 z "},"ç":{"ha":625,"x_min":60,"x_max":597,"o":"m 456 647 q 317 620 371 647 q 236 535 263 594 q 210 380 210 476 q 265 170 210 234 q 433 107 320 107 q 597 136 505 107 l 597 17 q 411 -14 509 -14 l 410 -14 l 410 -69 q 491 -105 463 -76 q 519 -181 519 -134 q 480 -264 519 -234 q 367 -294 441 -294 q 302 -288 334 -294 q 246 -271 271 -282 l 246 -206 q 362 -231 301 -231 q 419 -217 400 -231 q 438 -175 438 -203 q 360 -119 438 -119 l 333 -119 l 333 -8 q 60 377 60 33 q 156 672 60 577 q 438 767 252 767 q 597 749 524 767 l 597 629 q 456 647 523 647 z "},"ḉ":{"ha":625,"x_min":60,"x_max":602,"o":"m 602 1122 l 427 866 l 295 866 l 447 1122 l 602 1122 m 60 377 q 156 672 60 577 q 438 767 252 767 q 597 749 524 767 l 597 629 q 456 647 523 647 q 317 620 371 647 q 236 535 263 594 q 210 380 210 476 q 265 170 210 234 q 433 107 320 107 q 597 136 505 107 l 597 17 q 411 -14 509 -14 l 410 -14 l 410 -69 q 491 -105 463 -76 q 519 -181 519 -134 q 480 -264 519 -234 q 367 -294 441 -294 q 302 -288 334 -294 q 246 -271 271 -282 l 246 -206 q 362 -231 301 -231 q 419 -217 400 -231 q 438 -175 438 -203 q 360 -119 438 -119 l 333 -119 l 333 -8 q 60 377 60 33 z "},"ĉ":{"ha":625,"x_min":60,"x_max":597,"o":"m 411 -14 q 60 377 60 -14 q 156 672 60 577 q 438 767 252 767 q 597 749 524 767 l 597 629 q 456 647 523 647 q 317 620 371 647 q 236 535 263 594 q 210 380 210 476 q 265 170 210 234 q 433 107 320 107 q 597 136 505 107 l 597 17 q 411 -14 509 -14 m 581 866 l 471 866 l 361 1051 l 251 866 l 142 866 l 299 1122 l 424 1122 l 581 866 z "},"ċ":{"ha":625,"x_min":60,"x_max":597,"o":"m 411 -14 q 60 377 60 -14 q 156 672 60 577 q 438 767 252 767 q 597 749 524 767 l 597 629 q 456 647 523 647 q 317 620 371 647 q 236 535 263 594 q 210 380 210 476 q 265 170 210 234 q 433 107 320 107 q 597 136 505 107 l 597 17 q 411 -14 509 -14 m 361 903 q 290 924 315 903 q 266 986 266 946 q 290 1049 266 1026 q 361 1071 315 1071 q 432 1049 408 1071 q 456 986 456 1026 q 432 924 456 946 q 361 903 408 903 z "},"d":{"ha":805,"x_min":60,"x_max":707,"o":"m 361 -13 q 207 26 274 -13 q 99 149 139 65 q 60 363 60 233 q 159 666 60 564 q 451 767 258 767 q 563 758 502 767 l 563 1122 l 707 1122 l 707 0 l 585 0 l 575 81 l 567 81 q 479 12 532 38 q 361 -13 426 -13 m 399 108 q 490 128 447 108 q 563 188 533 148 l 563 641 q 449 653 510 653 q 267 587 326 653 q 207 374 207 521 q 257 168 207 228 q 399 108 307 108 z "},"ð":{"ha":790,"x_min":60,"x_max":731,"o":"m 567 916 q 687 670 643 802 q 731 410 731 538 q 643 90 730 194 q 396 -14 556 -14 q 148 83 237 -14 q 60 376 60 179 q 146 668 60 572 q 384 765 233 765 q 524 728 465 765 q 431 892 488 813 l 138 841 l 122 926 l 368 969 q 200 1122 295 1051 l 374 1122 q 508 994 445 1070 l 696 1026 l 712 941 l 567 916 m 396 99 q 535 164 487 99 q 584 374 584 229 q 536 589 584 526 q 395 653 488 653 q 255 590 303 653 q 207 378 207 527 q 255 163 207 226 q 396 99 302 99 z "},"ď":{"ha":805,"x_min":60,"x_max":884,"o":"m 361 -13 q 207 26 274 -13 q 99 149 139 65 q 60 363 60 233 q 159 666 60 564 q 451 767 258 767 q 563 758 502 767 l 563 1122 l 707 1122 l 707 0 l 585 0 l 575 81 l 567 81 q 479 12 532 38 q 361 -13 426 -13 m 399 108 q 490 128 447 108 q 563 188 533 148 l 563 641 q 449 653 510 653 q 267 587 326 653 q 207 374 207 521 q 257 168 207 228 q 399 108 307 108 m 765 819 q 782 1122 782 947 l 884 1122 q 875 964 884 1043 q 847 819 865 885 l 765 819 z "},"đ":{"ha":805,"x_min":60,"x_max":801,"o":"m 801 892 l 707 892 l 707 0 l 585 0 l 575 81 l 567 81 q 479 12 532 38 q 361 -13 426 -13 q 207 26 274 -13 q 99 149 139 65 q 60 363 60 233 q 159 666 60 564 q 451 767 258 767 q 563 758 502 767 l 563 892 l 322 892 l 322 990 l 563 990 l 563 1122 l 707 1122 l 707 990 l 801 990 l 801 892 m 563 641 q 449 653 510 653 q 267 587 326 653 q 207 374 207 521 q 257 168 207 228 q 399 108 307 108 q 490 128 447 108 q 563 188 533 148 l 563 641 z "},"ḍ":{"ha":805,"x_min":60,"x_max":707,"o":"m 361 -13 q 207 26 274 -13 q 99 149 139 65 q 60 363 60 233 q 159 666 60 564 q 451 767 258 767 q 563 758 502 767 l 563 1122 l 707 1122 l 707 0 l 585 0 l 575 81 l 567 81 q 479 12 532 38 q 361 -13 426 -13 m 399 108 q 490 128 447 108 q 563 188 533 148 l 563 641 q 449 653 510 653 q 267 587 326 653 q 207 374 207 521 q 257 168 207 228 q 399 108 307 108 m 405 -267 q 342 -246 365 -267 q 319 -187 319 -224 q 342 -127 319 -149 q 405 -106 365 -106 q 468 -127 445 -106 q 491 -187 491 -149 q 468 -246 491 -224 q 405 -267 445 -267 z "},"ḏ":{"ha":805,"x_min":60,"x_max":707,"o":"m 361 -13 q 207 26 274 -13 q 99 149 139 65 q 60 363 60 233 q 159 666 60 564 q 451 767 258 767 q 563 758 502 767 l 563 1122 l 707 1122 l 707 0 l 585 0 l 575 81 l 567 81 q 479 12 532 38 q 361 -13 426 -13 m 399 108 q 490 128 447 108 q 563 188 533 148 l 563 641 q 449 653 510 653 q 267 587 326 653 q 207 374 207 521 q 257 168 207 228 q 399 108 307 108 m 194 -233 l 194 -140 l 616 -140 l 616 -233 l 194 -233 z "},"ǳ":{"ha":1461,"x_min":60,"x_max":1425,"o":"m 361 -13 q 207 26 274 -13 q 99 149 139 65 q 60 363 60 233 q 159 666 60 564 q 451 767 258 767 q 563 758 502 767 l 563 1122 l 707 1122 l 707 0 l 585 0 l 575 81 l 567 81 q 479 12 532 38 q 361 -13 426 -13 m 399 108 q 490 128 447 108 q 563 188 533 148 l 563 641 q 449 653 510 653 q 267 587 326 653 q 207 374 207 521 q 257 168 207 228 q 399 108 307 108 m 1027 117 l 1425 117 l 1425 0 l 849 0 l 849 90 l 1238 639 l 856 639 l 856 756 l 1417 756 l 1417 665 l 1027 117 z "},"ǆ":{"ha":1461,"x_min":60,"x_max":1425,"o":"m 361 -13 q 207 26 274 -13 q 99 149 139 65 q 60 363 60 233 q 159 666 60 564 q 451 767 258 767 q 563 758 502 767 l 563 1122 l 707 1122 l 707 0 l 585 0 l 575 81 l 567 81 q 479 12 532 38 q 361 -13 426 -13 m 399 108 q 490 128 447 108 q 563 188 533 148 l 563 641 q 449 653 510 653 q 267 587 326 653 q 207 374 207 521 q 257 168 207 228 q 399 108 307 108 m 1027 117 l 1425 117 l 1425 0 l 849 0 l 849 90 l 1238 639 l 856 639 l 856 756 l 1417 756 l 1417 665 l 1027 117 m 1248 1122 l 1358 1122 l 1199 866 l 1074 866 l 915 1122 l 1026 1122 l 1137 937 l 1248 1122 z "},"e":{"ha":731,"x_min":60,"x_max":681,"o":"m 681 333 l 206 333 q 236 197 209 248 q 315 124 263 147 q 453 101 368 101 q 643 129 535 101 l 643 15 q 435 -14 533 -14 q 152 80 244 -14 q 60 378 60 174 q 143 669 60 570 q 379 767 227 767 q 604 669 526 767 q 681 374 681 571 l 681 333 m 378 668 q 252 611 295 668 q 206 424 208 555 l 545 424 q 501 611 542 555 q 378 668 460 668 z "},"é":{"ha":731,"x_min":60,"x_max":681,"o":"m 681 333 l 206 333 q 236 197 209 248 q 315 124 263 147 q 453 101 368 101 q 643 129 535 101 l 643 15 q 435 -14 533 -14 q 152 80 244 -14 q 60 378 60 174 q 143 669 60 570 q 379 767 227 767 q 604 669 526 767 q 681 374 681 571 l 681 333 m 378 668 q 252 611 295 668 q 206 424 208 555 l 545 424 q 501 611 542 555 q 378 668 460 668 m 311 866 l 463 1122 l 618 1122 l 443 866 l 311 866 z "},"ĕ":{"ha":731,"x_min":60,"x_max":681,"o":"m 681 333 l 206 333 q 236 197 209 248 q 315 124 263 147 q 453 101 368 101 q 643 129 535 101 l 643 15 q 435 -14 533 -14 q 152 80 244 -14 q 60 378 60 174 q 143 669 60 570 q 379 767 227 767 q 604 669 526 767 q 681 374 681 571 l 681 333 m 378 668 q 252 611 295 668 q 206 424 208 555 l 545 424 q 501 611 542 555 q 378 668 460 668 m 378 873 q 218 933 276 873 q 156 1105 160 993 l 249 1105 q 285 992 253 1030 q 378 953 317 953 q 470 991 439 953 q 506 1105 501 1029 l 599 1105 q 536 933 594 992 q 378 873 479 873 z "},"ě":{"ha":731,"x_min":60,"x_max":681,"o":"m 681 333 l 206 333 q 236 197 209 248 q 315 124 263 147 q 453 101 368 101 q 643 129 535 101 l 643 15 q 435 -14 533 -14 q 152 80 244 -14 q 60 378 60 174 q 143 669 60 570 q 379 767 227 767 q 604 669 526 767 q 681 374 681 571 l 681 333 m 378 668 q 252 611 295 668 q 206 424 208 555 l 545 424 q 501 611 542 555 q 378 668 460 668 m 488 1122 l 599 1122 l 440 866 l 315 866 l 156 1122 l 266 1122 l 377 937 l 488 1122 z "},"ḝ":{"ha":731,"x_min":60,"x_max":681,"o":"m 378 873 q 218 933 276 873 q 156 1105 160 993 l 249 1105 q 285 992 253 1030 q 378 953 317 953 q 470 991 439 953 q 506 1105 501 1029 l 599 1105 q 536 933 594 992 q 378 873 479 873 m 681 333 l 206 333 q 236 197 209 248 q 315 124 263 147 q 453 101 368 101 q 643 129 535 101 l 643 15 q 435 -14 533 -14 l 420 -14 l 420 -69 q 502 -105 474 -76 q 530 -181 530 -134 q 491 -264 530 -234 q 377 -294 451 -294 q 313 -288 344 -294 q 256 -271 281 -282 l 256 -206 q 372 -231 311 -231 q 429 -217 410 -231 q 448 -175 448 -203 q 371 -119 448 -119 l 343 -119 l 343 -8 q 130 107 200 13 q 60 378 60 200 q 143 669 60 570 q 379 767 227 767 q 604 669 526 767 q 681 374 681 571 l 681 333 m 378 668 q 252 611 295 668 q 206 424 208 555 l 545 424 q 501 611 542 555 q 378 668 460 668 z "},"ê":{"ha":731,"x_min":60,"x_max":681,"o":"m 681 333 l 206 333 q 236 197 209 248 q 315 124 263 147 q 453 101 368 101 q 643 129 535 101 l 643 15 q 435 -14 533 -14 q 152 80 244 -14 q 60 378 60 174 q 143 669 60 570 q 379 767 227 767 q 604 669 526 767 q 681 374 681 571 l 681 333 m 378 668 q 252 611 295 668 q 206 424 208 555 l 545 424 q 501 611 542 555 q 378 668 460 668 m 597 866 l 487 866 l 377 1051 l 267 866 l 158 866 l 315 1122 l 440 1122 l 597 866 z "},"ế":{"ha":731,"x_min":60,"x_max":781,"o":"m 681 333 l 206 333 q 236 197 209 248 q 315 124 263 147 q 453 101 368 101 q 643 129 535 101 l 643 15 q 435 -14 533 -14 q 152 80 244 -14 q 60 378 60 174 q 143 669 60 570 q 379 767 227 767 q 604 669 526 767 q 681 374 681 571 l 681 333 m 378 668 q 252 611 295 668 q 206 424 208 555 l 545 424 q 501 611 542 555 q 378 668 460 668 m 652 1297 l 781 1297 l 634 1109 l 528 1109 l 652 1297 m 315 1122 l 440 1122 l 597 866 l 487 866 l 377 1051 l 267 866 l 158 866 l 315 1122 z "},"ệ":{"ha":731,"x_min":60,"x_max":681,"o":"m 681 333 l 206 333 q 236 197 209 248 q 315 124 263 147 q 453 101 368 101 q 643 129 535 101 l 643 15 q 435 -14 533 -14 q 152 80 244 -14 q 60 378 60 174 q 143 669 60 570 q 379 767 227 767 q 604 669 526 767 q 681 374 681 571 l 681 333 m 378 668 q 252 611 295 668 q 206 424 208 555 l 545 424 q 501 611 542 555 q 378 668 460 668 m 377 -267 q 314 -246 337 -267 q 291 -187 291 -224 q 314 -127 291 -149 q 377 -106 337 -106 q 440 -127 417 -106 q 463 -187 463 -149 q 440 -246 463 -224 q 377 -267 417 -267 m 597 866 l 487 866 l 377 1051 l 267 866 l 158 866 l 315 1122 l 440 1122 l 597 866 z "},"ề":{"ha":731,"x_min":60,"x_max":681,"o":"m 681 333 l 206 333 q 236 197 209 248 q 315 124 263 147 q 453 101 368 101 q 643 129 535 101 l 643 15 q 435 -14 533 -14 q 152 80 244 -14 q 60 378 60 174 q 143 669 60 570 q 379 767 227 767 q 604 669 526 767 q 681 374 681 571 l 681 333 m 378 668 q 252 611 295 668 q 206 424 208 555 l 545 424 q 501 611 542 555 q 378 668 460 668 m 651 1109 l 544 1109 l 397 1297 l 526 1297 l 651 1109 m 315 1122 l 440 1122 l 597 866 l 487 866 l 377 1051 l 267 866 l 158 866 l 315 1122 z "},"ể":{"ha":731,"x_min":60,"x_max":718,"o":"m 681 333 l 206 333 q 236 197 209 248 q 315 124 263 147 q 453 101 368 101 q 643 129 535 101 l 643 15 q 435 -14 533 -14 q 152 80 244 -14 q 60 378 60 174 q 143 669 60 570 q 379 767 227 767 q 604 669 526 767 q 681 374 681 571 l 681 333 m 378 668 q 252 611 295 668 q 206 424 208 555 l 545 424 q 501 611 542 555 q 378 668 460 668 m 569 1304 q 718 1225 718 1304 q 703 1187 718 1200 q 657 1158 688 1174 q 618 1136 632 1147 q 603 1109 605 1126 l 524 1109 q 545 1154 526 1138 q 595 1183 563 1169 q 626 1199 617 1192 q 636 1217 636 1206 q 618 1240 636 1232 q 560 1247 601 1247 q 428 1227 490 1247 l 428 1284 q 493 1299 455 1293 q 569 1304 531 1304 m 315 1122 l 440 1122 l 597 866 l 487 866 l 377 1051 l 267 866 l 158 866 l 315 1122 z "},"ễ":{"ha":731,"x_min":60,"x_max":681,"o":"m 681 333 l 206 333 q 236 197 209 248 q 315 124 263 147 q 453 101 368 101 q 643 129 535 101 l 643 15 q 435 -14 533 -14 q 152 80 244 -14 q 60 378 60 174 q 143 669 60 570 q 379 767 227 767 q 604 669 526 767 q 681 374 681 571 l 681 333 m 378 668 q 252 611 295 668 q 206 424 208 555 l 545 424 q 501 611 542 555 q 378 668 460 668 m 486 1222 q 551 1233 523 1222 q 608 1269 580 1244 l 608 1185 q 484 1142 563 1142 q 430 1148 455 1142 q 366 1168 404 1155 q 314 1186 336 1180 q 268 1192 291 1192 q 203 1181 232 1192 q 146 1145 174 1169 l 146 1228 q 200 1261 169 1251 q 270 1272 230 1272 q 325 1265 299 1272 q 389 1245 351 1258 q 442 1228 421 1233 q 486 1222 464 1222 m 313 1101 l 442 1101 l 604 866 l 490 866 l 377 1039 l 264 866 l 150 866 l 313 1101 z "},"ȅ":{"ha":731,"x_min":60,"x_max":681,"o":"m 681 333 l 206 333 q 236 197 209 248 q 315 124 263 147 q 453 101 368 101 q 643 129 535 101 l 643 15 q 435 -14 533 -14 q 152 80 244 -14 q 60 378 60 174 q 143 669 60 570 q 379 767 227 767 q 604 669 526 767 q 681 374 681 571 l 681 333 m 378 668 q 252 611 295 668 q 206 424 208 555 l 545 424 q 501 611 542 555 q 378 668 460 668 m 197 866 l 90 1122 l 210 1122 l 308 866 l 197 866 m 446 866 l 338 1122 l 458 1122 l 557 866 l 446 866 z "},"ë":{"ha":731,"x_min":60,"x_max":681,"o":"m 681 333 l 206 333 q 236 197 209 248 q 315 124 263 147 q 453 101 368 101 q 643 129 535 101 l 643 15 q 435 -14 533 -14 q 152 80 244 -14 q 60 378 60 174 q 143 669 60 570 q 379 767 227 767 q 604 669 526 767 q 681 374 681 571 l 681 333 m 378 668 q 252 611 295 668 q 206 424 208 555 l 545 424 q 501 611 542 555 q 378 668 460 668 m 220 905 q 157 926 180 905 q 134 986 134 948 q 157 1047 134 1025 q 220 1069 180 1069 q 283 1047 260 1069 q 306 986 306 1024 q 283 926 306 948 q 220 905 260 905 m 534 905 q 471 926 494 905 q 449 986 449 948 q 471 1047 449 1025 q 534 1069 494 1069 q 597 1047 574 1069 q 620 986 620 1025 q 597 926 620 948 q 534 905 574 905 z "},"ė":{"ha":731,"x_min":60,"x_max":681,"o":"m 681 333 l 206 333 q 236 197 209 248 q 315 124 263 147 q 453 101 368 101 q 643 129 535 101 l 643 15 q 435 -14 533 -14 q 152 80 244 -14 q 60 378 60 174 q 143 669 60 570 q 379 767 227 767 q 604 669 526 767 q 681 374 681 571 l 681 333 m 378 668 q 252 611 295 668 q 206 424 208 555 l 545 424 q 501 611 542 555 q 378 668 460 668 m 377 903 q 306 924 331 903 q 282 986 282 946 q 306 1049 282 1026 q 377 1071 331 1071 q 448 1049 424 1071 q 472 986 472 1026 q 448 924 472 946 q 377 903 424 903 z "},"ẹ":{"ha":731,"x_min":60,"x_max":681,"o":"m 681 333 l 206 333 q 236 197 209 248 q 315 124 263 147 q 453 101 368 101 q 643 129 535 101 l 643 15 q 435 -14 533 -14 q 152 80 244 -14 q 60 378 60 174 q 143 669 60 570 q 379 767 227 767 q 604 669 526 767 q 681 374 681 571 l 681 333 m 378 668 q 252 611 295 668 q 206 424 208 555 l 545 424 q 501 611 542 555 q 378 668 460 668 m 377 -267 q 314 -246 337 -267 q 291 -187 291 -224 q 314 -127 291 -149 q 377 -106 337 -106 q 440 -127 417 -106 q 463 -187 463 -149 q 440 -246 463 -224 q 377 -267 417 -267 z "},"è":{"ha":731,"x_min":60,"x_max":681,"o":"m 681 333 l 206 333 q 236 197 209 248 q 315 124 263 147 q 453 101 368 101 q 643 129 535 101 l 643 15 q 435 -14 533 -14 q 152 80 244 -14 q 60 378 60 174 q 143 669 60 570 q 379 767 227 767 q 604 669 526 767 q 681 374 681 571 l 681 333 m 378 668 q 252 611 295 668 q 206 424 208 555 l 545 424 q 501 611 542 555 q 378 668 460 668 m 311 866 l 136 1122 l 291 1122 l 443 866 l 311 866 z "},"ẻ":{"ha":731,"x_min":60,"x_max":681,"o":"m 681 333 l 206 333 q 236 197 209 248 q 315 124 263 147 q 453 101 368 101 q 643 129 535 101 l 643 15 q 435 -14 533 -14 q 152 80 244 -14 q 60 378 60 174 q 143 669 60 570 q 379 767 227 767 q 604 669 526 767 q 681 374 681 571 l 681 333 m 378 668 q 252 611 295 668 q 206 424 208 555 l 545 424 q 501 611 542 555 q 378 668 460 668 m 337 866 q 348 913 338 893 q 370 944 358 932 q 404 971 383 956 q 435 997 426 987 q 444 1022 444 1008 q 426 1055 444 1044 q 367 1065 407 1065 q 256 1049 310 1065 l 256 1113 q 312 1126 279 1121 q 374 1131 345 1131 q 528 1031 528 1131 q 520 991 528 1008 q 501 964 512 975 q 470 940 490 953 q 432 906 444 921 q 418 866 419 890 l 337 866 z "},"ȇ":{"ha":731,"x_min":60,"x_max":681,"o":"m 681 333 l 206 333 q 236 197 209 248 q 315 124 263 147 q 453 101 368 101 q 643 129 535 101 l 643 15 q 435 -14 533 -14 q 152 80 244 -14 q 60 378 60 174 q 143 669 60 570 q 379 767 227 767 q 604 669 526 767 q 681 374 681 571 l 681 333 m 378 668 q 252 611 295 668 q 206 424 208 555 l 545 424 q 501 611 542 555 q 378 668 460 668 m 156 885 q 217 1058 160 999 q 376 1117 274 1117 q 535 1057 477 1117 q 599 885 594 997 l 506 885 q 376 1037 496 1037 q 284 999 315 1037 q 249 885 253 961 l 156 885 z "},"ē":{"ha":731,"x_min":60,"x_max":681,"o":"m 681 333 l 206 333 q 236 197 209 248 q 315 124 263 147 q 453 101 368 101 q 643 129 535 101 l 643 15 q 435 -14 533 -14 q 152 80 244 -14 q 60 378 60 174 q 143 669 60 570 q 379 767 227 767 q 604 669 526 767 q 681 374 681 571 l 681 333 m 378 668 q 252 611 295 668 q 206 424 208 555 l 545 424 q 501 611 542 555 q 378 668 460 668 m 152 941 l 152 1034 l 602 1034 l 602 941 l 152 941 z "},"ḗ":{"ha":731,"x_min":60,"x_max":681,"o":"m 681 333 l 206 333 q 236 197 209 248 q 315 124 263 147 q 453 101 368 101 q 643 129 535 101 l 643 15 q 435 -14 533 -14 q 152 80 244 -14 q 60 378 60 174 q 143 669 60 570 q 379 767 227 767 q 604 669 526 767 q 681 374 681 571 l 681 333 m 378 668 q 252 611 295 668 q 206 424 208 555 l 545 424 q 501 611 542 555 q 378 668 460 668 m 152 941 l 152 1034 l 602 1034 l 602 941 l 152 941 m 311 1132 l 435 1333 l 590 1333 l 442 1132 l 311 1132 z "},"ḕ":{"ha":731,"x_min":60,"x_max":681,"o":"m 681 333 l 206 333 q 236 197 209 248 q 315 124 263 147 q 453 101 368 101 q 643 129 535 101 l 643 15 q 435 -14 533 -14 q 152 80 244 -14 q 60 378 60 174 q 143 669 60 570 q 379 767 227 767 q 604 669 526 767 q 681 374 681 571 l 681 333 m 378 668 q 252 611 295 668 q 206 424 208 555 l 545 424 q 501 611 542 555 q 378 668 460 668 m 152 941 l 152 1034 l 602 1034 l 602 941 l 152 941 m 312 1132 l 164 1333 l 318 1333 l 442 1132 l 312 1132 z "},"ę":{"ha":731,"x_min":60,"x_max":681,"o":"m 681 333 l 206 333 q 236 197 209 248 q 315 124 263 147 q 453 101 368 101 q 643 129 535 101 l 643 15 q 500 -62 540 -19 q 459 -153 459 -105 q 482 -208 459 -188 q 546 -228 504 -228 q 643 -203 592 -228 l 643 -269 q 531 -294 592 -294 q 413 -259 454 -294 q 371 -162 371 -224 q 457 -14 371 -70 l 435 -14 q 152 80 244 -14 q 60 378 60 174 q 143 669 60 570 q 379 767 227 767 q 604 669 526 767 q 681 374 681 571 l 681 333 m 378 665 q 252 609 295 665 q 206 422 208 552 l 545 422 q 501 609 542 552 q 378 665 460 665 z "},"ẽ":{"ha":731,"x_min":60,"x_max":681,"o":"m 681 333 l 206 333 q 236 197 209 248 q 315 124 263 147 q 453 101 368 101 q 643 129 535 101 l 643 15 q 435 -14 533 -14 q 152 80 244 -14 q 60 378 60 174 q 143 669 60 570 q 379 767 227 767 q 604 669 526 767 q 681 374 681 571 l 681 333 m 378 668 q 252 611 295 668 q 206 424 208 555 l 545 424 q 501 611 542 555 q 378 668 460 668 m 480 922 q 426 930 452 922 q 366 953 401 938 q 314 974 335 967 q 272 981 293 981 q 209 967 238 981 q 152 926 180 954 l 152 1024 q 274 1072 199 1072 q 328 1064 302 1072 q 389 1041 353 1056 q 441 1020 421 1027 q 482 1014 461 1014 q 546 1027 517 1014 q 602 1068 574 1040 l 602 970 q 480 922 556 922 z "},"ə":{"ha":731,"x_min":50,"x_max":672,"o":"m 296 769 q 579 676 487 769 q 672 377 672 582 q 588 87 672 185 q 352 -12 504 -12 q 127 86 205 -12 q 50 381 50 185 l 50 423 l 525 423 q 495 558 522 508 q 416 632 469 609 q 278 655 363 655 q 88 626 197 655 l 88 740 q 296 769 198 769 m 353 88 q 480 144 436 88 q 526 331 523 201 l 186 331 q 230 144 189 201 q 353 88 272 88 z "},"f":{"ha":516,"x_min":14,"x_max":550,"o":"m 463 1017 q 334 980 375 1017 q 294 856 294 942 l 294 756 l 520 756 l 520 639 l 294 639 l 294 0 l 150 0 l 150 639 l 14 639 l 14 756 l 150 756 l 150 849 q 225 1063 150 989 q 445 1136 301 1136 q 550 1128 499 1136 l 550 1010 q 463 1017 509 1017 z "},"g":{"ha":805,"x_min":60,"x_max":707,"o":"m 341 -319 q 223 -311 284 -319 q 110 -287 162 -303 l 110 -169 q 331 -204 226 -204 q 463 -183 412 -204 q 538 -113 513 -161 q 563 15 563 -65 l 563 81 l 555 81 q 467 15 519 39 q 350 -8 415 -8 q 203 30 268 -8 q 99 152 138 69 q 60 363 60 235 q 159 665 60 563 q 456 767 259 767 q 586 758 520 767 q 707 731 653 748 l 707 39 q 667 -167 707 -87 q 546 -283 626 -246 q 341 -319 465 -319 m 399 113 q 489 131 446 113 q 563 187 533 150 l 563 640 q 444 653 506 653 q 266 587 326 653 q 207 376 207 521 q 257 172 207 231 q 399 113 307 113 z "},"ǵ":{"ha":805,"x_min":60,"x_max":707,"o":"m 341 -319 q 223 -311 284 -319 q 110 -287 162 -303 l 110 -169 q 331 -204 226 -204 q 463 -183 412 -204 q 538 -113 513 -161 q 563 15 563 -65 l 563 81 l 555 81 q 467 15 519 39 q 350 -8 415 -8 q 203 30 268 -8 q 99 152 138 69 q 60 363 60 235 q 159 665 60 563 q 456 767 259 767 q 586 758 520 767 q 707 731 653 748 l 707 39 q 667 -167 707 -87 q 546 -283 626 -246 q 341 -319 465 -319 m 399 113 q 489 131 446 113 q 563 187 533 150 l 563 640 q 444 653 506 653 q 266 587 326 653 q 207 376 207 521 q 257 172 207 231 q 399 113 307 113 m 351 866 l 503 1122 l 658 1122 l 483 866 l 351 866 z "},"ğ":{"ha":805,"x_min":60,"x_max":707,"o":"m 341 -319 q 223 -311 284 -319 q 110 -287 162 -303 l 110 -169 q 331 -204 226 -204 q 463 -183 412 -204 q 538 -113 513 -161 q 563 15 563 -65 l 563 81 l 555 81 q 467 15 519 39 q 350 -8 415 -8 q 203 30 268 -8 q 99 152 138 69 q 60 363 60 235 q 159 665 60 563 q 456 767 259 767 q 586 758 520 767 q 707 731 653 748 l 707 39 q 667 -167 707 -87 q 546 -283 626 -246 q 341 -319 465 -319 m 399 113 q 489 131 446 113 q 563 187 533 150 l 563 640 q 444 653 506 653 q 266 587 326 653 q 207 376 207 521 q 257 172 207 231 q 399 113 307 113 m 418 873 q 259 933 317 873 q 196 1105 201 993 l 289 1105 q 325 992 294 1030 q 418 953 357 953 q 510 991 479 953 q 546 1105 542 1029 l 639 1105 q 577 933 634 992 q 418 873 519 873 z "},"ǧ":{"ha":805,"x_min":60,"x_max":707,"o":"m 341 -319 q 223 -311 284 -319 q 110 -287 162 -303 l 110 -169 q 331 -204 226 -204 q 463 -183 412 -204 q 538 -113 513 -161 q 563 15 563 -65 l 563 81 l 555 81 q 467 15 519 39 q 350 -8 415 -8 q 203 30 268 -8 q 99 152 138 69 q 60 363 60 235 q 159 665 60 563 q 456 767 259 767 q 586 758 520 767 q 707 731 653 748 l 707 39 q 667 -167 707 -87 q 546 -283 626 -246 q 341 -319 465 -319 m 399 113 q 489 131 446 113 q 563 187 533 150 l 563 640 q 444 653 506 653 q 266 587 326 653 q 207 376 207 521 q 257 172 207 231 q 399 113 307 113 m 528 1122 l 639 1122 l 480 866 l 355 866 l 196 1122 l 306 1122 l 417 937 l 528 1122 z "},"ĝ":{"ha":805,"x_min":60,"x_max":707,"o":"m 341 -319 q 223 -311 284 -319 q 110 -287 162 -303 l 110 -169 q 331 -204 226 -204 q 463 -183 412 -204 q 538 -113 513 -161 q 563 15 563 -65 l 563 81 l 555 81 q 467 15 519 39 q 350 -8 415 -8 q 203 30 268 -8 q 99 152 138 69 q 60 363 60 235 q 159 665 60 563 q 456 767 259 767 q 586 758 520 767 q 707 731 653 748 l 707 39 q 667 -167 707 -87 q 546 -283 626 -246 q 341 -319 465 -319 m 399 113 q 489 131 446 113 q 563 187 533 150 l 563 640 q 444 653 506 653 q 266 587 326 653 q 207 376 207 521 q 257 172 207 231 q 399 113 307 113 m 637 866 l 527 866 l 417 1051 l 308 866 l 198 866 l 355 1122 l 480 1122 l 637 866 z "},"ģ":{"ha":805,"x_min":60,"x_max":707,"o":"m 341 -319 q 223 -311 284 -319 q 110 -287 162 -303 l 110 -169 q 331 -204 226 -204 q 463 -183 412 -204 q 538 -113 513 -161 q 563 15 563 -65 l 563 81 l 555 81 q 467 15 519 39 q 350 -8 415 -8 q 203 30 268 -8 q 99 152 138 69 q 60 363 60 235 q 159 665 60 563 q 456 767 259 767 q 586 758 520 767 q 707 731 653 748 l 707 39 q 667 -167 707 -87 q 546 -283 626 -246 q 341 -319 465 -319 m 399 113 q 489 131 446 113 q 563 187 533 150 l 563 640 q 444 653 506 653 q 266 587 326 653 q 207 376 207 521 q 257 172 207 231 q 399 113 307 113 m 431 1030 q 487 1010 468 1027 q 506 967 506 994 q 483 920 506 938 q 419 903 461 903 q 329 988 329 903 q 341 1059 329 1020 q 373 1128 353 1097 l 463 1128 q 431 1030 438 1074 z "},"ġ":{"ha":805,"x_min":60,"x_max":707,"o":"m 341 -319 q 223 -311 284 -319 q 110 -287 162 -303 l 110 -169 q 331 -204 226 -204 q 463 -183 412 -204 q 538 -113 513 -161 q 563 15 563 -65 l 563 81 l 555 81 q 467 15 519 39 q 350 -8 415 -8 q 203 30 268 -8 q 99 152 138 69 q 60 363 60 235 q 159 665 60 563 q 456 767 259 767 q 586 758 520 767 q 707 731 653 748 l 707 39 q 667 -167 707 -87 q 546 -283 626 -246 q 341 -319 465 -319 m 399 113 q 489 131 446 113 q 563 187 533 150 l 563 640 q 444 653 506 653 q 266 587 326 653 q 207 376 207 521 q 257 172 207 231 q 399 113 307 113 m 417 903 q 347 924 371 903 q 322 986 322 946 q 347 1049 322 1026 q 417 1071 371 1071 q 488 1049 464 1071 q 513 986 513 1026 q 488 924 513 946 q 417 903 464 903 z "},"ḡ":{"ha":805,"x_min":60,"x_max":707,"o":"m 341 -319 q 223 -311 284 -319 q 110 -287 162 -303 l 110 -169 q 331 -204 226 -204 q 463 -183 412 -204 q 538 -113 513 -161 q 563 15 563 -65 l 563 81 l 555 81 q 467 15 519 39 q 350 -8 415 -8 q 203 30 268 -8 q 99 152 138 69 q 60 363 60 235 q 159 665 60 563 q 456 767 259 767 q 586 758 520 767 q 707 731 653 748 l 707 39 q 667 -167 707 -87 q 546 -283 626 -246 q 341 -319 465 -319 m 399 113 q 489 131 446 113 q 563 187 533 150 l 563 640 q 444 653 506 653 q 266 587 326 653 q 207 376 207 521 q 257 172 207 231 q 399 113 307 113 m 192 941 l 192 1034 l 642 1034 l 642 941 l 192 941 z "},"h":{"ha":808,"x_min":98,"x_max":717,"o":"m 98 1122 l 242 1122 l 242 674 l 250 674 q 351 744 294 720 q 476 767 408 767 q 652 701 587 767 q 717 492 717 635 l 717 0 l 572 0 l 572 483 q 535 603 572 567 q 430 640 499 640 q 327 618 378 640 q 242 551 277 596 l 242 0 l 98 0 l 98 1122 z "},"ħ":{"ha":808,"x_min":5,"x_max":717,"o":"m 476 767 q 652 701 587 767 q 717 492 717 635 l 717 0 l 572 0 l 572 483 q 535 603 572 567 q 430 640 499 640 q 327 618 378 640 q 242 551 277 596 l 242 0 l 98 0 l 98 892 l 5 892 l 5 989 l 98 989 l 98 1122 l 242 1122 l 242 989 l 484 989 l 484 892 l 242 892 l 242 674 l 250 674 q 351 744 294 720 q 476 767 408 767 z "},"ḫ":{"ha":808,"x_min":98,"x_max":717,"o":"m 98 1122 l 242 1122 l 242 674 l 250 674 q 351 744 294 720 q 476 767 408 767 q 652 701 587 767 q 717 492 717 635 l 717 0 l 572 0 l 572 483 q 535 603 572 567 q 430 640 499 640 q 327 618 378 640 q 242 551 277 596 l 242 0 l 98 0 l 98 1122 m 408 -300 q 290 -276 340 -300 q 214 -209 241 -253 q 186 -106 188 -165 l 279 -106 q 408 -219 285 -219 q 536 -106 532 -219 l 629 -106 q 569 -248 627 -197 q 408 -300 512 -300 z "},"ĥ":{"ha":808,"x_min":98,"x_max":717,"o":"m 98 1122 l 242 1122 l 242 674 l 250 674 q 351 744 294 720 q 476 767 408 767 q 652 701 587 767 q 717 492 717 635 l 717 0 l 572 0 l 572 483 q 535 603 572 567 q 430 640 499 640 q 327 618 378 640 q 242 551 277 596 l 242 0 l 98 0 l 98 1122 m 644 1181 l 526 1181 l 408 1323 l 290 1181 l 172 1181 l 344 1382 l 472 1382 l 644 1181 z "},"ḥ":{"ha":808,"x_min":98,"x_max":717,"o":"m 98 1122 l 242 1122 l 242 674 l 250 674 q 351 744 294 720 q 476 767 408 767 q 652 701 587 767 q 717 492 717 635 l 717 0 l 572 0 l 572 483 q 535 603 572 567 q 430 640 499 640 q 327 618 378 640 q 242 551 277 596 l 242 0 l 98 0 l 98 1122 m 408 -267 q 344 -246 367 -267 q 322 -187 322 -224 q 344 -127 322 -149 q 408 -106 367 -106 q 471 -127 448 -106 q 494 -187 494 -149 q 471 -246 494 -224 q 408 -267 448 -267 z "},"i":{"ha":341,"x_min":76,"x_max":266,"o":"m 98 0 l 98 756 l 243 756 l 243 0 l 98 0 m 171 903 q 100 924 124 903 q 76 986 76 946 q 100 1049 76 1026 q 171 1071 124 1071 q 242 1049 217 1071 q 266 986 266 1026 q 242 924 266 946 q 171 903 217 903 z "},"ı":{"ha":341,"x_min":98,"x_max":243,"o":"m 98 0 l 98 756 l 243 756 l 243 0 l 98 0 z "},"í":{"ha":341,"x_min":98,"x_max":412,"o":"m 98 0 l 98 756 l 243 756 l 243 0 l 98 0 m 105 866 l 257 1122 l 412 1122 l 237 866 l 105 866 z "},"ĭ":{"ha":341,"x_min":-51,"x_max":392,"o":"m 98 0 l 98 756 l 243 756 l 243 0 l 98 0 m 172 873 q 12 933 70 873 q -51 1105 -46 993 l 42 1105 q 79 992 47 1030 q 172 953 110 953 q 264 991 233 953 q 299 1105 295 1029 l 392 1105 q 330 933 388 992 q 172 873 273 873 z "},"î":{"ha":341,"x_min":-49,"x_max":390,"o":"m 98 0 l 98 756 l 243 756 l 243 0 l 98 0 m 390 866 l 281 866 l 171 1051 l 61 866 l -49 866 l 108 1122 l 233 1122 l 390 866 z "},"ȉ":{"ha":341,"x_min":-117,"x_max":351,"o":"m 98 0 l 98 756 l 243 756 l 243 0 l 98 0 m -9 866 l -117 1122 l 3 1122 l 102 866 l -9 866 m 240 866 l 132 1122 l 252 1122 l 351 866 l 240 866 z "},"ï":{"ha":341,"x_min":-72,"x_max":414,"o":"m 98 0 l 98 756 l 243 756 l 243 0 l 98 0 m 14 905 q -49 926 -26 905 q -72 986 -72 948 q -49 1047 -72 1025 q 14 1069 -26 1069 q 77 1047 54 1069 q 100 986 100 1024 q 77 926 100 948 q 14 905 54 905 m 328 905 q 265 926 288 905 q 242 986 242 948 q 265 1047 242 1025 q 328 1069 288 1069 q 391 1047 368 1069 q 414 986 414 1025 q 391 926 414 948 q 328 905 368 905 z "},"ḯ":{"ha":341,"x_min":-72,"x_max":420,"o":"m 98 0 l 98 756 l 243 756 l 243 0 l 98 0 m 14 905 q -49 926 -26 905 q -72 986 -72 948 q -49 1047 -72 1025 q 14 1069 -26 1069 q 77 1047 54 1069 q 100 986 100 1024 q 77 926 100 948 q 14 905 54 905 m 328 905 q 265 926 288 905 q 242 986 242 948 q 265 1047 242 1025 q 328 1069 288 1069 q 391 1047 368 1069 q 414 986 414 1025 q 391 926 414 948 q 328 905 368 905 m 142 1225 l 266 1426 l 420 1426 l 273 1225 l 142 1225 z "},"ị":{"ha":341,"x_min":76,"x_max":266,"o":"m 98 0 l 98 756 l 243 756 l 243 0 l 98 0 m 171 903 q 100 924 124 903 q 76 986 76 946 q 100 1049 76 1026 q 171 1071 124 1071 q 242 1049 217 1071 q 266 986 266 1026 q 242 924 266 946 q 171 903 217 903 m 171 -267 q 108 -246 131 -267 q 85 -187 85 -224 q 108 -127 85 -149 q 171 -106 131 -106 q 234 -127 211 -106 q 257 -187 257 -149 q 234 -246 257 -224 q 171 -267 211 -267 z "},"ì":{"ha":341,"x_min":-70,"x_max":243,"o":"m 98 0 l 98 756 l 243 756 l 243 0 l 98 0 m 105 866 l -70 1122 l 85 1122 l 237 866 l 105 866 z "},"ỉ":{"ha":341,"x_min":49,"x_max":322,"o":"m 98 0 l 98 756 l 243 756 l 243 0 l 98 0 m 131 866 q 141 913 131 893 q 164 944 151 932 q 198 971 177 956 q 229 997 219 987 q 238 1022 238 1008 q 219 1055 238 1044 q 160 1065 201 1065 q 49 1049 103 1065 l 49 1113 q 106 1126 73 1121 q 168 1131 139 1131 q 322 1031 322 1131 q 314 991 322 1008 q 294 964 306 975 q 264 940 283 953 q 226 906 238 921 q 212 866 213 890 l 131 866 z "},"ȋ":{"ha":341,"x_min":-51,"x_max":392,"o":"m 98 0 l 98 756 l 243 756 l 243 0 l 98 0 m -51 885 q 11 1058 -46 999 q 170 1117 68 1117 q 329 1057 271 1117 q 392 885 388 997 l 299 885 q 170 1037 290 1037 q 78 999 109 1037 q 42 885 47 961 l -51 885 z "},"ī":{"ha":341,"x_min":-54,"x_max":396,"o":"m 98 0 l 98 756 l 243 756 l 243 0 l 98 0 m -54 941 l -54 1034 l 396 1034 l 396 941 l -54 941 z "},"į":{"ha":341,"x_min":19,"x_max":291,"o":"m 171 903 q 100 924 124 903 q 76 986 76 946 q 100 1049 76 1026 q 171 1071 124 1071 q 242 1049 217 1071 q 266 986 266 1026 q 242 924 266 946 q 171 903 217 903 m 194 -228 q 291 -203 240 -228 l 291 -269 q 178 -294 240 -294 q 60 -259 102 -294 q 19 -162 19 -224 q 43 -74 19 -114 q 121 0 67 -35 l 98 0 l 98 756 l 243 756 l 243 0 q 138 -73 169 -37 q 107 -153 107 -109 q 130 -208 107 -188 q 194 -228 152 -228 z "},"ĩ":{"ha":341,"x_min":-54,"x_max":396,"o":"m 98 0 l 98 756 l 243 756 l 243 0 l 98 0 m 274 922 q 220 930 246 922 q 160 953 194 938 q 108 974 128 967 q 66 981 87 981 q 2 967 31 981 q -54 926 -26 954 l -54 1024 q 68 1072 -8 1072 q 122 1064 96 1072 q 183 1041 147 1056 q 235 1020 215 1027 q 276 1014 255 1014 q 340 1027 311 1014 q 396 1068 368 1040 l 396 970 q 274 922 349 922 z "},"j":{"ha":341,"x_min":-22,"x_max":265,"o":"m -22 -260 q 70 -86 43 -173 q 98 119 98 1 l 98 756 l 243 756 l 243 126 q 204 -112 243 -8 q 74 -324 165 -217 l -22 -260 m 169 906 q 99 927 123 906 q 74 989 74 949 q 99 1051 74 1029 q 169 1074 123 1074 q 240 1051 216 1074 q 265 989 265 1029 q 240 927 265 949 q 169 906 216 906 z "},"ȷ":{"ha":341,"x_min":-22,"x_max":243,"o":"m -22 -260 q 70 -86 43 -173 q 98 119 98 1 l 98 756 l 243 756 l 243 126 q 204 -112 243 -8 q 74 -324 165 -217 l -22 -260 z "},"ĵ":{"ha":341,"x_min":-50,"x_max":389,"o":"m -22 -260 q 70 -86 43 -173 q 98 119 98 1 l 98 756 l 243 756 l 243 126 q 204 -112 243 -8 q 74 -324 165 -217 l -22 -260 m 389 869 l 279 869 l 169 1053 l 60 869 l -50 869 l 107 1125 l 232 1125 l 389 869 z "},"k":{"ha":750,"x_min":98,"x_max":767,"o":"m 607 0 l 360 328 l 242 328 l 242 0 l 98 0 l 98 1122 l 242 1122 l 242 447 l 358 447 l 586 756 l 744 756 l 478 390 l 767 0 l 607 0 z "},"ķ":{"ha":750,"x_min":98,"x_max":767,"o":"m 607 0 l 360 328 l 242 328 l 242 0 l 98 0 l 98 1122 l 242 1122 l 242 447 l 358 447 l 586 756 l 744 756 l 478 390 l 767 0 l 607 0 m 399 -106 q 489 -190 489 -106 q 477 -260 489 -222 q 445 -331 465 -299 l 355 -331 q 387 -232 381 -276 q 331 -212 350 -229 q 313 -169 313 -196 q 335 -123 313 -140 q 399 -106 357 -106 z "},"ĸ":{"ha":750,"x_min":98,"x_max":767,"o":"m 607 0 l 360 328 l 242 328 l 242 0 l 98 0 l 98 756 l 242 756 l 242 447 l 358 447 l 586 756 l 744 756 l 478 390 l 767 0 l 607 0 z "},"l":{"ha":341,"x_min":98,"x_max":242,"o":"m 98 0 l 98 1122 l 242 1122 l 242 0 l 98 0 z "},"ĺ":{"ha":341,"x_min":98,"x_max":383,"o":"m 98 0 l 98 1122 l 242 1122 l 242 0 l 98 0 m 105 1181 l 229 1382 l 383 1382 l 236 1181 l 105 1181 z "},"ľ":{"ha":341,"x_min":98,"x_max":420,"o":"m 98 0 l 98 1122 l 242 1122 l 242 0 l 98 0 m 301 819 q 318 1122 318 947 l 420 1122 q 411 964 420 1043 q 383 819 401 885 l 301 819 z "},"ļ":{"ha":341,"x_min":82,"x_max":258,"o":"m 98 0 l 98 1122 l 242 1122 l 242 0 l 98 0 m 169 -106 q 258 -190 258 -106 q 247 -260 258 -222 q 215 -331 235 -299 l 124 -331 q 156 -232 150 -276 q 101 -212 119 -229 q 82 -169 82 -196 q 104 -123 82 -140 q 169 -106 126 -106 z "},"ŀ":{"ha":460,"x_min":98,"x_max":491,"o":"m 98 0 l 98 1122 l 242 1122 l 242 0 l 98 0 m 396 467 q 325 489 349 467 q 300 551 300 510 q 325 613 300 591 q 396 635 349 635 q 467 613 442 635 q 491 551 491 591 q 467 489 491 510 q 396 467 442 467 z "},"ḷ":{"ha":341,"x_min":84,"x_max":256,"o":"m 98 0 l 98 1122 l 242 1122 l 242 0 l 98 0 m 170 -267 q 107 -246 130 -267 q 84 -187 84 -224 q 107 -127 84 -149 q 170 -106 130 -106 q 233 -127 210 -106 q 256 -187 256 -149 q 233 -246 256 -224 q 170 -267 210 -267 z "},"ǉ":{"ha":682,"x_min":98,"x_max":606,"o":"m 98 0 l 98 1122 l 242 1122 l 242 0 l 98 0 m 319 -260 q 411 -86 384 -173 q 439 119 439 1 l 439 756 l 584 756 l 584 126 q 545 -112 584 -8 q 415 -324 506 -217 l 319 -260 m 510 906 q 440 927 464 906 q 415 989 415 949 q 440 1051 415 1029 q 510 1074 464 1074 q 581 1051 557 1074 q 606 989 606 1029 q 581 927 606 949 q 510 906 557 906 z "},"ḻ":{"ha":341,"x_min":-41,"x_max":381,"o":"m 98 0 l 98 1122 l 242 1122 l 242 0 l 98 0 m -41 -233 l -41 -140 l 381 -140 l 381 -233 l -41 -233 z "},"ł":{"ha":341,"x_min":-19,"x_max":362,"o":"m 362 563 l 242 485 l 242 0 l 98 0 l 98 392 l 28 347 l -19 428 l 98 504 l 98 1122 l 242 1122 l 242 599 l 314 645 l 362 563 z "},"m":{"ha":1199,"x_min":98,"x_max":1108,"o":"m 874 767 q 1045 701 983 767 q 1108 491 1108 635 l 1108 0 l 964 0 l 964 484 q 930 604 964 567 q 835 640 896 640 q 748 620 791 640 q 673 558 704 601 q 676 495 676 526 l 676 0 l 535 0 l 535 484 q 502 604 535 568 q 409 640 469 640 q 318 618 363 640 q 242 549 273 595 l 242 0 l 98 0 l 98 756 l 219 756 l 229 672 l 237 672 q 334 743 279 719 q 453 767 390 767 q 567 742 518 767 q 643 663 615 717 q 752 742 692 717 q 874 767 812 767 z "},"ṃ":{"ha":1199,"x_min":98,"x_max":1108,"o":"m 874 767 q 1045 701 983 767 q 1108 491 1108 635 l 1108 0 l 964 0 l 964 484 q 930 604 964 567 q 835 640 896 640 q 748 620 791 640 q 673 558 704 601 q 676 495 676 526 l 676 0 l 535 0 l 535 484 q 502 604 535 568 q 409 640 469 640 q 318 618 363 640 q 242 549 273 595 l 242 0 l 98 0 l 98 756 l 219 756 l 229 672 l 237 672 q 334 743 279 719 q 453 767 390 767 q 567 742 518 767 q 643 663 615 717 q 752 742 692 717 q 874 767 812 767 m 606 -267 q 543 -246 566 -267 q 520 -187 520 -224 q 543 -127 520 -149 q 606 -106 566 -106 q 669 -127 647 -106 q 692 -187 692 -149 q 669 -246 692 -224 q 606 -267 647 -267 z "},"n":{"ha":808,"x_min":98,"x_max":717,"o":"m 98 756 l 219 756 l 229 672 l 237 672 q 342 743 282 718 q 469 767 402 767 q 651 701 585 767 q 717 491 717 635 l 717 0 l 572 0 l 572 483 q 536 604 572 567 q 430 640 499 640 q 328 618 379 640 q 242 552 277 597 l 242 0 l 98 0 l 98 756 z "},"ń":{"ha":808,"x_min":98,"x_max":717,"o":"m 98 756 l 219 756 l 229 672 l 237 672 q 342 743 282 718 q 469 767 402 767 q 651 701 585 767 q 717 491 717 635 l 717 0 l 572 0 l 572 483 q 536 604 572 567 q 430 640 499 640 q 328 618 379 640 q 242 552 277 597 l 242 0 l 98 0 l 98 756 m 342 866 l 494 1122 l 649 1122 l 474 866 l 342 866 z "},"ŉ":{"ha":808,"x_min":8,"x_max":717,"o":"m 98 756 l 219 756 l 229 672 l 237 672 q 342 743 282 718 q 469 767 402 767 q 651 701 585 767 q 717 491 717 635 l 717 0 l 572 0 l 572 483 q 536 604 572 567 q 430 640 499 640 q 328 618 379 640 q 242 552 277 597 l 242 0 l 98 0 l 98 756 m 95 1128 q 185 1044 185 1128 q 173 973 185 1012 q 141 903 161 935 l 51 903 q 83 1002 76 958 q 27 1022 46 1005 q 8 1065 8 1038 q 31 1111 8 1094 q 95 1128 53 1128 z "},"ň":{"ha":808,"x_min":98,"x_max":717,"o":"m 98 756 l 219 756 l 229 672 l 237 672 q 342 743 282 718 q 469 767 402 767 q 651 701 585 767 q 717 491 717 635 l 717 0 l 572 0 l 572 483 q 536 604 572 567 q 430 640 499 640 q 328 618 379 640 q 242 552 277 597 l 242 0 l 98 0 l 98 756 m 519 1122 l 629 1122 l 470 866 l 345 866 l 186 1122 l 297 1122 l 408 937 l 519 1122 z "},"ņ":{"ha":808,"x_min":98,"x_max":717,"o":"m 98 756 l 219 756 l 229 672 l 237 672 q 342 743 282 718 q 469 767 402 767 q 651 701 585 767 q 717 491 717 635 l 717 0 l 572 0 l 572 483 q 536 604 572 567 q 430 640 499 640 q 328 618 379 640 q 242 552 277 597 l 242 0 l 98 0 l 98 756 m 406 -106 q 496 -190 496 -106 q 484 -260 496 -222 q 452 -331 472 -299 l 362 -331 q 394 -232 388 -276 q 338 -212 357 -229 q 319 -169 319 -196 q 342 -123 319 -140 q 406 -106 364 -106 z "},"ṅ":{"ha":808,"x_min":98,"x_max":717,"o":"m 98 756 l 219 756 l 229 672 l 237 672 q 342 743 282 718 q 469 767 402 767 q 651 701 585 767 q 717 491 717 635 l 717 0 l 572 0 l 572 483 q 536 604 572 567 q 430 640 499 640 q 328 618 379 640 q 242 552 277 597 l 242 0 l 98 0 l 98 756 m 408 903 q 337 924 361 903 q 313 986 313 946 q 337 1049 313 1026 q 408 1071 361 1071 q 478 1049 454 1071 q 503 986 503 1026 q 478 924 503 946 q 408 903 454 903 z "},"ṇ":{"ha":808,"x_min":98,"x_max":717,"o":"m 98 756 l 219 756 l 229 672 l 237 672 q 342 743 282 718 q 469 767 402 767 q 651 701 585 767 q 717 491 717 635 l 717 0 l 572 0 l 572 483 q 536 604 572 567 q 430 640 499 640 q 328 618 379 640 q 242 552 277 597 l 242 0 l 98 0 l 98 756 m 408 -267 q 344 -246 367 -267 q 322 -187 322 -224 q 344 -127 322 -149 q 408 -106 367 -106 q 471 -127 448 -106 q 494 -187 494 -149 q 471 -246 494 -224 q 408 -267 448 -267 z "},"ŋ":{"ha":808,"x_min":98,"x_max":717,"o":"m 453 -260 q 545 -86 517 -173 q 572 119 572 1 l 572 485 q 535 606 572 569 q 430 642 499 642 q 328 619 378 642 q 242 553 277 597 l 242 0 l 98 0 l 98 756 l 219 756 l 229 672 l 237 672 q 342 743 283 719 q 470 767 401 767 q 651 701 585 767 q 717 492 717 635 l 717 110 q 675 -119 713 -18 q 548 -324 637 -219 l 453 -260 z "},"ǌ":{"ha":1149,"x_min":98,"x_max":1072,"o":"m 98 756 l 219 756 l 229 672 l 237 672 q 342 743 282 718 q 469 767 402 767 q 651 701 585 767 q 717 491 717 635 l 717 0 l 572 0 l 572 483 q 536 604 572 567 q 430 640 499 640 q 328 618 379 640 q 242 552 277 597 l 242 0 l 98 0 l 98 756 m 786 -260 q 878 -86 851 -173 q 906 119 906 1 l 906 756 l 1051 756 l 1051 126 q 1011 -112 1051 -8 q 881 -324 972 -217 l 786 -260 m 977 906 q 906 927 931 906 q 882 989 882 949 q 906 1051 882 1029 q 977 1074 931 1074 q 1048 1051 1024 1074 q 1072 989 1072 1029 q 1048 927 1072 949 q 977 906 1024 906 z "},"ṉ":{"ha":808,"x_min":98,"x_max":717,"o":"m 98 756 l 219 756 l 229 672 l 237 672 q 342 743 282 718 q 469 767 402 767 q 651 701 585 767 q 717 491 717 635 l 717 0 l 572 0 l 572 483 q 536 604 572 567 q 430 640 499 640 q 328 618 379 640 q 242 552 277 597 l 242 0 l 98 0 l 98 756 m 197 -233 l 197 -140 l 619 -140 l 619 -233 l 197 -233 z "},"ñ":{"ha":808,"x_min":98,"x_max":717,"o":"m 98 756 l 219 756 l 229 672 l 237 672 q 342 743 282 718 q 469 767 402 767 q 651 701 585 767 q 717 491 717 635 l 717 0 l 572 0 l 572 483 q 536 604 572 567 q 430 640 499 640 q 328 618 379 640 q 242 552 277 597 l 242 0 l 98 0 l 98 756 m 510 922 q 457 930 483 922 q 397 953 431 938 q 344 974 365 967 q 303 981 324 981 q 239 967 268 981 q 183 926 210 954 l 183 1024 q 305 1072 229 1072 q 358 1064 333 1072 q 419 1041 384 1056 q 472 1020 451 1027 q 513 1014 492 1014 q 576 1027 548 1014 q 633 1068 605 1040 l 633 970 q 510 922 586 922 z "},"o":{"ha":790,"x_min":60,"x_max":731,"o":"m 395 -14 q 148 83 237 -14 q 60 376 60 180 q 148 670 60 574 q 395 767 235 767 q 643 671 555 767 q 731 377 731 574 q 642 84 731 181 q 395 -14 553 -14 m 395 100 q 536 163 488 100 q 584 375 584 226 q 536 590 584 526 q 395 653 488 653 q 255 591 303 653 q 207 378 207 528 q 255 164 207 227 q 395 100 302 100 z "},"ó":{"ha":790,"x_min":60,"x_max":731,"o":"m 395 -14 q 148 83 237 -14 q 60 376 60 180 q 148 670 60 574 q 395 767 235 767 q 643 671 555 767 q 731 377 731 574 q 642 84 731 181 q 395 -14 553 -14 m 395 100 q 536 163 488 100 q 584 375 584 226 q 536 590 584 526 q 395 653 488 653 q 255 591 303 653 q 207 378 207 528 q 255 164 207 227 q 395 100 302 100 m 329 866 l 481 1122 l 636 1122 l 461 866 l 329 866 z "},"ŏ":{"ha":790,"x_min":60,"x_max":731,"o":"m 395 -14 q 148 83 237 -14 q 60 376 60 180 q 148 670 60 574 q 395 767 235 767 q 643 671 555 767 q 731 377 731 574 q 642 84 731 181 q 395 -14 553 -14 m 395 100 q 536 163 488 100 q 584 375 584 226 q 536 590 584 526 q 395 653 488 653 q 255 591 303 653 q 207 378 207 528 q 255 164 207 227 q 395 100 302 100 m 396 873 q 236 933 294 873 q 174 1105 178 993 l 267 1105 q 303 992 272 1030 q 396 953 335 953 q 488 991 457 953 q 524 1105 519 1029 l 617 1105 q 555 933 612 992 q 396 873 497 873 z "},"ô":{"ha":790,"x_min":60,"x_max":731,"o":"m 395 -14 q 148 83 237 -14 q 60 376 60 180 q 148 670 60 574 q 395 767 235 767 q 643 671 555 767 q 731 377 731 574 q 642 84 731 181 q 395 -14 553 -14 m 395 100 q 536 163 488 100 q 584 375 584 226 q 536 590 584 526 q 395 653 488 653 q 255 591 303 653 q 207 378 207 528 q 255 164 207 227 q 395 100 302 100 m 615 866 l 505 866 l 395 1051 l 285 866 l 176 866 l 333 1122 l 458 1122 l 615 866 z "},"ố":{"ha":790,"x_min":60,"x_max":799,"o":"m 395 -14 q 148 83 237 -14 q 60 376 60 180 q 148 670 60 574 q 395 767 235 767 q 643 671 555 767 q 731 377 731 574 q 642 84 731 181 q 395 -14 553 -14 m 395 100 q 536 163 488 100 q 584 375 584 226 q 536 590 584 526 q 395 653 488 653 q 255 591 303 653 q 207 378 207 528 q 255 164 207 227 q 395 100 302 100 m 670 1297 l 799 1297 l 652 1109 l 546 1109 l 670 1297 m 333 1122 l 458 1122 l 615 866 l 505 866 l 395 1051 l 285 866 l 176 866 l 333 1122 z "},"ộ":{"ha":790,"x_min":60,"x_max":731,"o":"m 395 -14 q 148 83 237 -14 q 60 376 60 180 q 148 670 60 574 q 395 767 235 767 q 643 671 555 767 q 731 377 731 574 q 642 84 731 181 q 395 -14 553 -14 m 395 100 q 536 163 488 100 q 584 375 584 226 q 536 590 584 526 q 395 653 488 653 q 255 591 303 653 q 207 378 207 528 q 255 164 207 227 q 395 100 302 100 m 395 -267 q 332 -246 355 -267 q 309 -187 309 -224 q 332 -127 309 -149 q 395 -106 355 -106 q 458 -127 435 -106 q 481 -187 481 -149 q 458 -246 481 -224 q 395 -267 435 -267 m 615 866 l 505 866 l 395 1051 l 285 866 l 176 866 l 333 1122 l 458 1122 l 615 866 z "},"ồ":{"ha":790,"x_min":60,"x_max":731,"o":"m 395 -14 q 148 83 237 -14 q 60 376 60 180 q 148 670 60 574 q 395 767 235 767 q 643 671 555 767 q 731 377 731 574 q 642 84 731 181 q 395 -14 553 -14 m 395 100 q 536 163 488 100 q 584 375 584 226 q 536 590 584 526 q 395 653 488 653 q 255 591 303 653 q 207 378 207 528 q 255 164 207 227 q 395 100 302 100 m 669 1109 l 563 1109 l 415 1297 l 544 1297 l 669 1109 m 333 1122 l 458 1122 l 615 866 l 505 866 l 395 1051 l 285 866 l 176 866 l 333 1122 z "},"ổ":{"ha":790,"x_min":60,"x_max":736,"o":"m 395 -14 q 148 83 237 -14 q 60 376 60 180 q 148 670 60 574 q 395 767 235 767 q 643 671 555 767 q 731 377 731 574 q 642 84 731 181 q 395 -14 553 -14 m 395 100 q 536 163 488 100 q 584 375 584 226 q 536 590 584 526 q 395 653 488 653 q 255 591 303 653 q 207 378 207 528 q 255 164 207 227 q 395 100 302 100 m 587 1304 q 736 1225 736 1304 q 721 1187 736 1200 q 675 1158 706 1174 q 636 1136 650 1147 q 621 1109 623 1126 l 542 1109 q 563 1154 544 1138 q 613 1183 581 1169 q 644 1199 635 1192 q 654 1217 654 1206 q 636 1240 654 1232 q 578 1247 619 1247 q 446 1227 508 1247 l 446 1284 q 511 1299 473 1293 q 587 1304 549 1304 m 333 1122 l 458 1122 l 615 866 l 505 866 l 395 1051 l 285 866 l 176 866 l 333 1122 z "},"ỗ":{"ha":790,"x_min":60,"x_max":731,"o":"m 395 -14 q 148 83 237 -14 q 60 376 60 180 q 148 670 60 574 q 395 767 235 767 q 643 671 555 767 q 731 377 731 574 q 642 84 731 181 q 395 -14 553 -14 m 395 100 q 536 163 488 100 q 584 375 584 226 q 536 590 584 526 q 395 653 488 653 q 255 591 303 653 q 207 378 207 528 q 255 164 207 227 q 395 100 302 100 m 504 1222 q 569 1233 541 1222 q 626 1269 598 1244 l 626 1185 q 502 1142 581 1142 q 448 1148 473 1142 q 384 1168 422 1155 q 332 1186 354 1180 q 286 1192 309 1192 q 221 1181 250 1192 q 164 1145 192 1169 l 164 1228 q 218 1261 188 1251 q 288 1272 248 1272 q 343 1265 317 1272 q 407 1245 369 1258 q 460 1228 439 1233 q 504 1222 482 1222 m 331 1101 l 460 1101 l 622 866 l 508 866 l 395 1039 l 282 866 l 168 866 l 331 1101 z "},"ȍ":{"ha":790,"x_min":60,"x_max":731,"o":"m 395 -14 q 148 83 237 -14 q 60 376 60 180 q 148 670 60 574 q 395 767 235 767 q 643 671 555 767 q 731 377 731 574 q 642 84 731 181 q 395 -14 553 -14 m 395 100 q 536 163 488 100 q 584 375 584 226 q 536 590 584 526 q 395 653 488 653 q 255 591 303 653 q 207 378 207 528 q 255 164 207 227 q 395 100 302 100 m 215 866 l 108 1122 l 228 1122 l 326 866 l 215 866 m 464 866 l 356 1122 l 476 1122 l 575 866 l 464 866 z "},"ö":{"ha":790,"x_min":60,"x_max":731,"o":"m 395 -14 q 148 83 237 -14 q 60 376 60 180 q 148 670 60 574 q 395 767 235 767 q 643 671 555 767 q 731 377 731 574 q 642 84 731 181 q 395 -14 553 -14 m 395 100 q 536 163 488 100 q 584 375 584 226 q 536 590 584 526 q 395 653 488 653 q 255 591 303 653 q 207 378 207 528 q 255 164 207 227 q 395 100 302 100 m 238 905 q 175 926 198 905 q 152 986 152 948 q 175 1047 152 1025 q 238 1069 198 1069 q 301 1047 278 1069 q 324 986 324 1024 q 301 926 324 948 q 238 905 278 905 m 552 905 q 489 926 512 905 q 467 986 467 948 q 489 1047 467 1025 q 552 1069 512 1069 q 615 1047 592 1069 q 638 986 638 1025 q 615 926 638 948 q 552 905 592 905 z "},"ȫ":{"ha":790,"x_min":60,"x_max":731,"o":"m 395 -14 q 148 83 237 -14 q 60 376 60 180 q 148 670 60 574 q 395 767 235 767 q 643 671 555 767 q 731 377 731 574 q 642 84 731 181 q 395 -14 553 -14 m 395 100 q 536 163 488 100 q 584 375 584 226 q 536 590 584 526 q 395 653 488 653 q 255 591 303 653 q 207 378 207 528 q 255 164 207 227 q 395 100 302 100 m 238 905 q 175 926 198 905 q 152 986 152 948 q 175 1047 152 1025 q 238 1069 198 1069 q 301 1047 278 1069 q 324 986 324 1024 q 301 926 324 948 q 238 905 278 905 m 552 905 q 489 926 512 905 q 467 986 467 948 q 489 1047 467 1025 q 552 1069 512 1069 q 615 1047 592 1069 q 638 986 638 1025 q 615 926 638 948 q 552 905 592 905 m 170 1166 l 170 1259 l 620 1259 l 620 1166 l 170 1166 z "},"ȱ":{"ha":790,"x_min":60,"x_max":731,"o":"m 395 -14 q 148 83 237 -14 q 60 376 60 180 q 148 670 60 574 q 395 767 235 767 q 643 671 555 767 q 731 377 731 574 q 642 84 731 181 q 395 -14 553 -14 m 395 100 q 536 163 488 100 q 584 375 584 226 q 536 590 584 526 q 395 653 488 653 q 255 591 303 653 q 207 378 207 528 q 255 164 207 227 q 395 100 302 100 m 395 903 q 324 924 349 903 q 300 986 300 946 q 324 1049 300 1026 q 395 1071 349 1071 q 466 1049 442 1071 q 490 986 490 1026 q 466 924 490 946 q 395 903 442 903 m 170 1167 l 170 1260 l 620 1260 l 620 1167 l 170 1167 z "},"ọ":{"ha":790,"x_min":60,"x_max":731,"o":"m 395 -14 q 148 83 237 -14 q 60 376 60 180 q 148 670 60 574 q 395 767 235 767 q 643 671 555 767 q 731 377 731 574 q 642 84 731 181 q 395 -14 553 -14 m 395 100 q 536 163 488 100 q 584 375 584 226 q 536 590 584 526 q 395 653 488 653 q 255 591 303 653 q 207 378 207 528 q 255 164 207 227 q 395 100 302 100 m 395 -267 q 332 -246 355 -267 q 309 -187 309 -224 q 332 -127 309 -149 q 395 -106 355 -106 q 458 -127 435 -106 q 481 -187 481 -149 q 458 -246 481 -224 q 395 -267 435 -267 z "},"ò":{"ha":790,"x_min":60,"x_max":731,"o":"m 395 -14 q 148 83 237 -14 q 60 376 60 180 q 148 670 60 574 q 395 767 235 767 q 643 671 555 767 q 731 377 731 574 q 642 84 731 181 q 395 -14 553 -14 m 395 100 q 536 163 488 100 q 584 375 584 226 q 536 590 584 526 q 395 653 488 653 q 255 591 303 653 q 207 378 207 528 q 255 164 207 227 q 395 100 302 100 m 329 866 l 154 1122 l 309 1122 l 461 866 l 329 866 z "},"ỏ":{"ha":790,"x_min":60,"x_max":731,"o":"m 395 -14 q 148 83 237 -14 q 60 376 60 180 q 148 670 60 574 q 395 767 235 767 q 643 671 555 767 q 731 377 731 574 q 642 84 731 181 q 395 -14 553 -14 m 395 100 q 536 163 488 100 q 584 375 584 226 q 536 590 584 526 q 395 653 488 653 q 255 591 303 653 q 207 378 207 528 q 255 164 207 227 q 395 100 302 100 m 355 866 q 366 913 356 893 q 389 944 376 932 q 422 971 401 956 q 453 997 444 987 q 463 1022 463 1008 q 444 1055 463 1044 q 385 1065 425 1065 q 274 1049 328 1065 l 274 1113 q 330 1126 297 1121 q 392 1131 363 1131 q 546 1031 546 1131 q 538 991 546 1008 q 519 964 530 975 q 488 940 508 953 q 450 906 463 921 q 436 866 438 890 l 355 866 z "},"ơ":{"ha":790,"x_min":60,"x_max":754,"o":"m 623 690 q 731 377 731 592 q 642 84 731 181 q 395 -14 553 -14 q 148 83 237 -14 q 60 376 60 180 q 148 671 60 574 q 398 767 236 767 q 476 763 431 767 q 524 760 513 760 q 654 872 654 760 q 640 969 654 917 l 739 969 q 751 919 747 944 q 754 866 754 895 q 720 750 754 794 q 623 690 685 706 m 395 100 q 536 163 488 100 q 584 375 584 226 q 536 590 584 526 q 395 653 488 653 q 255 591 303 653 q 207 378 207 528 q 255 164 207 227 q 395 100 302 100 z "},"ớ":{"ha":790,"x_min":60,"x_max":754,"o":"m 624 1122 l 455 866 l 327 866 l 474 1122 l 624 1122 m 623 690 q 731 377 731 592 q 642 84 731 181 q 395 -14 553 -14 q 148 83 237 -14 q 60 376 60 180 q 148 671 60 574 q 398 767 236 767 q 476 763 431 767 q 524 760 513 760 q 654 872 654 760 q 640 969 654 917 l 739 969 q 751 919 747 944 q 754 866 754 895 q 720 750 754 794 q 623 690 685 706 m 395 100 q 536 163 488 100 q 584 375 584 226 q 536 590 584 526 q 395 653 488 653 q 255 591 303 653 q 207 378 207 528 q 255 164 207 227 q 395 100 302 100 z "},"ợ":{"ha":790,"x_min":60,"x_max":754,"o":"m 623 690 q 731 377 731 592 q 642 84 731 181 q 395 -14 553 -14 q 148 83 237 -14 q 60 376 60 180 q 148 671 60 574 q 398 767 236 767 q 476 763 431 767 q 524 760 513 760 q 654 872 654 760 q 640 969 654 917 l 739 969 q 751 919 747 944 q 754 866 754 895 q 720 750 754 794 q 623 690 685 706 m 395 100 q 536 163 488 100 q 584 375 584 226 q 536 590 584 526 q 395 653 488 653 q 255 591 303 653 q 207 378 207 528 q 255 164 207 227 q 395 100 302 100 m 394 -267 q 331 -246 353 -267 q 308 -187 308 -224 q 331 -127 308 -149 q 394 -106 353 -106 q 457 -127 434 -106 q 480 -187 480 -149 q 457 -246 480 -224 q 394 -267 434 -267 z "},"ờ":{"ha":790,"x_min":60,"x_max":754,"o":"m 623 690 q 731 377 731 592 q 642 84 731 181 q 395 -14 553 -14 q 148 83 237 -14 q 60 376 60 180 q 148 671 60 574 q 398 767 236 767 q 476 763 431 767 q 524 760 513 760 q 654 872 654 760 q 640 969 654 917 l 739 969 q 751 919 747 944 q 754 866 754 895 q 720 750 754 794 q 623 690 685 706 m 395 100 q 536 163 488 100 q 584 375 584 226 q 536 590 584 526 q 395 653 488 653 q 255 591 303 653 q 207 378 207 528 q 255 164 207 227 q 395 100 302 100 m 325 866 l 150 1122 l 305 1122 l 457 866 l 325 866 z "},"ở":{"ha":790,"x_min":60,"x_max":754,"o":"m 623 690 q 731 377 731 592 q 642 84 731 181 q 395 -14 553 -14 q 148 83 237 -14 q 60 376 60 180 q 148 671 60 574 q 398 767 236 767 q 476 763 431 767 q 524 760 513 760 q 654 872 654 760 q 640 969 654 917 l 739 969 q 751 919 747 944 q 754 866 754 895 q 720 750 754 794 q 623 690 685 706 m 395 100 q 536 163 488 100 q 584 375 584 226 q 536 590 584 526 q 395 653 488 653 q 255 591 303 653 q 207 378 207 528 q 255 164 207 227 q 395 100 302 100 m 351 866 q 361 913 351 893 q 384 944 372 932 q 418 971 397 956 q 449 997 440 987 q 458 1022 458 1008 q 440 1055 458 1044 q 381 1065 421 1065 q 269 1049 324 1065 l 269 1113 q 326 1126 293 1121 q 388 1131 359 1131 q 542 1031 542 1131 q 534 991 542 1008 q 515 964 526 975 q 484 940 503 953 q 446 906 458 921 q 432 866 433 890 l 351 866 z "},"ỡ":{"ha":790,"x_min":60,"x_max":754,"o":"m 284 981 q 224 967 251 981 q 168 926 196 954 l 168 1024 q 286 1072 215 1072 q 338 1064 314 1072 q 396 1041 362 1056 q 445 1020 425 1027 q 485 1014 465 1014 q 546 1027 518 1014 q 601 1068 574 1040 l 601 970 q 483 922 555 922 q 431 930 456 922 q 374 953 406 938 q 325 974 344 967 q 284 981 305 981 m 623 690 q 731 377 731 592 q 642 84 731 181 q 395 -14 553 -14 q 148 83 237 -14 q 60 376 60 180 q 148 671 60 574 q 398 767 236 767 q 476 763 431 767 q 524 760 513 760 q 654 872 654 760 q 640 969 654 917 l 739 969 q 751 919 747 944 q 754 866 754 895 q 720 750 754 794 q 623 690 685 706 m 395 100 q 536 163 488 100 q 584 375 584 226 q 536 590 584 526 q 395 653 488 653 q 255 591 303 653 q 207 378 207 528 q 255 164 207 227 q 395 100 302 100 z "},"ő":{"ha":790,"x_min":60,"x_max":731,"o":"m 395 -14 q 148 83 237 -14 q 60 376 60 180 q 148 670 60 574 q 395 767 235 767 q 643 671 555 767 q 731 377 731 574 q 642 84 731 181 q 395 -14 553 -14 m 395 100 q 536 163 488 100 q 584 375 584 226 q 536 590 584 526 q 395 653 488 653 q 255 591 303 653 q 207 378 207 528 q 255 164 207 227 q 395 100 302 100 m 217 866 l 316 1122 l 434 1122 l 326 866 l 217 866 m 464 866 l 563 1122 l 681 1122 l 574 866 l 464 866 z "},"ȏ":{"ha":790,"x_min":60,"x_max":731,"o":"m 395 -14 q 148 83 237 -14 q 60 376 60 180 q 148 670 60 574 q 395 767 235 767 q 643 671 555 767 q 731 377 731 574 q 642 84 731 181 q 395 -14 553 -14 m 395 100 q 536 163 488 100 q 584 375 584 226 q 536 590 584 526 q 395 653 488 653 q 255 591 303 653 q 207 378 207 528 q 255 164 207 227 q 395 100 302 100 m 174 885 q 235 1058 178 999 q 394 1117 292 1117 q 553 1057 495 1117 q 617 885 612 997 l 524 885 q 394 1037 514 1037 q 302 999 333 1037 q 267 885 271 961 l 174 885 z "},"ō":{"ha":790,"x_min":60,"x_max":731,"o":"m 395 -14 q 148 83 237 -14 q 60 376 60 180 q 148 670 60 574 q 395 767 235 767 q 643 671 555 767 q 731 377 731 574 q 642 84 731 181 q 395 -14 553 -14 m 395 100 q 536 163 488 100 q 584 375 584 226 q 536 590 584 526 q 395 653 488 653 q 255 591 303 653 q 207 378 207 528 q 255 164 207 227 q 395 100 302 100 m 170 941 l 170 1034 l 620 1034 l 620 941 l 170 941 z "},"ṓ":{"ha":790,"x_min":60,"x_max":731,"o":"m 395 -14 q 148 83 237 -14 q 60 376 60 180 q 148 670 60 574 q 395 767 235 767 q 643 671 555 767 q 731 377 731 574 q 642 84 731 181 q 395 -14 553 -14 m 395 100 q 536 163 488 100 q 584 375 584 226 q 536 590 584 526 q 395 653 488 653 q 255 591 303 653 q 207 378 207 528 q 255 164 207 227 q 395 100 302 100 m 170 941 l 170 1034 l 620 1034 l 620 941 l 170 941 m 329 1132 l 453 1333 l 608 1333 l 460 1132 l 329 1132 z "},"ṑ":{"ha":790,"x_min":60,"x_max":731,"o":"m 395 -14 q 148 83 237 -14 q 60 376 60 180 q 148 670 60 574 q 395 767 235 767 q 643 671 555 767 q 731 377 731 574 q 642 84 731 181 q 395 -14 553 -14 m 395 100 q 536 163 488 100 q 584 375 584 226 q 536 590 584 526 q 395 653 488 653 q 255 591 303 653 q 207 378 207 528 q 255 164 207 227 q 395 100 302 100 m 170 941 l 170 1034 l 620 1034 l 620 941 l 170 941 m 330 1132 l 182 1333 l 336 1333 l 460 1132 l 330 1132 z "},"ǫ":{"ha":790,"x_min":60,"x_max":731,"o":"m 519 5 q 395 -65 431 -26 q 359 -151 359 -105 q 382 -208 359 -188 q 446 -228 405 -228 q 535 -208 490 -228 l 543 -269 q 431 -294 491 -294 q 313 -259 355 -294 q 271 -162 271 -224 q 358 -12 271 -69 q 138 95 216 -1 q 60 376 60 192 q 148 670 60 574 q 395 767 235 767 q 643 671 555 767 q 731 377 731 574 q 676 131 731 223 q 519 5 622 39 m 207 378 q 255 164 207 227 q 395 100 302 100 q 536 163 488 100 q 584 375 584 226 q 536 590 584 526 q 395 653 488 653 q 255 591 303 653 q 207 378 207 528 z "},"ø":{"ha":790,"x_min":60,"x_max":731,"o":"m 649 663 q 731 377 731 565 q 642 84 731 181 q 395 -14 553 -14 q 201 37 280 -14 l 156 -27 l 89 22 l 140 92 q 60 376 60 191 q 148 670 60 574 q 395 767 235 767 q 588 718 510 767 l 634 783 l 701 734 l 649 663 m 395 655 q 252 592 301 655 q 203 378 203 528 q 228 206 203 271 l 519 613 q 395 655 475 655 m 395 99 q 539 162 490 99 q 588 375 588 225 q 561 550 588 485 l 270 142 q 395 99 315 99 z "},"ǿ":{"ha":790,"x_min":60,"x_max":731,"o":"m 649 663 q 731 377 731 565 q 642 84 731 181 q 395 -14 553 -14 q 201 37 280 -14 l 156 -27 l 89 22 l 140 92 q 60 376 60 191 q 148 670 60 574 q 395 767 235 767 q 588 718 510 767 l 634 783 l 701 734 l 649 663 m 395 655 q 252 592 301 655 q 203 378 203 528 q 228 206 203 271 l 519 613 q 395 655 475 655 m 395 99 q 539 162 490 99 q 588 375 588 225 q 561 550 588 485 l 270 142 q 395 99 315 99 m 326 866 l 478 1122 l 633 1122 l 458 866 l 326 866 z "},"õ":{"ha":790,"x_min":60,"x_max":731,"o":"m 395 -14 q 148 83 237 -14 q 60 376 60 180 q 148 670 60 574 q 395 767 235 767 q 643 671 555 767 q 731 377 731 574 q 642 84 731 181 q 395 -14 553 -14 m 395 100 q 536 163 488 100 q 584 375 584 226 q 536 590 584 526 q 395 653 488 653 q 255 591 303 653 q 207 378 207 528 q 255 164 207 227 q 395 100 302 100 m 498 922 q 444 930 470 922 q 384 953 419 938 q 332 974 353 967 q 290 981 311 981 q 227 967 256 981 q 170 926 198 954 l 170 1024 q 292 1072 217 1072 q 346 1064 320 1072 q 407 1041 372 1056 q 459 1020 439 1027 q 500 1014 479 1014 q 564 1027 535 1014 q 620 1068 592 1040 l 620 970 q 498 922 574 922 z "},"ṍ":{"ha":790,"x_min":60,"x_max":731,"o":"m 395 -14 q 148 83 237 -14 q 60 376 60 180 q 148 670 60 574 q 395 767 235 767 q 643 671 555 767 q 731 377 731 574 q 642 84 731 181 q 395 -14 553 -14 m 395 100 q 536 163 488 100 q 584 375 584 226 q 536 590 584 526 q 395 653 488 653 q 255 591 303 653 q 207 378 207 528 q 255 164 207 227 q 395 100 302 100 m 498 922 q 444 930 470 922 q 384 953 419 938 q 332 974 353 967 q 290 981 311 981 q 227 967 256 981 q 170 926 198 954 l 170 1024 q 292 1072 217 1072 q 346 1064 320 1072 q 407 1041 372 1056 q 459 1020 439 1027 q 500 1014 479 1014 q 564 1027 535 1014 q 620 1068 592 1040 l 620 970 q 498 922 574 922 m 366 1225 l 490 1426 l 644 1426 l 497 1225 l 366 1225 z "},"ṏ":{"ha":790,"x_min":60,"x_max":731,"o":"m 395 -14 q 148 83 237 -14 q 60 376 60 180 q 148 670 60 574 q 395 767 235 767 q 643 671 555 767 q 731 377 731 574 q 642 84 731 181 q 395 -14 553 -14 m 395 100 q 536 163 488 100 q 584 375 584 226 q 536 590 584 526 q 395 653 488 653 q 255 591 303 653 q 207 378 207 528 q 255 164 207 227 q 395 100 302 100 m 498 922 q 444 930 470 922 q 384 953 419 938 q 332 974 353 967 q 290 981 311 981 q 227 967 256 981 q 170 926 198 954 l 170 1024 q 292 1072 217 1072 q 346 1064 320 1072 q 407 1041 372 1056 q 459 1020 439 1027 q 500 1014 479 1014 q 564 1027 535 1014 q 620 1068 592 1040 l 620 970 q 498 922 574 922 m 238 1130 q 175 1151 198 1130 q 152 1211 152 1173 q 175 1272 152 1250 q 238 1294 198 1294 q 301 1272 278 1294 q 324 1211 324 1249 q 301 1151 324 1173 q 238 1130 278 1130 m 552 1130 q 489 1151 512 1130 q 467 1211 467 1173 q 489 1272 467 1250 q 552 1294 512 1294 q 615 1272 592 1294 q 638 1211 638 1250 q 615 1151 638 1173 q 552 1130 592 1130 z "},"ȭ":{"ha":790,"x_min":60,"x_max":731,"o":"m 395 -14 q 148 83 237 -14 q 60 376 60 180 q 148 670 60 574 q 395 767 235 767 q 643 671 555 767 q 731 377 731 574 q 642 84 731 181 q 395 -14 553 -14 m 395 100 q 536 163 488 100 q 584 375 584 226 q 536 590 584 526 q 395 653 488 653 q 255 591 303 653 q 207 378 207 528 q 255 164 207 227 q 395 100 302 100 m 498 922 q 444 930 470 922 q 384 953 419 938 q 332 974 353 967 q 290 981 311 981 q 227 967 256 981 q 170 926 198 954 l 170 1024 q 292 1072 217 1072 q 346 1064 320 1072 q 407 1041 372 1056 q 459 1020 439 1027 q 500 1014 479 1014 q 564 1027 535 1014 q 620 1068 592 1040 l 620 970 q 498 922 574 922 m 170 1166 l 170 1259 l 620 1259 l 620 1166 l 170 1166 z "},"œ":{"ha":1247,"x_min":60,"x_max":1197,"o":"m 1197 333 l 728 333 q 757 197 731 248 q 835 124 783 147 q 971 101 888 101 q 1158 129 1052 101 l 1158 15 q 953 -14 1051 -14 q 765 20 841 -14 q 648 125 690 54 q 543 21 609 56 q 388 -14 478 -14 q 147 83 235 -14 q 60 376 60 180 q 147 670 60 573 q 388 767 233 767 q 548 731 481 767 q 653 620 615 694 q 753 730 690 693 q 903 767 817 767 q 1120 669 1044 767 q 1197 375 1197 571 l 1197 333 m 896 669 q 773 612 815 669 q 727 424 730 555 l 1060 424 q 1017 612 1058 556 q 896 669 976 669 m 394 100 q 533 163 485 100 q 581 375 581 226 q 533 590 581 526 q 394 653 485 653 q 255 591 302 653 q 207 378 207 528 q 255 164 207 227 q 394 100 302 100 z "},"p":{"ha":805,"x_min":98,"x_max":745,"o":"m 98 756 l 221 756 l 231 672 l 238 672 q 326 742 273 717 q 444 767 378 767 q 598 729 531 767 q 705 607 665 691 q 745 392 745 523 q 646 89 745 190 q 353 -13 547 -13 q 242 -5 308 -13 l 242 -306 l 98 -306 l 98 756 m 356 101 q 539 167 478 101 q 599 380 599 233 q 548 586 599 526 q 406 646 497 646 q 315 626 358 646 q 242 566 272 606 l 242 113 q 297 104 266 108 q 356 101 327 101 z "},"þ":{"ha":805,"x_min":98,"x_max":745,"o":"m 98 1122 l 242 1122 l 242 677 l 250 677 q 338 743 285 719 q 456 767 390 767 q 603 728 538 767 q 707 606 669 690 q 745 392 745 522 q 646 89 745 190 q 353 -13 547 -13 q 242 -5 308 -13 l 242 -306 l 98 -306 l 98 1122 m 356 101 q 539 167 478 101 q 599 380 599 233 q 548 585 599 526 q 406 645 497 645 q 315 626 358 645 q 242 568 272 606 l 242 113 q 297 104 266 108 q 356 101 327 101 z "},"q":{"ha":805,"x_min":60,"x_max":707,"o":"m 563 76 l 555 76 q 467 10 519 34 q 350 -13 415 -13 q 202 25 267 -13 q 98 148 137 64 q 60 362 60 232 q 159 666 60 565 q 456 767 259 767 q 586 758 520 767 q 707 731 653 748 l 707 -306 l 563 -306 l 563 76 m 399 108 q 489 127 446 108 q 563 183 533 146 l 563 640 q 444 653 506 653 q 266 587 326 653 q 207 374 207 520 q 257 168 207 228 q 399 108 308 108 z "},"r":{"ha":522,"x_min":98,"x_max":513,"o":"m 98 756 l 218 756 l 229 655 l 238 655 q 330 736 273 708 q 452 764 387 764 q 513 758 483 764 l 513 626 q 444 631 482 631 q 332 606 388 631 q 242 535 276 581 l 242 0 l 98 0 l 98 756 z "},"ŕ":{"ha":522,"x_min":98,"x_max":542,"o":"m 98 756 l 218 756 l 229 655 l 238 655 q 330 736 273 708 q 452 764 387 764 q 513 758 483 764 l 513 626 q 444 631 482 631 q 332 606 388 631 q 242 535 276 581 l 242 0 l 98 0 l 98 756 m 235 866 l 387 1122 l 542 1122 l 367 866 l 235 866 z "},"ř":{"ha":522,"x_min":79,"x_max":522,"o":"m 98 756 l 218 756 l 229 655 l 238 655 q 330 736 273 708 q 452 764 387 764 q 513 758 483 764 l 513 626 q 444 631 482 631 q 332 606 388 631 q 242 535 276 581 l 242 0 l 98 0 l 98 756 m 412 1122 l 522 1122 l 363 866 l 238 866 l 79 1122 l 190 1122 l 301 937 l 412 1122 z "},"ŗ":{"ha":522,"x_min":83,"x_max":513,"o":"m 98 756 l 218 756 l 229 655 l 238 655 q 330 736 273 708 q 452 764 387 764 q 513 758 483 764 l 513 626 q 444 631 482 631 q 332 606 388 631 q 242 535 276 581 l 242 0 l 98 0 l 98 756 m 169 -106 q 259 -190 259 -106 q 247 -260 259 -222 q 215 -331 235 -299 l 125 -331 q 157 -232 151 -276 q 101 -212 120 -229 q 83 -169 83 -196 q 105 -123 83 -140 q 169 -106 127 -106 z "},"ȑ":{"ha":522,"x_min":13,"x_max":513,"o":"m 98 756 l 218 756 l 229 655 l 238 655 q 330 736 273 708 q 452 764 387 764 q 513 758 483 764 l 513 626 q 444 631 482 631 q 332 606 388 631 q 242 535 276 581 l 242 0 l 98 0 l 98 756 m 121 866 l 13 1122 l 133 1122 l 232 866 l 121 866 m 369 866 l 262 1122 l 382 1122 l 481 866 l 369 866 z "},"ṛ":{"ha":522,"x_min":85,"x_max":513,"o":"m 98 756 l 218 756 l 229 655 l 238 655 q 330 736 273 708 q 452 764 387 764 q 513 758 483 764 l 513 626 q 444 631 482 631 q 332 606 388 631 q 242 535 276 581 l 242 0 l 98 0 l 98 756 m 171 -267 q 108 -246 131 -267 q 85 -187 85 -224 q 108 -127 85 -149 q 171 -106 131 -106 q 234 -127 211 -106 q 257 -187 257 -149 q 234 -246 257 -224 q 171 -267 211 -267 z "},"ȓ":{"ha":522,"x_min":79,"x_max":522,"o":"m 98 756 l 218 756 l 229 655 l 238 655 q 330 736 273 708 q 452 764 387 764 q 513 758 483 764 l 513 626 q 444 631 482 631 q 332 606 388 631 q 242 535 276 581 l 242 0 l 98 0 l 98 756 m 79 885 q 141 1058 84 999 q 300 1117 198 1117 q 459 1057 401 1117 q 522 885 517 997 l 429 885 q 300 1037 419 1037 q 208 999 239 1037 q 172 885 176 961 l 79 885 z "},"ṟ":{"ha":522,"x_min":-40,"x_max":513,"o":"m 98 756 l 218 756 l 229 655 l 238 655 q 330 736 273 708 q 452 764 387 764 q 513 758 483 764 l 513 626 q 444 631 482 631 q 332 606 388 631 q 242 535 276 581 l 242 0 l 98 0 l 98 756 m -40 -233 l -40 -140 l 382 -140 l 382 -233 l -40 -233 z "},"s":{"ha":641,"x_min":56,"x_max":598,"o":"m 291 -14 q 72 17 172 -14 l 72 130 q 290 97 181 97 q 420 126 378 97 q 461 208 461 154 q 438 276 461 253 q 359 311 415 299 l 251 333 q 102 404 149 353 q 56 542 56 456 q 91 660 56 609 q 197 739 126 711 q 372 767 267 767 q 557 744 471 767 l 557 632 q 376 656 469 656 q 235 626 278 656 q 192 545 192 596 q 215 481 192 505 q 292 444 238 456 l 400 424 q 551 352 503 402 q 598 215 598 303 q 563 92 598 144 q 458 14 527 41 q 291 -14 389 -14 z "},"ś":{"ha":641,"x_min":56,"x_max":598,"o":"m 291 -14 q 72 17 172 -14 l 72 130 q 290 97 181 97 q 420 126 378 97 q 461 208 461 154 q 438 276 461 253 q 359 311 415 299 l 251 333 q 102 404 149 353 q 56 542 56 456 q 91 660 56 609 q 197 739 126 711 q 372 767 267 767 q 557 744 471 767 l 557 632 q 376 656 469 656 q 235 626 278 656 q 192 545 192 596 q 215 481 192 505 q 292 444 238 456 l 400 424 q 551 352 503 402 q 598 215 598 303 q 563 92 598 144 q 458 14 527 41 q 291 -14 389 -14 m 258 866 l 410 1122 l 565 1122 l 390 866 l 258 866 z "},"ṥ":{"ha":641,"x_min":56,"x_max":598,"o":"m 291 -14 q 72 17 172 -14 l 72 130 q 290 97 181 97 q 420 126 378 97 q 461 208 461 154 q 438 276 461 253 q 359 311 415 299 l 251 333 q 102 404 149 353 q 56 542 56 456 q 91 660 56 609 q 197 739 126 711 q 372 767 267 767 q 557 744 471 767 l 557 632 q 376 656 469 656 q 235 626 278 656 q 192 545 192 596 q 215 481 192 505 q 292 444 238 456 l 400 424 q 551 352 503 402 q 598 215 598 303 q 563 92 598 144 q 458 14 527 41 q 291 -14 389 -14 m 247 1094 q 187 1112 208 1094 q 166 1160 166 1129 q 187 1209 166 1192 q 247 1226 208 1226 q 307 1209 285 1226 q 328 1160 328 1192 q 307 1112 328 1129 q 247 1094 285 1094 m 258 866 l 410 1122 l 565 1122 l 390 866 l 258 866 z "},"š":{"ha":641,"x_min":56,"x_max":598,"o":"m 291 -14 q 72 17 172 -14 l 72 130 q 290 97 181 97 q 420 126 378 97 q 461 208 461 154 q 438 276 461 253 q 359 311 415 299 l 251 333 q 102 404 149 353 q 56 542 56 456 q 91 660 56 609 q 197 739 126 711 q 372 767 267 767 q 557 744 471 767 l 557 632 q 376 656 469 656 q 235 626 278 656 q 192 545 192 596 q 215 481 192 505 q 292 444 238 456 l 400 424 q 551 352 503 402 q 598 215 598 303 q 563 92 598 144 q 458 14 527 41 q 291 -14 389 -14 m 435 1122 l 545 1122 l 386 866 l 261 866 l 102 1122 l 213 1122 l 324 937 l 435 1122 z "},"ṧ":{"ha":641,"x_min":56,"x_max":598,"o":"m 291 -14 q 72 17 172 -14 l 72 130 q 290 97 181 97 q 420 126 378 97 q 461 208 461 154 q 438 276 461 253 q 359 311 415 299 l 251 333 q 102 404 149 353 q 56 542 56 456 q 91 660 56 609 q 197 739 126 711 q 372 767 267 767 q 557 744 471 767 l 557 632 q 376 656 469 656 q 235 626 278 656 q 192 545 192 596 q 215 481 192 505 q 292 444 238 456 l 400 424 q 551 352 503 402 q 598 215 598 303 q 563 92 598 144 q 458 14 527 41 q 291 -14 389 -14 m 324 1133 q 264 1150 285 1133 q 242 1198 242 1167 q 264 1247 242 1229 q 324 1265 285 1265 q 383 1247 362 1265 q 405 1198 405 1229 q 383 1150 405 1167 q 324 1133 362 1133 m 435 1122 l 545 1122 l 386 866 l 261 866 l 102 1122 l 213 1122 l 324 937 l 435 1122 z "},"ş":{"ha":641,"x_min":56,"x_max":598,"o":"m 598 215 q 538 64 598 122 q 367 -9 478 6 l 367 -69 q 448 -105 420 -76 q 476 -181 476 -134 q 437 -264 476 -234 q 324 -294 398 -294 q 259 -288 291 -294 q 203 -271 228 -282 l 203 -206 q 319 -231 258 -231 q 376 -217 357 -231 q 394 -175 394 -203 q 317 -119 394 -119 l 290 -119 l 290 -14 q 72 17 172 -14 l 72 130 q 290 97 181 97 q 420 126 378 97 q 461 208 461 154 q 438 276 461 253 q 359 311 415 299 l 251 333 q 102 404 149 353 q 56 542 56 456 q 91 660 56 609 q 197 739 126 711 q 372 767 267 767 q 557 744 471 767 l 557 632 q 376 656 469 656 q 235 626 278 656 q 192 545 192 596 q 215 481 192 505 q 292 444 238 456 l 400 424 q 551 352 503 402 q 598 215 598 303 z "},"ŝ":{"ha":641,"x_min":56,"x_max":598,"o":"m 291 -14 q 72 17 172 -14 l 72 130 q 290 97 181 97 q 420 126 378 97 q 461 208 461 154 q 438 276 461 253 q 359 311 415 299 l 251 333 q 102 404 149 353 q 56 542 56 456 q 91 660 56 609 q 197 739 126 711 q 372 767 267 767 q 557 744 471 767 l 557 632 q 376 656 469 656 q 235 626 278 656 q 192 545 192 596 q 215 481 192 505 q 292 444 238 456 l 400 424 q 551 352 503 402 q 598 215 598 303 q 563 92 598 144 q 458 14 527 41 q 291 -14 389 -14 m 543 866 l 433 866 l 324 1051 l 214 866 l 104 866 l 261 1122 l 386 1122 l 543 866 z "},"ș":{"ha":641,"x_min":56,"x_max":598,"o":"m 291 -14 q 72 17 172 -14 l 72 130 q 290 97 181 97 q 420 126 378 97 q 461 208 461 154 q 438 276 461 253 q 359 311 415 299 l 251 333 q 102 404 149 353 q 56 542 56 456 q 91 660 56 609 q 197 739 126 711 q 372 767 267 767 q 557 744 471 767 l 557 632 q 376 656 469 656 q 235 626 278 656 q 192 545 192 596 q 215 481 192 505 q 292 444 238 456 l 400 424 q 551 352 503 402 q 598 215 598 303 q 563 92 598 144 q 458 14 527 41 q 291 -14 389 -14 m 322 -106 q 412 -190 412 -106 q 400 -260 412 -222 q 368 -331 388 -299 l 278 -331 q 310 -232 303 -276 q 254 -212 273 -229 q 235 -169 235 -196 q 258 -123 235 -140 q 322 -106 280 -106 z "},"ṡ":{"ha":641,"x_min":56,"x_max":598,"o":"m 291 -14 q 72 17 172 -14 l 72 130 q 290 97 181 97 q 420 126 378 97 q 461 208 461 154 q 438 276 461 253 q 359 311 415 299 l 251 333 q 102 404 149 353 q 56 542 56 456 q 91 660 56 609 q 197 739 126 711 q 372 767 267 767 q 557 744 471 767 l 557 632 q 376 656 469 656 q 235 626 278 656 q 192 545 192 596 q 215 481 192 505 q 292 444 238 456 l 400 424 q 551 352 503 402 q 598 215 598 303 q 563 92 598 144 q 458 14 527 41 q 291 -14 389 -14 m 324 903 q 253 924 277 903 q 228 986 228 946 q 253 1049 228 1026 q 324 1071 277 1071 q 394 1049 370 1071 q 419 986 419 1026 q 394 924 419 946 q 324 903 370 903 z "},"ṣ":{"ha":641,"x_min":56,"x_max":598,"o":"m 291 -14 q 72 17 172 -14 l 72 130 q 290 97 181 97 q 420 126 378 97 q 461 208 461 154 q 438 276 461 253 q 359 311 415 299 l 251 333 q 102 404 149 353 q 56 542 56 456 q 91 660 56 609 q 197 739 126 711 q 372 767 267 767 q 557 744 471 767 l 557 632 q 376 656 469 656 q 235 626 278 656 q 192 545 192 596 q 215 481 192 505 q 292 444 238 456 l 400 424 q 551 352 503 402 q 598 215 598 303 q 563 92 598 144 q 458 14 527 41 q 291 -14 389 -14 m 324 -267 q 260 -246 283 -267 q 238 -187 238 -224 q 260 -127 238 -149 q 324 -106 283 -106 q 387 -127 364 -106 q 410 -187 410 -149 q 387 -246 410 -224 q 324 -267 364 -267 z "},"ṩ":{"ha":641,"x_min":56,"x_max":598,"o":"m 291 -14 q 72 17 172 -14 l 72 130 q 290 97 181 97 q 420 126 378 97 q 461 208 461 154 q 438 276 461 253 q 359 311 415 299 l 251 333 q 102 404 149 353 q 56 542 56 456 q 91 660 56 609 q 197 739 126 711 q 372 767 267 767 q 557 744 471 767 l 557 632 q 376 656 469 656 q 235 626 278 656 q 192 545 192 596 q 215 481 192 505 q 292 444 238 456 l 400 424 q 551 352 503 402 q 598 215 598 303 q 563 92 598 144 q 458 14 527 41 q 291 -14 389 -14 m 324 -267 q 260 -246 283 -267 q 238 -187 238 -224 q 260 -127 238 -149 q 324 -106 283 -106 q 387 -127 364 -106 q 410 -187 410 -149 q 387 -246 410 -224 q 324 -267 364 -267 m 324 903 q 253 924 277 903 q 228 986 228 946 q 253 1049 228 1026 q 324 1071 277 1071 q 394 1049 370 1071 q 419 986 419 1026 q 394 924 419 946 q 324 903 370 903 z "},"ß":{"ha":1001,"x_min":14,"x_max":958,"o":"m 760 424 q 911 352 864 401 q 958 215 958 303 q 922 92 958 144 q 816 14 886 41 q 644 -14 746 -14 q 433 15 531 -14 l 433 127 q 644 97 538 97 q 779 125 737 97 q 822 208 822 153 q 798 276 822 253 q 719 311 775 299 l 611 333 q 463 405 509 353 q 416 541 416 456 q 450 658 416 608 q 554 736 485 708 q 726 763 624 763 q 756 763 745 763 q 759 812 759 785 q 700 978 759 926 q 538 1030 641 1030 q 356 964 417 1030 q 294 756 294 898 l 294 0 l 150 0 l 150 636 l 14 636 l 14 756 l 150 756 l 150 756 q 195 964 150 879 q 325 1093 240 1049 q 529 1136 410 1136 q 706 1101 631 1136 q 825 991 782 1065 q 867 802 867 916 q 847 648 867 730 q 742 656 798 656 q 597 626 641 656 q 553 545 553 596 q 576 481 553 505 q 652 444 599 456 l 760 424 z "}}}
